<?xml version="1.0" standalone="no"?>
<!DOCTYPE svg PUBLIC "-//W3C//DTD SVG 1.1//EN" "http://www.w3.org/Graphics/SVG/1.1/DTD/svg11.dtd" >
<svg xmlns="http://www.w3.org/2000/svg">
<metadata></metadata>
<defs>
<font id="eye_catchingregular" horiz-adv-x="472" >
<font-face units-per-em="1000" ascent="750" descent="-250" />
<missing-glyph horiz-adv-x="214" />
<glyph unicode="&#xd;" horiz-adv-x="255" />
<glyph unicode=" "  horiz-adv-x="214" />
<glyph unicode="&#x09;" horiz-adv-x="214" />
<glyph unicode="&#xa0;" horiz-adv-x="214" />
<glyph unicode="!" horiz-adv-x="302" d="M285 515q-3 -2 -12 -10t-20.5 -19t-24 -25t-24.5 -27q-26 -30 -45.5 -58.5t-36.5 -68.5q-10 -24 -13 -42t2 -25q2 -6 0.5 -10.5t-5 -6t-8 2t-7.5 14.5q-2 9 0 23t7.5 31.5t14 37t19.5 39.5q9 16 26 42t36.5 52t37.5 47t29 27q9 4 14.5 2t8.5 -7t3 -11t-2 -8zM64 156 q7 -2 13 -4.5t8 -13.5q0 -13 -7.5 -18t-15.5 -5q-7 -2 -15.5 3.5t-8.5 16.5t10 16t16 5z" />
<glyph unicode="&#x22;" horiz-adv-x="169" d="M80 419q-2 -6 -2 -8.5t1 -4t1 -2.5t-2 -3q-2 -4 -9 -3t-9 8t-1.5 12.5t5.5 20.5t10 32.5t10 28.5q4 13 14.5 9t8.5 -15q-1 -4 -4.5 -14.5t-8 -22t-8.5 -22.5t-6 -16zM127 422q0 -5 2 -6t4 -6q2 -2 -1.5 -6t-10.5 -6q-6 -2 -13 2t-7 13q0 3 5 16t11.5 28t13 28t8.5 18 q6 7 11 -1t0 -17q-2 -4 -6 -13.5t-8 -20t-6.5 -19t-2.5 -10.5z" />
<glyph unicode="#" horiz-adv-x="339" d="M38 450q7 2 35.5 4t60.5 2q9 18 17.5 33.5t10.5 20.5q0 5 8.5 3t8.5 -9q0 -4 -7 -16.5t-16 -31.5h29q12 -1 24.5 -1.5t25.5 -2.5q12 24 22.5 39t15.5 17q7 2 14 -2t1 -13q-7 -7 -15.5 -18.5t-16.5 -25.5q27 -5 47 -10t25 -10q7 -8 -0.5 -9t-13.5 1q-3 2 -22.5 6t-43.5 7 q-3 -6 -5.5 -12t-4.5 -12q-4 -8 -6.5 -16t-4.5 -16q16 -2 26.5 -3.5t13.5 -3.5q7 -4 -1 -10t-16 -4q-8 1 -28 3q-4 -18 -5 -32t1 -20q1 -6 -1.5 -9t-6.5 -3.5t-7.5 1.5t-4.5 8q-4 8 -3 23t6 33q-21 1 -44.5 0.5t-44.5 -1.5q-7 -18 -11 -33.5t-2 -15.5q5 0 9 6t6 8t6 -2 t-1 -12q-4 -7 -9 -16t-14 -13q-7 -2 -13 6t-4 25q1 8 4 20t8 27q-14 -1 -22.5 -1.5t-10.5 -1.5q-4 -1 -5.5 2.5t-0.5 8.5t2.5 9.5t3.5 5.5h42q5 11 10 23t12 26l3 6q-31 -2 -54.5 -5.5t-32.5 -5.5q-3 -2 -5 1t-2.5 7.5t1.5 9t6 5.5zM122 386q-1 -1 -1 -2t-1 -2 q21 0 43.5 -0.5t43.5 -2.5q3 10 6.5 20.5t7.5 21.5l6 15q-13 2 -24 3t-19 1h-19t-18 -1q-14 -27 -25 -53z" />
<glyph unicode="$" horiz-adv-x="242" d="M207 453q10 1 15 -5t-2 -12q-8 -5 -16.5 -15t-16.5 -23q20 -6 25 -14q4 -3 -1 -9t-8 -3q-5 7 -24 12q-8 -14 -14 -27t-10 -24q20 -5 37.5 -12.5t27.5 -18.5q8 -8 0.5 -22t-19.5 -22q-14 -9 -35.5 -17t-44.5 -15v-1q-18 -76 -8 -87q4 -6 -3 -11t-17 9q-6 8 -3 31t11 52 q-12 -2 -22.5 -4t-20.5 -4q-5 -17 -7.5 -27.5t-0.5 -10.5q6 -2 8 3.5t4 10.5q2 4 3.5 1.5t1.5 -13.5q0 -8 -5.5 -19.5t-11.5 -13.5q-4 -2 -12.5 1t-8.5 22q1 13 11 45q-16 -3 -27 -1q-14 1 -18 6.5t-1 13.5q4 14 19 24.5t26 15.5q10 5 14 2.5t-1 -2.5q-1 -1 -4.5 -3.5t-8 -6 t-8.5 -7t-7 -6.5q-8 -8 -5.5 -14.5t15.5 -6.5h4.5t5.5 1q8 24 17.5 50.5t19.5 49.5q1 1 1.5 2.5t1.5 3.5q-24 6 -32 13q-10 5 -10 16.5t8 18.5q7 4 24.5 9.5t40.5 9.5q10 20 18.5 34t13.5 17q8 5 13.5 -1t2.5 -13q-7 -5 -23 -34q1 0 1.5 0.5t2.5 0.5h21q10 20 20.5 33 t21.5 17zM130 319q-8 2 -15.5 4t-14.5 4v-1q-11 -25 -20 -50t-17 -48q10 2 20 4.5t21 4.5q6 22 12.5 43.5t13.5 38.5zM184 305q-6 2 -15 4.5t-21 6.5q-7 -19 -12 -34.5t-11 -38.5q19 6 36 12.5t28 14.5q13 9 12.5 18.5t-17.5 16.5zM108 345q7 -2 13.5 -3.5t14.5 -3.5l1 2 q7 23 20 47q-7 0 -14 -1t-15 -3q-5 -8 -10 -18.5t-10 -19.5zM91 349q2 7 6 14.5t6 14.5q-9 -3 -16 -5.5t-11 -4.5q-11 -5 -6 -9t12 -6z" />
<glyph unicode="%" horiz-adv-x="346" d="M54 366q-9 -18 -9.5 -34.5t6.5 -20.5q7 -5 24 0.5t34 16.5q17 13 26.5 24t14.5 22q3 10 3.5 18t0.5 15l-2 14q-10 1 -20 3q-8 2 -17.5 4t-14.5 7q-13 9 -12 16.5t21 9.5q8 2 17.5 0t17.5 -6q9 -4 17 -11q12 -1 25 -1q11 0 24 1t27 3q26 7 43.5 17.5t25.5 17.5q3 3 9.5 1 t12 -6.5t7 -10.5t-5.5 -10q-5 -5 -18.5 -14.5t-31 -22.5t-36 -29t-33.5 -33q-35 -38 -65 -78t-52 -73t-33 -54t-6 -21t11 5.5t11 13t8.5 14.5t4.5 10q0 7 7 8.5t7 -5.5q2 -4 -1.5 -14t-10.5 -21.5t-15.5 -21t-15.5 -12.5q-14 -7 -24 -0.5t-5 20.5q1 7 11 26.5t24 43t30 48 t30 41.5q24 32 46.5 57t39.5 44q20 21 39 39q-8 -2 -17 -3q-15 -3 -32 -3q-7 -2 -12.5 -2.5t-10.5 -1.5t-9 -2q3 -7 3 -16q0 -8 -2 -17.5t-7 -21.5q-5 -10 -14 -21.5t-22.5 -22.5t-30 -19t-34.5 -10q-24 -4 -32 12.5t-6 40.5q0 10 5 23.5t12.5 26.5t16.5 24t18 15q7 3 12 1 t7.5 -6.5t1.5 -9t-4 -5.5q-11 -5 -22 -15.5t-18 -27.5zM329 279q4 -11 1.5 -24t-8.5 -26.5t-15 -25.5t-16 -19q-20 -19 -42.5 -25.5t-42.5 4.5q-10 5 -14 15t-4 21q0 21 9 38q2 4 7 11.5t12 15.5t15 14.5t17 8.5q-2 7 1 11t8 4q3 1 13 2t21 -0.5t22 -7t16 -17.5zM281 202 q9 10 15.5 21t10 21.5t3.5 19t-4 12.5q-9 9 -22 7.5t-24 -1.5q2 -2 4 -6t-4 -9q-3 -2 -7 -3t-8 -3t-9.5 -6.5t-11.5 -13.5q-12 -17 -17.5 -36t6.5 -25q11 -5 29.5 -3t38.5 25z" />
<glyph unicode="&#x26;" horiz-adv-x="308" d="M379 264q14 -5 11 -14.5t-11 -12.5q-4 0 -5.5 1t-3.5 2.5t-5.5 2.5t-9.5 0q-15 -2 -32.5 -7t-34.5 -10.5t-33.5 -11.5t-29.5 -10q9 -13 17.5 -21.5t15.5 -13.5q8 -6 16 -10q-1 2 0 4q0 5 4 5q2 0 2.5 -4t10.5 -7q6 -3 11.5 -5.5t0.5 -8.5q-12 -15 -50 5q-9 5 -23.5 17 t-28.5 30q-24 -8 -49 -18.5t-49.5 -20t-48.5 -17t-48 -8.5q-23 -2 -39 3.5t-16 22.5q0 9 7.5 20.5t19.5 25t28.5 28.5t34.5 29q24 20 52 44t53 52q0 33 5 67t17 54q11 17 22.5 23.5t22.5 6.5q14 0 23 -8.5t8 -16.5q-1 -20 -8 -37.5t-17 -33.5t-22.5 -31t-24.5 -30 q2 -28 9 -55.5t20 -47.5q2 -6 5.5 -11t8.5 -10q13 4 36.5 12t49 14.5t47.5 10.5t31 1zM171 383q2 4 4 6l5 5q9 11 18.5 26t15.5 28.5t6.5 23t-8.5 10.5q-8 1 -15 -6.5t-12.5 -19t-9 -26t-4.5 -27.5v-20zM36 160q17 4 37 11.5t40.5 15.5t40.5 16.5t38 14.5q-15 18 -22 37 q-15 26 -19 74q-20 -20 -46.5 -43.5t-51.5 -45.5t-44 -41t-24 -29q-5 -12 7 -14.5t44 4.5z" />
<glyph unicode="'" horiz-adv-x="95" d="M122 501q8 1 7.5 -9.5t-4 -24t-8 -25.5t-4.5 -14q-1 -1 1 -2t3.5 -1.5t2.5 -1.5t-1 -3q-5 -2 -9 -9t-9 -9q-2 -5 -7.5 -1t-3.5 13q0 3 4 11.5t7.5 19t5 21t-2.5 17.5q-2 7 -0.5 11t5 6t7.5 2t6 -1z" />
<glyph unicode="(" horiz-adv-x="174" d="M227 560q-2 -2 -7.5 -8.5t-12 -13l-12.5 -12.5t-9 -7q-4 -4 -8 -2l-4 2q-11 -12 -21 -24q-9 -11 -18 -23.5t-16 -24.5q-8 -13 -23 -39t-33 -59.5t-35 -72t-28 -76.5q-9 -33 -13 -60t-4 -47q0 -49 17 -49q7 0 10.5 4.5t5.5 11t3 13.5t2 11q2 7 10.5 8.5t6.5 -14.5 q0 -17 -6 -34.5t-14 -25.5q-5 -2 -13 -2.5t-16.5 3t-16.5 12t-12 24.5q-5 16 -2.5 45.5t11 65.5t21.5 75t31 75q17 36 40 77.5t47 79t46.5 65t40.5 36.5q10 6 16.5 4.5t10.5 -5t5 -8t0 -5.5z" />
<glyph unicode=")" horiz-adv-x="301" d="M240 513q15 -5 23.5 -18.5t8.5 -39.5q0 -13 -2 -34t-6.5 -47t-11.5 -55t-18 -58q-12 -29 -27.5 -63.5t-35 -69t-44.5 -66.5t-55 -56q-7 -5 -13 -5.5t-9.5 1.5t-3.5 7t5 11l21 18t31 31.5t36.5 47t36.5 63.5t30 71t21.5 66t13 56t5.5 42q2 30 -5.5 45.5t-18.5 23.5 q-5 4 -5 10t3 10.5t8.5 7t11.5 1.5z" />
<glyph unicode="*" horiz-adv-x="378" d="M199 343q-4 -9 -12 -22t-8 -33q-1 -5 -1 -11v-11l1 1q9 11 24.5 26t32 29t31 25t22.5 13q16 4 21 -4.5t-3 -12.5q-6 -1 -15.5 -7t-21 -14.5t-23.5 -18t-22 -18.5q-5 -4 -12 -11l-15 -15q16 0 32 0.5t31 0.5q30 0 51.5 -1t26.5 -3q8 -5 5 -10t-14 -5q-5 0 -23 -0.5 t-40.5 -1t-46 -1t-39.5 -0.5q2 -11 6 -22t12 -21q14 -20 20.5 -30.5t8.5 -10.5q5 0 9 1t6 -1q5 -5 5 -14t-11 -9q-13 -2 -30 13.5t-31 44.5q-4 8 -7.5 16.5t-5.5 17.5q-21 -21 -39 -39.5t-23 -23.5q-11 -11 -16 -17.5t-16 -17.5q-11 -13 -16.5 -4.5t-3.5 19.5q2 4 5.5 8.5 t6.5 7.5q4 4 8 7q14 12 27 24q11 11 24.5 24t26.5 25q-14 0 -30 0.5t-31.5 2t-28.5 5t-20 9.5q-17 11 -18 27.5t12 21.5q9 2 24 -1.5t20 -10.5q4 -4 2.5 -7t-8.5 2q-5 4 -15.5 5t-10.5 -5q0 -7 8 -15.5t38 -10.5q9 -1 27.5 -1h38.5q-2 16 -1.5 31.5t5.5 29.5q6 20 11.5 31.5 t14.5 9.5q11 0 15 -5.5t-1 -11.5z" />
<glyph unicode="+" horiz-adv-x="401" d="M180 201q0 -11 3 -19.5t-3 -15.5q-7 -7 -15.5 -3t-10.5 18q-5 18 3 43.5t22 63.5q-15 0 -33 -2t-35.5 -3.5t-33 -2t-25.5 1.5q-11 2 -14 7t0 10t10 8.5t16 3.5h125q20 41 39.5 71.5t32.5 38.5q5 4 10.5 4t8.5 -3t2.5 -9t-7.5 -12q-10 -10 -24.5 -33t-31.5 -57 q17 0 36.5 0.5t38.5 1t34 1t23 0.5q7 -1 10.5 -5t3.5 -8.5t-4 -7.5t-10 -2q-6 0 -23 -0.5t-38.5 -1t-44 -1t-38.5 -0.5q-19 -35 -23 -56t-4 -31z" />
<glyph unicode="," horiz-adv-x="88" d="M67 138q-2 -9 -9.5 -17t-17 -15t-21 -12.5t-20.5 -7.5q-15 -4 -16 3.5t10 11.5q17 6 32.5 17.5t23.5 36.5q4 13 13 6.5t5 -23.5z" />
<glyph unicode="-" horiz-adv-x="344" d="M132 217q-2 -1 -6 -2q-3 -1 -7.5 -1.5t-12.5 -0.5q-12 -1 -18 0.5t-11 9.5q-8 20 13 17q8 -2 20.5 -1t38.5 1t46.5 1.5t28.5 -3.5q9 -2 12 -9t-2 -12q-3 -8 -11 -11t-12 -1q-3 1 -2 4t2.5 6t2 5.5t-4.5 2.5q-6 2 -18.5 1t-25.5 -3q-15 -2 -33 -4z" />
<glyph unicode="." horiz-adv-x="133" d="M52 145q-4 2 -4.5 5.5t-0.5 6.5q0 4 2 8l3 3q2 7 5.5 11t12.5 4q4 -1 8 -6.5t5.5 -12.5t0.5 -12.5t-5 -6.5q-9 -2 -14.5 -5.5t-12.5 5.5z" />
<glyph unicode="/" horiz-adv-x="311" d="M356 456q-9 -2 -30.5 -17.5t-53.5 -52.5q-8 -9 -21.5 -26t-29.5 -38t-34 -45t-35 -48q-40 -55 -86 -121q2 -2 2 -6q0 -8 -5 -15q-7 -8 -14.5 -20t-14.5 -12q-9 -2 -16 7t1 22q9 13 23.5 30.5t40.5 56.5q13 21 40 57t55.5 73t52 67.5t29.5 40.5q13 17 29 34.5t20 26.5 q7 7 19 12t19 -3q9 -9 12 -15t-3 -8z" />
<glyph unicode="0" horiz-adv-x="262" d="M139 465q10 6 13 3q4 2 7.5 3.5t6.5 3.5q26 8 49.5 -7.5t31.5 -50.5q3 -17 3 -35q0 -27 -7.5 -58.5t-23.5 -73.5q-14 -37 -32 -63t-36.5 -42.5t-36 -24.5t-32.5 -11q-35 -8 -54.5 8t-21.5 50q-2 29 7 68t29 87q10 24 23 47t26.5 42t26 33t21.5 21zM90 325q4 -11 -6.5 -16 t-14.5 -5t-6.5 1.5t-1.5 9.5q-9 -22 -19 -50t-15 -62q-7 -40 4.5 -56.5t31.5 -16.5q12 0 26 5.5t28 13.5q32 20 58.5 61t41.5 100q12 49 12 80q0 39 -14.5 53t-34.5 9q-14 -3 -25.5 -11t-21 -18.5t-16 -21.5t-9.5 -18q-8 -13 -13.5 -31t-4.5 -27z" />
<glyph unicode="1" horiz-adv-x="217" d="M150 453q0 5 -6.5 0.5t-14.5 -12.5t-17 -16t-15 -10q-10 -2 -14.5 4t6.5 11q6 3 14 10t16 15t14.5 15.5t10.5 11.5t12 7.5t15 3t10.5 -7.5t-0.5 -23q-6 -17 -14 -37.5t-17 -41t-17.5 -40.5t-14.5 -37q-8 -20 -19 -49t-20.5 -56.5t-15.5 -48t-4 -23.5q3 -2 7.5 1t8.5 0 q4 -4 3 -9t-5 -9.5t-10 -7t-13 -0.5q-19 7 -8 53q3 11 10.5 32.5t16.5 45.5l18 48t15 41t14 38t15.5 40t13 33t5.5 18z" />
<glyph unicode="2" horiz-adv-x="299" d="M147 422q-2 -4 -1.5 -6t1.5 -4t1 -4t-4 -6q-8 -5 -16.5 -1.5t-8.5 11.5q0 4 3.5 12t12 17t21.5 17.5t32 13.5q16 4 31 4q49 0 49 -54q0 -37 -15.5 -79t-50.5 -91l-5 -7q15 -6 27.5 -17t21.5 -23.5t14.5 -25t7.5 -22.5q0 -9 -3.5 -15.5t-7 -9.5t-7 -1.5t-3.5 8.5 q0 30 -16.5 54.5t-45.5 35.5q-32 -42 -68 -74t-66 -46q-23 -10 -36.5 0.5t-13.5 31.5q0 15 8 33.5t25 36.5q23 23 48.5 33t56.5 10q16 0 36 -3q14 19 27 41.5t23 45.5t16 45t6 40q0 14 -5 20.5t-12.5 9t-16 1t-14.5 -2.5q-20 -5 -33.5 -14t-18.5 -15zM37 131q13 0 28.5 10.5 t32 25.5t32.5 33t31 34q-28 4 -56.5 -4.5t-47.5 -25.5q-32 -29 -35.5 -51.5t15.5 -21.5z" />
<glyph unicode="3" horiz-adv-x="259" d="M76 440q4 3 14 10t24.5 13.5t32 11.5t36.5 5q24 0 39.5 -6t24 -13.5t9.5 -16t-3 -12.5q-5 -14 -16 -25.5t-23 -20t-21.5 -13t-10.5 -4.5q1 -1 8 -4t15 -8.5t15.5 -14.5t9.5 -22q3 -18 -3.5 -48t-28.5 -62q13 -9 17.5 -18.5t2.5 -16.5q-2 -8 -6 -12t-7.5 -4t-5 4t2.5 13 t-14 20q-6 -7 -12 -13.5t-14 -12.5q-36 -32 -67.5 -42t-51.5 -7q-16 2 -25.5 10.5t-9.5 22.5q0 20 19 42q10 11 34.5 22t59.5 11q20 0 39 -4q5 -2 9 -2.5t8 -2.5q17 24 25 51t3 47q-6 23 -26 30.5t-37 3.5q-20 0 -29.5 -4t-17.5 -8q-3 -2 -4 1.5t0 9t4.5 10t10.5 6.5 q7 4 13 6.5t13 4.5t16 4t22 6q25 9 41 25.5t16 26.5q0 6 -7 10t-17.5 6.5t-23 2t-23.5 -4.5q-26 -8 -40.5 -15t-22.5 -18q-2 -5 -6 -3.5t-7.5 5.5t-5 9t1.5 8zM101 210q-18 -3 -34 -13t-26 -21t-12.5 -20.5t7.5 -13.5q16 -2 44 4.5t66 40.5q5 4 10.5 9t10.5 10 q-14 5 -30.5 6t-35.5 -2z" />
<glyph unicode="4" horiz-adv-x="249" d="M214 480q2 -11 -4.5 -43t-16.5 -64l-26 -91q11 -2 20.5 -3.5t18.5 -4.5q13 -5 17 -10.5t3 -9.5t-6.5 -5t-12.5 2q-18 10 -45 13l-15 -54q-10 -40 -14 -65t6 -25q7 0 6 -10.5t-9 -10.5q-3 -5 -13.5 3.5t-10.5 22.5q0 26 8.5 63.5t20.5 76.5q-18 1 -36.5 -0.5t-34.5 -4.5 t-28 -6t-18 -5q-3 -2 -6.5 0.5t-5 8.5t-0.5 13.5t8 15.5q6 6 10.5 8.5t11.5 8.5t19 19t33 39q8 10 22.5 27.5t28.5 37t24.5 37t10.5 26.5q0 7 5 7.5t10 -2.5q5 2 11 -1.5t8 -13.5zM38 274q16 3 34 5q15 2 34.5 3t39.5 1l24 78q8 30 14 54t7 42q-7 -12 -17.5 -26.5t-21.5 -29 t-21.5 -27.5t-18.5 -23q-11 -15 -24 -28.5t-24 -24.5z" />
<glyph unicode="5" horiz-adv-x="252" d="M94 453l-42 -78q13 7 27 11q12 4 27 7t31 1q12 -1 26 -4.5t25.5 -11t17.5 -20t3 -31.5q-2 -14 -6 -28t-9 -28q14 -4 23.5 -10t13.5 -16q9 -17 1 -22t-17 6q-6 16 -30 22q-10 -19 -22 -36t-23 -31q-26 -30 -46.5 -43t-43.5 -18q-11 -2 -20 4.5t-14.5 17.5t-7 26t1.5 31 q3 17 13.5 29t25 20t31.5 13t34 8q13 2 27.5 3t28.5 0q8 18 13 37t1 34q-4 14 -19 19.5t-35 5.5q-23 0 -45.5 -6.5t-32.5 -14.5q-7 -6 -15 -9t-14 -2.5t-8.5 5t1.5 13.5q4 11 13.5 25.5t19 28.5t16 26t4.5 20q-7 20 10.5 23t57.5 3q16 2 33 1t31 -4t23.5 -9t11.5 -14 q4 -5 2.5 -9.5t-5 -6.5t-9 -2t-9.5 5q-11 10 -25.5 14t-40.5 4q-16 0 -25.5 -1.5t-14.5 -3.5q-6 -2 -9 -4h-6zM143 226q4 6 8.5 13.5t9.5 15.5q-11 1 -21.5 0.5t-21.5 -2.5q-40 -9 -65.5 -24.5t-25.5 -41.5q0 -20 9 -34t23 -6q6 3 14.5 8t19.5 14t23.5 22.5t26.5 34.5z" />
<glyph unicode="6" horiz-adv-x="229" d="M203 456q-11 0 -31 -17.5t-58 -65.5q-19 -24 -33.5 -50t-24.5 -50.5t-16 -47t-7 -40.5q-5 -70 44 -51q18 7 37.5 23t36.5 37t28.5 44t13.5 45q2 23 -11 34.5t-32 11.5q-14 0 -29 -6q-14 -5 -22 -14t-12 -18t-4.5 -17t-0.5 -12q0 -2 5.5 -3t-0.5 -3q0 -8 -8 -9.5t-13 15.5 q-3 10 0.5 24t12.5 27.5t22.5 23.5t30.5 13q16 3 32.5 -0.5t29 -14t18.5 -28t0 -42.5q-6 -26 -20 -49t-31 -42t-34.5 -33t-30.5 -21q-21 -12 -40 -12q-27 0 -37 25q-8 18 -8 45q0 28 10.5 65t36.5 82q44 75 83 115.5t59 43.5q14 2 19.5 -3.5t4.5 -10.5q-2 -11 -7 -22.5 t-14 -9.5q-3 -1 -3 2t1 6.5t2 6.5t0 3z" />
<glyph unicode="7" horiz-adv-x="240" d="M73 474q6 -8 23 -11t37 -3q29 0 49 6l18 6t9.5 3.5t6.5 2t9 2.5q5 2 11 0t9.5 -6.5t4.5 -10.5t-5 -12q-5 -5 -11.5 -10t-15.5 -13t-22 -21t-30 -33q-26 -30 -47 -66.5t-36 -68.5t-21.5 -53.5t-1.5 -22.5q3 0 5 3.5t4 6.5t4.5 4.5t5.5 -1.5q2 -3 1 -10.5t-5 -15.5t-11 -15 t-16 -8q-8 3 -10.5 21t2.5 37q5 23 23.5 65t53.5 93q15 23 29.5 41.5t25.5 32.5q13 16 26 29q-10 -2 -21 -4q-10 -2 -22 -3t-26 -1q-13 0 -26.5 1.5t-26.5 5.5q-15 4 -19.5 11.5t-3 13.5t7 8t12.5 -4z" />
<glyph unicode="8" horiz-adv-x="231" d="M199 432q0 -4 -2.5 -8t-5.5 -6t-5 -1.5t0 5.5q3 14 0 22.5t-9 13t-14 6t-14 1.5q-24 0 -49.5 -8t-45.5 -35q-10 -14 -10 -28q0 -11 5 -20.5t11 -19.5q8 -10 19.5 -22t23.5 -25q17 15 42.5 40.5t53.5 50.5q22 22 32 42t3 20q-35 1 -6 12q14 8 23 -3.5t1 -32.5 q-5 -19 -26.5 -41.5t-44.5 -45.5l-64 -59l17 -19q15 -20 25.5 -35.5t5.5 -35.5q-8 -30 -25.5 -49.5t-34.5 -30.5q-9 -6 -21 -10t-25 -4q-25 0 -45 14q-19 12 -19 36q0 8 1.5 16.5t6.5 18.5q4 11 13.5 24.5t21 27.5t24.5 27t24 23q-15 17 -29.5 33t-21.5 27q-17 18 -17 41 q0 20 12 38.5t32 30.5q14 8 39 19.5t60 7.5q18 -2 27.5 -10t13 -17.5t2.5 -18t-5 -12.5zM134 227q-2 9 -11.5 21.5t-21.5 26.5q-11 -10 -20 -19.5t-17 -17.5q-52 -54 -45 -88q2 -11 11.5 -17t23.5 -6q21 0 43 16q26 20 38.5 42t-1.5 42z" />
<glyph unicode="9" horiz-adv-x="268" d="M207 455q-10 2 -28.5 -2t-42.5 -20q-25 -17 -45.5 -38.5t-34.5 -41.5t-20 -34.5t-2 -15.5q6 -3 16 -1.5t22 7t25 13t26 15.5q10 7 27.5 22.5t34.5 32.5t31 32.5t18 23.5q4 6 11 6t11.5 -4t5.5 -10.5t-6 -14.5q-12 -17 -32 -46t-40 -74q-41 -90 -51 -140t-4 -57q4 -4 1 -7 t-8 -3.5t-11 3t-8 12.5q-3 20 9.5 59.5t28.5 84.5q5 14 12.5 32t15.5 34q9 18 19 37q-12 -10 -25 -21q-11 -9 -26 -19t-32 -19q-32 -17 -56.5 -23t-34.5 11q-8 13 1 37.5t41 68.5q10 13 26 28.5t35 29t40 23t41 11.5q13 0 18 -5t4 -11t-5 -11t-8 -5z" />
<glyph unicode=":" horiz-adv-x="111" d="M75 268q-4 2 -4.5 5.5t-0.5 6.5q0 4 2 8l6 7q2 7 4 9t11 2q9 -2 12 -10.5t-1 -16.5q-2 -2 -5.5 -6t-7.5 -6.5t-8.5 -3t-7.5 4.5zM39 147q-4 2 -4.5 5.5t-0.5 6.5q0 4 2 8l3 3q2 7 5.5 11t12.5 4q4 -1 8 -7t5.5 -12.5t0.5 -12t-5 -6.5q-9 -2 -14.5 -5.5t-12.5 5.5z" />
<glyph unicode=";" horiz-adv-x="133" d="M83 147q-4 -17 -19.5 -34t-34.5 -22q-15 -4 -16 3.5t10 11.5q17 6 25.5 19.5t16.5 38.5q4 13 13 6.5t5 -23.5zM107 268q-4 2 -4.5 5.5t-0.5 6.5q0 4 2 8l3 3q2 7 5.5 11t12.5 4q4 -1 8 -6.5t5.5 -12.5t0.5 -12.5t-5 -6.5q-9 -2 -14.5 -5.5t-12.5 5.5z" />
<glyph unicode="&#x3c;" horiz-adv-x="357" d="M87 215q64 -30 109 -54t69 -30q10 -3 13.5 -8t0.5 -9.5t-11.5 -7.5t-20.5 0q-8 2 -26.5 11t-39 20t-39 21t-25.5 15q-17 8 -26.5 10t-26.5 6q-38 13 -21 35q7 9 12 8t11 4q3 1 17 8t33.5 16t42 19.5t43.5 20.5t38 17t24 9q11 3 15.5 -1t4 -10.5t-5 -13t-11.5 -8.5 q-8 -3 -29 -11.5t-47.5 -19.5t-54.5 -23.5t-49 -23.5z" />
<glyph unicode="=" horiz-adv-x="310" d="M101 315q-36 -5 -45 7q-5 7 -2 13.5t17 4.5q12 -2 40.5 1.5t59.5 3.5q33 0 56 -1t34 -6q11 -4 13 -10.5t-4 -12.5q-4 -8 -14 -11.5t-18 -2.5q-3 2 -1 6t4 7.5t2.5 6t-6.5 2.5zM237 231q-4 0 -11 1q-6 1 -15 1.5t-23 0.5h-18t-21 -1q-32 -2 -58.5 -8t-40.5 -3 q-11 2 -13.5 9.5t8.5 13.5q6 4 18 6.5t28 4t33.5 2t34.5 0.5q33 2 62 -1.5t43 -8.5q11 -2 13 -9t-10 -13q-6 -2 -11 -1.5t-10 2.5t-9 4z" />
<glyph unicode="&#x3e;" horiz-adv-x="304" d="M210 253q-35 5 -66 11q-26 5 -52.5 12t-37.5 15q-11 6 -16 15t-5.5 16t3.5 10t12 -1q13 -8 39.5 -22t61.5 -21q16 -3 33.5 -6t32.5 -5.5t27 -4t17 -2.5q11 -2 15 -11t-12 -18q-6 -5 -21 -12t-33 -14t-36 -13.5t-31 -12.5q-14 -5 -26.5 -11.5t-23.5 -11.5q-12 -6 -23 -12 q3 -5 3 -10t-3 -9.5t-12 -9.5q-15 -8 -26.5 -3.5t-13.5 12.5q-2 6 2.5 12.5t14 14t22 15t25.5 13.5q12 7 33.5 17.5t43.5 21.5q25 12 53 25z" />
<glyph unicode="?" horiz-adv-x="412" d="M244 482q-1 -3 -4 -6q-6 -6 -13 -6q-11 -1 -15.5 6t0.5 15q3 4 13.5 9.5t24.5 11t30.5 10t30.5 6.5q12 1 25 1.5t23 -2.5t15.5 -9.5t3.5 -18.5t-17.5 -32.5t-37.5 -43.5t-46 -46.5t-43 -39.5q-54 -46 -79.5 -82.5t-25.5 -45.5q0 -2 2 -1.5t4.5 2t5.5 2.5t5 0q5 -2 3.5 -9 t-6.5 -11q-4 -3 -10 -5.5t-11.5 -1.5t-9.5 6.5t-4 17.5q0 13 13.5 34t33 44t41 45t38.5 36q18 15 37 34t35.5 37.5t28.5 34.5t14 25q1 4 -4 6t-13.5 1.5t-18 -2t-18.5 -3.5q-18 -4 -35 -11q-9 -4 -16 -8zM66 100q-4 2 -4.5 5.5t-0.5 6.5q0 4 2 8l3 3q2 7 9.5 18t16.5 11 q4 -1 8 -6.5t5.5 -12.5t0.5 -12.5t-5 -6.5q-5 -1 -9.5 -5t-9 -7.5t-9 -5t-7.5 3.5z" />
<glyph unicode="@" horiz-adv-x="443" d="M278 249q2 -1 3 -3q2 -4 -3 -8q-4 -2 -11 -9.5t-13 -15.5t-9 -15t2 -9q11 -5 33.5 -1t55.5 30q15 12 32.5 26.5t32 30.5t23.5 33t8 34q0 19 -10 31.5t-25.5 19.5t-33 8.5t-32.5 -1.5q-26 -5 -54.5 -17.5t-55.5 -29t-52 -36.5t-44 -41q-42 -45 -68.5 -89t-34.5 -75 q-3 -12 -4 -23.5t3 -20.5t14.5 -15t31.5 -7q21 -2 46.5 2t52.5 11.5t52.5 16.5t46 17.5t33.5 15.5t15 10q2 4 0.5 7.5t-4.5 6t-4.5 5t0.5 4.5q3 2 13.5 2t21 -2.5t17.5 -8t3 -14.5q-5 -8 -19.5 -16t-34 -16.5t-41 -16.5t-39.5 -15q-17 -5 -38 -11.5t-43.5 -11.5t-46 -7 t-46.5 1q-23 4 -40.5 18.5t-17.5 43.5q0 14 6 34q7 24 28 60.5t53.5 75.5t76 76.5t96.5 63.5q29 14 55 20.5t48 6.5q38 0 62.5 -17t32.5 -45q7 -23 0.5 -44t-20 -40t-32 -35.5t-35.5 -31.5q-36 -31 -65.5 -42t-47.5 -13q-11 0 -17.5 3t-10.5 7t-6 10q-20 -13 -39 -24 q-17 -10 -35 -19t-32 -12q-17 -4 -25.5 4.5t-8.5 22.5q0 16 8 28q7 11 21.5 28t35 35t45 33t50.5 23q21 6 34 6q20 0 26.5 -9t3.5 -17q-7 -11 -15 -19q-4 -4 -9 -8zM221 260q-13 -5 -30 -16.5t-34 -25t-30.5 -27t-19.5 -23.5q-5 -10 -5.5 -15t3 -6.5t9.5 0t14 4.5q6 2 21 11 t31 20q18 12 40 27l6 10q2 5 5 10t7 10q7 8 13.5 12.5t6.5 6.5q5 7 -3 10t-34 -8z" />
<glyph unicode="A" horiz-adv-x="526" d="M409 482q-7 1 -16 2.5t-22 1.5q-14 0 -31 -3.5t-37 -11.5q-35 -15 -65 -33.5t-57.5 -42.5t-54 -53.5t-53.5 -67.5q-26 -37 -44.5 -73t-28 -65t-10.5 -48t9 -22q6 -2 20.5 -1t42.5 14.5t71 43.5t106 87q46 43 76 80.5t49 66.5t30 50.5t20 33.5q12 16 26 16q11 0 14 -11.5 t-11 -30.5q-10 -14 -23.5 -33.5t-27 -43.5t-25 -51t-17.5 -56q-3 -21 -3 -37q0 -32 10 -44t24 -12t30 7.5t30 17.5q29 19 54 36.5t51 41.5q20 17 20.5 7t-20.5 -31q-22 -22 -48.5 -40.5t-43.5 -29.5q-20 -14 -40 -21.5t-37 -7.5q-20 0 -34 13t-16 44q-2 20 -0.5 37t3.5 29 q3 14 6 26q-51 -49 -101 -92q-21 -18 -44.5 -37t-47 -35.5t-46.5 -30t-42 -21.5q-31 -13 -51 -13q-17 0 -26.5 10t-9.5 33q0 13 5 38q5 29 20.5 65.5t39.5 75.5t56 77.5t71 72.5q77 67 134 91t108 17q15 -1 20.5 -7.5t4.5 -13t-6.5 -11.5t-11.5 -4z" />
<glyph unicode="B" horiz-adv-x="519" d="M10 491q12 3 33 6t47 5.5t55 4.5t57 4q16 23 28 39t18 19q15 11 18.5 -2.5t-7.5 -29.5q-3 -4 -8 -10t-11 -14q18 1 34 1h29q27 -1 56.5 -4.5t54 -11t39.5 -19.5t12 -29q-2 -11 -14 -23t-30 -23.5t-38 -22t-38 -19t-30.5 -13.5t-14.5 -6q1 0 11.5 -2t27 -6.5t37 -12.5 t43.5 -20q18 -10 35 -21.5t28 -24t15 -25t-4 -24.5q-10 -18 -30.5 -34t-47 -29.5t-56 -25t-56.5 -18.5q-55 -16 -102 -26t-69 -12q-11 -1 -19.5 2.5t-12.5 10t-2 14.5t13 16q22 16 31.5 19t9.5 -4q1 -2 -2.5 -5.5t-7.5 -7t-6.5 -7t-0.5 -6.5q2 -2 17.5 -1.5t40.5 4.5 t57.5 12t69.5 20q68 22 105.5 47.5t44.5 42.5q6 12 -6.5 26t-34.5 27t-50 24.5t-53 17.5q-76 17 -126.5 18.5t-61.5 1.5q-13 0 -15 13q-5 -7 -8.5 -13.5t-8.5 -13.5q-26 -38 -50 -77.5t-44 -71.5q-23 -38 -43 -74q2 -1 4 -3q3 -3 2 -9q-1 -5 -6 -15.5t-10.5 -22t-11 -21.5 t-7.5 -13q-2 -5 -8.5 -6t-12 3t-7 14.5t7.5 28.5q7 18 26 53t43 75.5t48.5 81t44.5 69.5q11 15 23.5 33.5t26 39.5t27.5 42t27 40q-55 -4 -101.5 -11.5t-68.5 -16.5q-9 -4 -14.5 -0.5t-7 10t2 13t13.5 9.5zM131 359q2 1 4 1.5t5 0.5q16 2 44.5 0.5t63.5 -6.5q13 2 34.5 9 t45.5 17.5t47.5 23t41.5 26.5q17 14 17 23q0 8 -15 15t-50 14q-21 4 -46.5 5.5t-53.5 1.5h-23t-24 -1q-18 -26 -42 -59t-49 -71z" />
<glyph unicode="C" horiz-adv-x="410" d="M426 232q7 7 13 9t9 -0.5t2.5 -8t-6.5 -12.5q-6 -6 -35 -31.5t-76.5 -54t-111 -52.5t-138.5 -27q-64 -3 -98.5 23.5t-34.5 72.5q0 57 40.5 124.5t135.5 139.5q79 57 130 79t73 22q15 0 24.5 -6t14.5 -14q6 -9 8 -20q1 2 4 4q2 2 4.5 3.5t6.5 1.5q2 0 6.5 -5t4.5 -10 q0 -2 -5.5 -8t-13 -13.5t-15 -15.5t-10.5 -15q-6 -8 -7.5 -14t-2.5 -11t-4 -7.5t-12 -2.5q-7 0 -15 2.5t-8 10.5q0 6 6 18.5t13 25.5t13 23t6 12q0 10 -25 10q-5 0 -19 -2t-38 -12t-59 -31t-81 -59q-45 -37 -73 -69t-44.5 -59t-23.5 -50t-8 -42q-2 -18 3.5 -34.5t19 -28 t36 -17t56.5 -2.5q58 5 112.5 24t99.5 43t77.5 47.5t45.5 38.5z" />
<glyph unicode="D" horiz-adv-x="524" d="M-33 493q10 5 21.5 10t29.5 10t43 9.5t62 9.5q43 6 91 6q13 0 26 -0.5t26 -1.5q16 21 27 33q5 7 10 13q4 3 9.5 4t9.5 -1t5 -6.5t-3 -10.5q-2 -3 -9 -11.5t-18 -22.5q49 -5 92 -17.5t74 -32.5q33 -22 51.5 -53t18.5 -69q0 -34 -15.5 -71.5t-48.5 -79.5 q-40 -49 -90.5 -83.5t-99.5 -55.5t-91.5 -29t-66.5 -3q-18 3 -26 12.5t-8 23.5q0 20 13.5 41t32.5 30q22 9 28 3t-11 -14q-15 -9 -25 -20.5t-13.5 -22.5t-1.5 -19.5t11 -10.5q22 -5 55.5 0.5t73 21.5t81.5 41t80 59q53 48 75.5 94t22.5 84q0 29 -11 52t-29 38 q-31 26 -82 39.5t-108 18.5q-17 -21 -37 -47t-40 -52.5t-38 -52t-31 -44.5q-20 -28 -37.5 -58.5t-30.5 -56t-20.5 -43.5t-7.5 -21q0 -5 2.5 -4t5.5 2.5t5 2t1 -3.5q-2 -9 -6 -18.5t-11 -16.5q-9 -7 -17 -7.5t-13 21.5q-1 10 8 33t24.5 52.5t35 63t39.5 63.5q12 19 28.5 42.5 t35 49t38 50.5t36.5 47q-8 0 -15.5 0.5t-15.5 0.5t-15 -0.5t-14 -0.5q-31 -2 -64.5 -6.5t-64.5 -12t-55 -17t-35 -20.5q-7 -7 -14.5 -5.5t-10.5 8t1 16t21 17.5z" />
<glyph unicode="E" horiz-adv-x="520" d="M540 238q14 12 20 6.5t-6 -20.5q-10 -13 -39.5 -31.5t-68 -38.5t-81.5 -39.5t-80 -32.5q-41 -15 -72 -25t-56.5 -16t-46 -8t-38.5 -2q-67 0 -101 23t-34 61q0 23 16.5 50.5t59.5 56.5q38 28 75.5 48.5t66.5 33.5q34 15 66 25q-7 5 -19.5 11.5t-25 14.5t-21.5 18.5 t-9 24.5q0 10 6 21q5 6 21.5 15.5t39 20t49 20t52.5 14.5q11 2 34.5 4.5t48.5 2.5q15 0 28.5 -1.5t23.5 -4.5t15.5 -8.5t4.5 -14.5q0 -2 -0.5 -4t-0.5 -4q2 1 4 3q4 4 7 6q5 0 10 -4t5 -9q0 -2 -5 -7.5t-11.5 -12.5t-14 -16t-13.5 -18q-7 -9 -8.5 -15.5t-2 -11t-3 -6.5 t-12.5 -2q-8 0 -15.5 2.5t-7.5 8.5t6 17.5t13.5 24t13.5 23.5t6 16q0 8 -16.5 11t-32.5 3q-45 0 -84.5 -9.5t-69 -22t-46.5 -25.5t-17 -19q0 -5 11.5 -15t26 -19.5t28.5 -16.5t19 -7t20 3t33 3q19 0 26.5 -4.5t7.5 -12.5q0 -11 -7 -14t-21 -3q-19 0 -50 -1.5t-76 -18.5 q-41 -14 -82 -34.5t-74 -43.5t-53.5 -48t-19.5 -48q1 -22 13.5 -34t30 -18t35.5 -7t30 -1q35 0 76.5 7.5t93.5 27.5q75 28 126 50.5t85 40t54 31t33 25.5z" />
<glyph unicode="F" horiz-adv-x="504" d="M595 527q8 -3 8 -7q0 -2 -4.5 -4t-10.5 -2q-7 0 -25 5.5t-38 12t-39 12t-28 5.5q-43 0 -85 -36q-17 -12 -43 -42.5t-54.5 -70t-56 -82.5t-46.5 -80q21 7 47.5 10.5t53.5 5.5t52 2.5t42 0.5q29 0 36 -3t7 -5q0 -3 -2 -5t-13.5 -4.5t-37 -5t-72.5 -5.5q-20 0 -54.5 -4 t-73.5 -11q-28 -55 -36.5 -88.5t-8.5 -50.5q0 -15 2.5 -19.5t4.5 -4.5q5 0 12.5 10.5t13.5 10.5q3 0 3 -3l-1 -6.5t-4.5 -14t-9.5 -14t-16 -6.5q-11 0 -23.5 8.5t-12.5 31.5q0 26 12.5 62.5t31.5 78.5q-22 -5 -36 -7.5t-23.5 -5t-17.5 -4t-18 -2.5q-34 -5 -57.5 3.5 t-23.5 23.5q0 8 5.5 11t11.5 3q7 0 9.5 -2t5 -4.5t6.5 -4.5t16 -2t42 4t95 13q37 69 70 119.5t61 87t50.5 60t38.5 37.5q21 18 45.5 26t48.5 8q22 0 51 -8q11 -3 26 -9.5t29 -12.5z" />
<glyph unicode="G" horiz-adv-x="509" d="M432 439q-6 -1 -11.5 -0.5t-8.5 2t-3 4.5t6 6q11 5 13.5 15t-8.5 26q-9 10 -34 10q-23 0 -55 -9t-67 -27q-33 -17 -69.5 -42t-69.5 -52.5t-59 -53t-37 -41.5q-14 -19 -22.5 -36.5t-8.5 -31.5q0 -11 7.5 -19.5t26.5 -11.5q42 -6 98 8.5t140 47.5q34 15 64.5 31t53.5 30 t38 26t18 20q4 8 18 6.5t19 -18.5q2 -15 -8.5 -49.5t-26.5 -80.5q-8 -22 -17 -44t-20 -45q18 -2 35.5 -7.5t31.5 -13t23.5 -17t10.5 -18.5q2 -13 -6 -14.5t-15 5.5t-10 15t-18 16q-26 13 -61 16q-30 -58 -68 -110t-80 -88q-54 -48 -104.5 -69.5t-86.5 -21.5q-11 0 -19 2 t-16 5q-22 9 -22 36q0 16 7.5 36.5t20.5 42t30 42t36 37.5q24 22 56 42t69 35.5t78 24t84 7.5q19 39 30.5 73t18.5 60q8 30 12 55q-69 -43 -140 -76q-30 -14 -64 -27.5t-68.5 -24t-69 -16.5t-66.5 -5q-35 1 -49.5 16t-14.5 37q0 23 12.5 49t30.5 46q42 49 91 90t98 71.5 t95 48.5t82 22q14 1 27 -4.5t23 -15t16 -20.5t6 -21q2 -17 -6 -23.5t-17 -8.5zM331 19q25 37 45 75q-55 0 -112 -20t-102 -49q-30 -21 -59 -52t-48.5 -61t-25 -53t10.5 -29q19 -6 51.5 1.5t72 30t83 61.5t84.5 96z" />
<glyph unicode="H" horiz-adv-x="483" d="M519 497q-5 4 -41 -43t-85 -153h1q42 8 62 12t34 2q6 0 8.5 -4.5t0.5 -10t-8 -10t-16 -4.5q-11 0 -36.5 -4t-58.5 -11q-32 -75 -50 -131.5t-26 -96.5q-10 -47 -12 -81q4 1 8 -1q7 -3 8 -15q-1 -14 -12.5 -15.5t-20.5 14.5q-6 11 -4 40.5t12 72t27 95t40 109.5 q0 1 0.5 1.5t0.5 2.5l-50 -10t-48 -10q-48 -11 -93 -22.5t-82 -19.5q-7 -17 -12.5 -32t-9.5 -26q-5 -13 -9 -23q7 5 11 9q4 3 6 4t0 -4q-2 -6 -5.5 -15.5t-6.5 -19.5t-6.5 -19.5t-5.5 -15.5q-1 -4 -6 -3.5t-10 4.5t-8 12t0 19q2 11 12 39.5t25 66.5q-10 -2 -18 -3t-16 -1 q-39 -2 -64 3.5t-32 14.5q-6 7 -2.5 14.5t11.5 2.5q5 -4 20 -7t39 -3q15 0 33.5 1.5t39.5 5.5q11 29 23 59t25 59q14 31 29.5 62.5t30 58.5t27.5 46.5t22 27.5q7 6 14 5.5t11.5 -4t6 -9t-1.5 -8.5q-9 -5 -37.5 -38t-59.5 -102q-16 -35 -33 -75.5t-31 -77.5q28 6 64.5 14 t74 16.5t73 16.5t61.5 14q21 50 43 90.5t41.5 70.5t34.5 48.5t23 24.5q17 14 30 5.5t9 -23.5q-4 -14 -14.5 -22.5t-14.5 -6.5q-2 2 2 8.5t2 8.5z" />
<glyph unicode="I" horiz-adv-x="243" d="M138 116q7 5 9 -1.5t-3 -12.5q-7 -7 -20.5 -8.5t-29.5 5.5q-8 3 -14 12q-34 -26 -71 -40t-60 -10q-17 2 -25 13t-8 25q0 11 5 21.5t14 15.5q13 9 15.5 1.5t-3.5 -12.5q-11 -5 -14 -19t11 -19q20 -8 49 2t62 33q3 2 6.5 4.5t8.5 6.5q-6 21 -6 52q0 23 4 50t12 58 q13 46 37 97.5t50.5 96.5t51 77.5t38.5 38.5q17 8 29.5 8t16.5 -11q5 -14 -1 -46t-17.5 -71t-26.5 -78.5t-27 -67.5q-17 -39 -32 -68.5t-29 -52.5t-28 -41t-30 -36l-14 -14q1 -4 5 -6q11 -9 19.5 -8.5t15.5 5.5zM103 287q-8 -30 -12 -56t-4 -46q0 -21 3 -34q24 23 52 61.5 t51 93.5q14 35 32 81.5t31.5 88.5t20 72t-2.5 32q-7 1 -20 -13t-29.5 -38.5t-35 -56t-35.5 -64.5t-30.5 -64.5t-20.5 -56.5z" />
<glyph unicode="J" horiz-adv-x="375" d="M19 178q7 -5 9 0.5t-3 13.5q-7 7 -3 10.5t15 -7.5q13 -11 7.5 -24.5t-19.5 -15.5q-6 -1 -14.5 2t-16 10.5t-12.5 20.5t-5 33q0 11 1.5 24t6.5 28q28 103 88.5 172t137.5 113q33 20 62 29t53 9q38 0 60 -19.5t22 -50.5q0 -26 -13 -70t-34 -98t-47.5 -114.5t-54.5 -118.5 q34 2 63 -3t53 -13q24 -7 24 -17q0 -5 -9.5 -7t-26.5 5q-14 5 -36 9.5t-50 4.5h-14t-15 -1q-4 -8 -7 -15t-7 -15q-33 -66 -68 -112.5t-67.5 -76.5t-58 -46t-38.5 -23q-22 -11 -40 -11q-15 0 -25.5 7t-12.5 19q-2 13 -0.5 32.5t11 43.5t29 51.5t52.5 57.5q59 54 113.5 78 t103.5 30q24 48 50 107t47.5 115t36 103t15.5 72q0 24 -15 37t-41 13q-34 0 -80 -21q-37 -17 -72.5 -44.5t-65.5 -61.5t-54 -71.5t-38 -74.5q-17 -47 -17 -75q0 -13 2.5 -21t6 -13t7 -7t4.5 -3zM211 79q2 5 5 10t5 10q-24 -5 -50 -14t-53 -23q-57 -30 -94 -69t-57 -74.5 t-23 -61t9 -27.5q17 -3 46 10t64 43.5t73.5 79t74.5 116.5z" />
<glyph unicode="K" horiz-adv-x="416" d="M253 548q-5 -6 -10.5 -17.5t-10.5 -11.5q-3 0 -4 3q-1 1 -1 3q-14 -16 -32 -42q-15 -23 -37 -59.5t-49 -90.5q18 -2 57.5 4t101.5 34q59 26 96 47.5t47 41.5q7 14 14 19.5t12 5.5q7 0 8.5 -7.5t-4.5 -20.5q-7 -14 -24 -28.5t-39.5 -28.5t-48 -27t-50.5 -24 q-52 -23 -94 -33.5t-63 -14.5q29 -61 72.5 -114.5t109.5 -90.5q20 -11 39.5 -16t37.5 -5q32 0 57.5 13t39.5 32q9 12 13.5 14.5t5.5 -1t-1 -10.5t-6 -15q-4 -7 -12.5 -16.5t-21 -18.5t-30.5 -15t-40 -6q-15 0 -32 3t-37 11q-44 17 -78 45t-61 60t-48.5 65.5t-38.5 61.5 q-20 -38 -35 -70.5t-26 -55.5q-12 -27 -21 -50l10 8q4 3 7.5 6.5l5.5 5.5q2 5 4.5 -2.5t-4.5 -14.5q-8 -9 -13.5 -22t-12.5 -24t-13 -20t-22 -1q-6 3 1.5 28t22 60t33.5 73.5t35 70.5q3 6 6.5 13.5t7.5 15.5l-1 2q-5 8 -1.5 11.5t11.5 3.5q15 30 34.5 65t37.5 66.5 t33.5 55.5t23.5 31q4 6 11 7t14 -1t11 -5.5t2 -6.5z" />
<glyph unicode="L" horiz-adv-x="306" d="M411 427q2 -9 8 -12t4 -12q-2 -8 -10.5 -10t-19.5 10q-8 7 -10.5 19t-2.5 27q0 19 2 40t0 43q-8 44 -22 53.5t-34 -4.5q-12 -8 -28 -33t-34 -62.5t-38 -85t-39 -100.5q-17 -46 -33.5 -80.5t-32.5 -60.5q5 -3 26.5 -15t48 -26.5t52.5 -28.5t40 -21q42 -20 71.5 -29 t49.5 -9q18 0 31 8q11 6 13 -4.5t-7 -17.5q-14 -11 -38 -11q-36 0 -103 29q-13 6 -41 21t-58.5 32t-58 32.5t-38.5 21.5q-24 -35 -42.5 -52t-29.5 -21q-26 -9 -41.5 4.5t-26.5 36.5q-4 8 -6.5 19.5t-2.5 24.5q0 22 8.5 41t28.5 21q10 1 20 -1.5t22 -8.5t27 -14.5t35 -20.5 q22 36 44.5 87t49.5 126q12 33 27 71t32.5 72t36.5 59t38 32q35 11 54 -14.5t22 -76.5q2 -38 1.5 -64t4.5 -35zM72 128q9 10 18 24q-33 19 -49.5 28t-32.5 11q-14 1 -19.5 -9.5t-5.5 -25.5q0 -18 6.5 -36.5t16.5 -25.5q9 -6 15 -7t12.5 2.5t15.5 13t23 25.5z" />
<glyph unicode="M" horiz-adv-x="687" d="M9 534q3 -3 11.5 -3t21 1t28 2t30.5 1q17 0 32.5 -2.5t26.5 -9t15.5 -18t0.5 -30.5q-4 -17 -11.5 -38.5t-18 -46t-22 -50t-23.5 -49.5q-27 -57 -60 -118q30 40 58 77q24 32 49 65.5t40 56.5q35 50 62 89t51 50q9 4 18 0.5t16.5 -18t12 -40t3.5 -64.5q-2 -26 -7 -55.5 t-12 -58t-14 -55t-11.5 -45.5t-5.5 -29t4 -7q17 13 48 58.5t71 120.5q35 66 63.5 104t43.5 49q13 9 23.5 1.5t5.5 -24.5q-14 -46 -22 -97.5t-8 -89.5q0 -8 0.5 -15.5t1.5 -13.5q1 -14 4.5 -28t11 -23.5t20.5 -12.5t34 3q30 7 56.5 26t43.5 36q17 20 23 16t-7 -24 q-20 -29 -49 -48t-73 -30q-13 -3 -27.5 -1t-27 13t-21 31.5t-10.5 53.5q-2 26 1.5 59.5t8.5 63.5q5 35 13 72q-14 -16 -29 -37q-13 -18 -29.5 -44.5t-34.5 -60.5q-16 -31 -35 -62.5t-37.5 -57.5t-35.5 -44.5t-29 -22.5q-15 -5 -20.5 1.5t-5.5 20.5q0 9 2 20.5t5 24.5 q4 19 12 47.5t15 60.5t12.5 64t5.5 59q0 44 -8 64t-23 6q-5 -3 -17.5 -18t-29.5 -38t-37 -50.5t-40 -55.5t-38 -54t-32 -44q-19 -26 -28.5 -39.5t-15 -21t-9.5 -12.5t-11 -14q-9 -11 -19 -14.5t-17.5 -2t-10 8t3.5 17.5q9 14 31 56t46 94t45.5 103t28.5 83q5 23 -8.5 30 t-36.5 7q-20 0 -42.5 -3t-41.5 -3q-17 0 -29 5q-11 5 -12.5 12t3 12.5t12.5 6t17 -8.5z" />
<glyph unicode="N" horiz-adv-x="519" d="M22 458q6 7 18.5 13t30 10.5t37 8.5t38.5 8q8 2 19 3.5t23 1.5t23 -2.5t18.5 -10t10.5 -20.5t-2 -33q-3 -12 -11.5 -30t-20 -40.5t-25 -46.5t-27.5 -48q-33 -55 -73 -119q42 39 82 76q34 32 69 65.5t58 56.5q17 18 37 38t39 37t33.5 30t21.5 17q15 9 25 0.5t1 -37.5 q-5 -15 -12 -34.5t-14 -41l-14 -43t-11 -39.5q-7 -28 -13.5 -58.5t-6.5 -52.5q0 -27 14 -27q16 0 37.5 11.5t42.5 26.5t39 30.5t26 24.5q13 14 23 11t-2 -18t-29 -30.5t-36 -29.5t-38.5 -25t-35.5 -17q-15 -6 -28 -6q-16 0 -26 11.5t-10 37.5q0 12 3 30t7.5 39t10.5 44 t12 45q15 52 34 109q-23 -19 -49 -41q-22 -19 -49.5 -43.5t-54.5 -52.5q-23 -24 -55.5 -54.5t-63.5 -59.5t-55 -50.5t-30 -27.5q-8 -8 -20 -12t-22 -4q-13 0 -18 7t9 22q13 13 25 26t25.5 30.5t29.5 42t37 61.5q14 24 32.5 56.5t33 62.5t20.5 53t-5 28q-9 4 -34 2t-52 -8.5 t-50 -15t-30 -15.5q-15 -15 -23 -6.5t1 23.5z" />
<glyph unicode="O" d="M197 492q16 5 26 1.5t17 -8.5q30 30 66 52t65 28q15 3 32 3q19 0 38 -5.5t34.5 -18.5t25 -34.5t9.5 -54.5q0 -16 -3 -35q-5 -34 -26 -74.5t-52.5 -80.5t-70 -78t-78.5 -68t-79 -50t-71 -24q-8 -2 -15.5 -2h-15.5q-50 0 -74 26.5t-24 75.5q0 22 4 42q5 34 24.5 83.5 t47 96.5t59 83t61.5 42zM173 359q0 27 13.5 54.5t36.5 53.5q-3 1 -7 1h-9q-24 -3 -52 -33.5t-53.5 -74t-45.5 -92t-27 -87.5q-3 -17 -3 -31q0 -25 8 -42t21.5 -27t31 -13t35.5 1q36 6 76 27t79 51t74.5 66.5t64 75t47 76.5t22.5 70q3 25 -0.5 43t-12.5 30t-22 19.5t-27 10.5 q-24 6 -54.5 -0.5t-68.5 -30.5q-24 -15 -47 -41q1 -4 2.5 -15t-3.5 -20q-7 -11 -10.5 -9.5t1.5 12.5q2 4 2 10t-3 11q-12 -14 -22.5 -29t-17.5 -28.5t-10 -25.5t-1 -19q4 -10 2 -16t-6.5 -6t-9 6.5t-4.5 21.5z" />
<glyph unicode="P" horiz-adv-x="507" d="M323 541q-9 -5 -20 -14q46 -2 93 -8t84 -18t59 -29t18 -41q-4 -29 -33.5 -57.5t-71 -53t-88.5 -43.5t-87 -31q-43 -13 -92.5 -24.5t-91.5 -17.5q-23 -45 -35 -75.5t-8 -31.5q7 -2 13 4t13 11q5 7 2.5 -5t-11.5 -27q-4 -8 -10 -17t-13 -16t-15 -10t-17 2q-5 4 -2 19 t10.5 37t19.5 49.5t26 56.5q-37 -3 -51 4q-10 4 -10.5 9.5t4.5 10t12.5 7.5t13.5 2q11 -2 16.5 -2t-1.5 -7q-3 -5 28 0q8 17 16.5 32.5t16.5 31.5q15 26 32 55t35 57.5t35.5 55t34.5 47.5q-4 0 -7.5 -0.5t-7.5 -0.5q-44 -2 -76 -7.5t-54.5 -11.5t-37 -11t-21.5 -7 q-13 -7 -23 -15t-23 -14q-7 -2 -14 -1.5t-11.5 4.5t-4.5 10.5t9 15.5q6 6 26.5 15.5t54.5 19t80.5 17t102.5 9.5h27q10 12 18.5 19.5t15.5 11.5q12 7 19 6t9.5 -5.5t0.5 -10t-8 -7.5zM273 271q34 10 78 28t83.5 40.5t67.5 47t29 47.5q1 15 -22 27.5t-59.5 22t-81.5 15 t-87 5.5q-19 -21 -45 -58t-64 -96q-18 -29 -35 -60t-31 -60q33 7 78 18t89 23z" />
<glyph unicode="Q" horiz-adv-x="463" d="M244 178q-4 -6 -7.5 -31t-4.5 -51q36 24 69 52.5t55 51.5q21 22 43 50.5t41 60.5t32.5 68.5t17.5 75.5q3 28 -6 47t-24.5 31t-36 17t-41.5 5q-32 0 -57 -10q-22 -9 -41.5 -25.5t-34.5 -34t-24 -34.5t-11 -28q0 -14 4.5 -17.5t11.5 -5.5t0.5 -9.5t-14.5 -5.5t-15.5 11 t-7.5 26q0 8 2.5 19t9.5 24q9 18 25.5 37t37.5 35t46 27.5t53 14.5q28 1 56.5 -5t50 -22.5t33 -45t6.5 -70.5q-7 -54 -33.5 -104.5t-60 -93.5t-68 -75.5t-57.5 -49.5q-15 -12 -30.5 -24t-32.5 -23q0 -3 0.5 -5.5t0.5 -4.5q7 -46 23 -74.5t45 -30.5q16 0 24.5 1.5t12.5 4.5 t5.5 6t4.5 5q7 4 10 0t-5 -18q-3 -5 -10 -11t-17 -10t-23 -4.5t-28 5.5q-25 10 -42.5 44.5t-21.5 78.5q-27 -16 -55 -24.5t-56 -3.5q-42 8 -54 42t-12 82q0 9 0.5 18t0.5 18q1 30 9.5 71.5t22.5 85t32.5 85t40.5 71.5q26 34 52.5 43t36.5 -2q13 -11 8 -17t-12 -6 q-6 2 -24.5 -3t-37.5 -31q-11 -14 -24 -37.5t-26.5 -53.5t-25 -65t-18.5 -71q-5 -28 -8.5 -55t-3.5 -51q0 -41 11.5 -68.5t40.5 -32.5q19 -4 45.5 5.5t55.5 27.5q-2 38 4 64.5t12 34.5q8 10 15 8.5t4 -10.5z" />
<glyph unicode="R" horiz-adv-x="443" d="M61 456q4 3 21.5 10.5t43.5 15.5t59 16t67 13q6 8 11.5 15.5t9.5 12.5q4 6 8 10q4 3 10 4t10.5 -1t5.5 -6.5t-3 -10.5q-3 -3 -15 -20q11 1 22 1.5t22 0.5q83 -2 130 -21t52 -49q2 -17 -13.5 -32.5t-40.5 -30t-55 -26t-56 -19.5q-51 -16 -102 -26t-89 -14q15 -32 31 -61.5 t36 -56.5t46.5 -51t62.5 -43q17 -10 33.5 -14t32.5 -4q35 0 62 15.5t42 35.5q9 12 13.5 14.5t5.5 -1t-1 -10.5t-6 -15t-14 -18t-24.5 -19t-33.5 -15.5t-41 -6.5q-31 0 -65 15q-45 19 -77.5 47t-57 59.5t-42.5 63.5t-34 59q-20 -30 -37 -61t-30 -56.5t-20 -43t-7 -21.5 q0 -5 3 -4t6 3t5 3t1 -5q-5 -11 -9.5 -21t-10.5 -16q-5 -3 -9.5 -6t-8.5 -2.5t-7 5.5t-4 17q-2 11 7.5 36t26 57t37.5 68.5t42 70.5v1q-6 8 -0.5 14t14.5 6q24 36 53 76t53 72q-29 -6 -56.5 -13.5t-49 -15.5t-36 -15t-16.5 -12q-5 -6 -9.5 -4.5t-7.5 7t-3 12.5t6 11z M272 493q-26 -34 -60 -80.5t-63 -88.5q13 1 37.5 4t53 8t59 12.5t57.5 16.5q54 22 90 39t43 34q3 12 -11.5 23.5t-40 20t-59 13t-68.5 2.5q-9 -1 -18.5 -1.5t-19.5 -2.5z" />
<glyph unicode="S" horiz-adv-x="433" d="M444 232q17 11 25 14t2 -14q-4 -11 -26 -25t-50.5 -27.5t-58.5 -25t-49 -15.5q-2 -22 -11 -48.5t-27 -53.5t-45 -53t-65 -48q-34 -19 -56 -19q-17 0 -24.5 10t-7.5 26q0 32 28 74q16 25 39 45.5t48 36.5t50.5 27.5t47.5 18.5q0 6 -0.5 10.5t-2.5 9.5q-2 17 -16 34.5 t-34.5 34t-44 32t-45.5 28t-39 22.5t-23 17q-23 20 -23 46q0 12 6 25t20 25q23 21 61 38.5t80 31t82.5 21.5t67.5 10q11 1 25 0t27.5 -5t23.5 -11t13 -18q7 -22 3 -32t-10 -23q-3 -7 -5 -10.5t-3 -6.5t-1 -5.5v-6.5q0 -5 -3 -10.5t-7 -10.5q-4 -6 -10 -11q-7 -3 -10 -3t-5 3 t-3.5 7.5t-4.5 9.5q-2 11 10.5 30.5t23.5 36.5t-4.5 29t-41.5 12q-33 0 -71 -6.5t-76 -18t-73.5 -28t-62.5 -36.5q-15 -11 -21 -20.5t-6 -17.5q0 -9 7 -18t18 -17t24.5 -16t27.5 -17q21 -13 47 -30.5t49 -38t38.5 -43t14.5 -46.5q15 3 34 9.5t40 16t42.5 21t40.5 23.5z M121 -50q67 37 100 83t43 98q-16 -5 -39.5 -16t-48 -27t-46.5 -36t-36 -42q-19 -33 -19 -52q0 -14 10.5 -17.5t35.5 9.5z" />
<glyph unicode="T" horiz-adv-x="239" d="M286 518q-9 -12 -38.5 -54.5t-74.5 -117.5q-15 -24 -35 -63t-37 -77.5t-28 -69.5t-6 -39q4 -7 11 0.5t7 14.5q0 5 6 0.5t3 -15.5q-2 -7 -5.5 -14.5t-8.5 -13.5t-11.5 -8.5t-13.5 0.5q-14 4 -14 27t13 61q12 38 40 98.5t67 126.5q12 20 27.5 45.5t30.5 49t28 40.5t20 20 q-42 -8 -82 -18.5t-73.5 -21t-59 -19t-37.5 -10.5q-15 -2 -23.5 2t-12.5 9.5t-3.5 10.5t3.5 5h10.5t15.5 1t22.5 4t33.5 10q18 7 52 17.5t75.5 20.5t85.5 17.5t82 8.5h29q39 0 66 -2.5t45.5 -6t29.5 -8.5t16 -10q7 -6 8 -11.5t-1.5 -9t-8 -4t-11.5 3.5q-9 7 -41 15t-88 8 h-25.5t-28.5 -2q-16 -1 -31 -2.5t-31 -4.5q10 -4 2 -14z" />
<glyph unicode="U" horiz-adv-x="539" d="M219 523q-1 -18 -10 -46.5t-23 -61.5t-30.5 -67t-31.5 -63q-13 -24 -30 -52t-31.5 -53.5t-23 -45.5t-3.5 -27q4 -8 17 -9t38 10.5t65.5 38.5t100.5 76q83 68 125 116t52 68q11 23 22 40t21 28q8 10 18.5 15.5t18.5 5.5q10 0 10.5 -10t-19.5 -32q-17 -20 -32.5 -44 t-29.5 -48.5t-25.5 -49.5t-19.5 -46q-14 -37 -14 -68q0 -23 8.5 -37.5t28.5 -13.5q17 1 35.5 9.5t37 22t35.5 30t32 32.5q12 13 20 8t-2 -18q-7 -9 -20.5 -24.5t-31.5 -31t-40 -29t-45 -18.5q-33 -8 -55.5 7.5t-24.5 44.5q-2 18 1 39.5t8 39.5q5 21 12 43l-63 -54 q-26 -23 -56.5 -47.5t-54.5 -43.5q-18 -14 -40 -28.5t-43 -25.5t-39.5 -18.5t-31.5 -8.5q-43 -2 -43 34q0 7 1.5 15.5t6.5 17.5q18 35 49.5 92t64.5 125q17 37 28 64.5t17 48t7.5 34t-1.5 23.5q-3 12 2 17.5t12.5 5t14 -8t5.5 -21.5z" />
<glyph unicode="V" horiz-adv-x="415" d="M467 531q-8 16 -7 24t6 8.5t12 -6.5t12 -20q5 -15 5 -30q0 -24 -9.5 -54.5t-27.5 -63.5t-44 -66t-58 -63q-36 -34 -79 -68t-86.5 -63t-84 -51t-72.5 -31q-9 -3 -16.5 -4t-14.5 -1q-23 0 -31.5 12.5t-8.5 30.5q0 14 5 34q2 9 11.5 31.5t22.5 51.5t27 60.5t25.5 59t18 47 t5.5 24.5q-2 5 -8 6.5t-14 0.5t-17.5 -3t-16.5 -4q8 -3 5 -6t-11.5 -6t-20.5 -6t-23 -5q-8 -2 -11 1t-2.5 8t4 10t9.5 7q32 12 58 19q23 6 44 7.5t29 -8.5q6 -8 4 -23t-9 -34.5t-17.5 -42t-20.5 -44.5q-16 -36 -29 -64t-22.5 -50t-14.5 -39.5t-5 -33.5q0 -17 18.5 -15.5 t39.5 10.5q14 6 44.5 22t70.5 41t85.5 59t89.5 76q39 38 67 76.5t44.5 73t21.5 62.5t-3 43z" />
<glyph unicode="W" horiz-adv-x="591" d="M645 533q-7 15 -3.5 22.5t10.5 6.5t13 -12t4 -33q-6 -41 -23.5 -88t-44 -93.5t-60 -89t-71 -75t-77 -51.5t-77.5 -18q-27 0 -43.5 9.5t-25.5 24t-12 31t-3 30.5v12t1 10q1 4 2 9q-25 -31 -51 -57q-22 -23 -46 -44.5t-43 -29.5q-20 -9 -34 -9q-27 0 -41 24.5t-14 64.5 t12.5 85.5t29.5 85.5t34.5 71t26.5 43q8 10 16.5 12t14 -1.5t7 -9.5t-3.5 -12q-8 -9 -20.5 -26t-26 -39.5t-27 -50.5t-23.5 -59q-11 -33 -15.5 -57.5t-4.5 -42.5q0 -29 9 -42.5t20 -17.5t26.5 2.5t32.5 19t34 29.5t31 34q15 16 32 39.5t32.5 47.5t27.5 46t18 37 q4 10 10.5 12t12.5 -1t8.5 -10.5t-2.5 -16.5q-13 -25 -26.5 -51.5t-21.5 -59.5q-3 -14 -5.5 -28t-2.5 -28t3.5 -26t12 -20.5t23 -12t36.5 -0.5q43 7 95 46.5t98 97.5t78.5 126.5t36.5 133.5z" />
<glyph unicode="X" horiz-adv-x="387" d="M393 483q19 2 28.5 -7t4.5 -24q-5 -8 -10 -17.5t-19 -17.5q-4 -3 -8.5 -2.5t-7.5 2t-3.5 3.5t2.5 3q6 5 14 13t6 13q-2 7 -31 0.5t-85 -43.5q-32 -21 -69.5 -52.5t-72.5 -65.5q9 -20 16 -34t14.5 -25t16 -21t20.5 -21q25 -22 55 -22q15 0 31 4q14 3 30.5 12t33 20t31 22 t23.5 20q3 3 7 4t6.5 0t2.5 -5t-5 -11q-8 -11 -23.5 -23.5t-33 -24t-34 -20t-26.5 -11.5q-8 -2 -19 -4.5t-24 -2.5q-18 0 -38.5 7t-40.5 29q-16 17 -31 40.5t-29 50.5q-38 -36 -67.5 -68.5t-45.5 -52.5q-17 -22 -33 -45t-27.5 -44.5t-16 -40t3.5 -30.5q4 -8 1.5 -11.5 t-8 -1.5t-11 11t-6.5 27q-1 22 13.5 53.5t40.5 69t62.5 78.5t80.5 83q-14 29 -25 58.5t-18.5 55t-12 45t-4.5 28.5q0 10 5 13.5t11 3t11 -4.5t5 -9q0 -11 3 -30.5t9 -43t14.5 -50t18.5 -50.5q51 46 93 77.5t75.5 50.5t57.5 28t38 11z" />
<glyph unicode="Y" horiz-adv-x="500" d="M196 486q-13 17 -8 24t15 4.5t17 -14t-3 -30.5q-16 -32 -54 -80.5t-76 -108.5q-11 -18 -20.5 -37t-15.5 -35t-8 -27t2 -12q7 -2 19 0t33 10.5t53.5 25t80.5 43.5q37 21 82.5 50t86.5 58.5t71 55.5t36 40t15.5 16t17.5 -4t11.5 -18t-1.5 -25q-5 -10 -19 -39.5t-34.5 -70 t-45.5 -88.5t-52 -95q66 -3 114 -26t66 -58q7 -13 7 -30q0 -19 -9 -33.5t-25 -14.5t-13.5 12t20.5 18q10 7 8.5 19t-10.5 25.5t-24.5 26t-33.5 19.5q-51 20 -112 20q-14 -23 -28.5 -45t-28.5 -42q-41 -57 -82 -99.5t-80.5 -70t-77 -39t-71.5 -4.5q-38 8 -38 48q0 19 10.5 44 t32.5 52.5t55.5 56.5t79.5 56q55 32 109 47.5t104 17.5q23 41 49 90t48 94q26 51 50 104q-48 -39 -97 -75q-42 -31 -91 -62.5t-92 -51.5q-31 -15 -59.5 -30.5t-53.5 -28t-45.5 -20.5t-35.5 -8q-21 0 -29 17q-3 8 -0.5 21.5t8.5 29.5t14 31.5t16 27.5q5 8 13.5 22t19.5 30.5 t23.5 35.5t24.5 37q28 43 61 93zM268 86q-79 -30 -142.5 -74.5t-101.5 -105.5q-8 -12 -12 -24t-4 -22q0 -15 9 -24.5t28 -9.5t49 12q37 16 73.5 44.5t70.5 64.5t64.5 77t55.5 82q-45 -3 -90 -20z" />
<glyph unicode="Z" horiz-adv-x="402" d="M203 487q12 1 31 5.5t41 9.5t45 10.5t44 8.5q15 2 30 3.5t29 1.5q21 0 32.5 -7t3.5 -27q-4 -11 -22 -29.5t-45 -40t-59.5 -45.5t-64 -46.5t-60 -42t-47.5 -33.5q-28 -21 -60 -46t-57 -49t-38.5 -43.5t-4.5 -28.5q14 -18 56 -18q40 0 108 14q66 13 115.5 28.5t71.5 37.5 q15 15 22 17t-2 -20q-5 -15 -26 -28t-51 -24.5t-65.5 -21t-69.5 -16t-64 -10t-48 -2.5q-38 2 -58 13t-20 33q0 14 11 36q7 14 27 34t46.5 42.5t57 45.5t58.5 43.5t51 36.5t35 24q20 13 48.5 34.5t55 43t46 39t21.5 22.5q1 6 -9.5 7t-26 -0.5t-33.5 -4t-32 -5.5 q-21 -4 -41 -10t-38 -11.5t-34.5 -7.5t-31.5 1q-17 4 -18.5 15.5t9.5 15.5q7 5 13.5 -0.5t17.5 -4.5z" />
<glyph unicode="[" horiz-adv-x="226" d="M83 556q-14 -45 -27 -88q-11 -37 -23 -78t-20 -72q-5 -20 -11.5 -47.5t-13.5 -57t-13 -58t-10 -52t-5.5 -38.5t1.5 -16q4 -3 23.5 -1t42 6.5t43.5 10t30 7.5q18 4 26 -6t-2 -14q-6 -2 -30.5 -9t-55 -14t-59 -12.5t-41.5 -5.5q-14 0 -18.5 6t-3.5 14.5t5.5 16.5t7.5 12 q1 4 9 37t18.5 81t23 104.5t23.5 107t19.5 87.5t11.5 47q8 31 12.5 51.5t13.5 18.5q5 -2 22.5 -4t37.5 -2q17 0 33 1.5t26 4.5q24 5 32 0t-9 -20q-9 -8 -28.5 -11.5t-39.5 -5.5q-24 -2 -51 -1z" />
<glyph unicode="\" horiz-adv-x="186" d="M41 580q1 -5 6 -26.5t11 -51t12.5 -62.5t11.5 -60q4 -21 15.5 -59.5t25.5 -79t28 -75t24 -47.5q20 -24 27 -29.5t13 -5.5q5 0 7 -5t-7 -7q-8 -2 -27 7t-39 40q-12 22 -25.5 56t-26 71t-23 73t-15.5 61q-6 28 -12 54t-12.5 47.5t-12.5 37t-10 23.5q-4 7 -6.5 16.5t-3 17.5 t2 14t7.5 7q11 5 19 -2t10 -15z" />
<glyph unicode="]" horiz-adv-x="301" d="M240 527q-3 3 -18.5 3t-37 -1.5t-46.5 -3.5t-47 -2q-28 0 -43 4q-11 2 -15.5 10.5t-4 16t5.5 11t14 -2.5q9 -8 28 -11.5t40 -3.5q19 0 39 3q31 2 55 3t41 3q17 5 27.5 -2t1.5 -33q-5 -13 -15 -37.5t-22 -56.5t-25 -70t-25 -77q-18 -66 -26 -115.5t-11 -82t-4 -49 t-5 -17.5q-5 -2 -25.5 -7t-45 -9.5t-46.5 -7t-28 0.5q-7 4 -9.5 10.5t-1 12t6 8.5t12.5 1t25.5 -1t35.5 4t33 8.5t17 11.5q1 4 4 21.5t8.5 42t11.5 54t12.5 58t13 53.5t11.5 41q7 23 18.5 57t21 67t15.5 57.5t3 27.5z" />
<glyph unicode="^" horiz-adv-x="329" d="M52 242q8 5 30 27t57 66t53.5 73t25.5 38q2 4 7.5 6t11.5 0.5t10 -6.5t3 -15q-2 -11 -3.5 -24t-1.5 -35q0 -23 3 -60q3 -33 11.5 -56.5t24.5 -36.5q5 -3 4.5 -8t-4.5 -8t-10.5 -3.5t-12.5 4.5q-11 9 -23 39t-16 68q-3 31 -3 59v24q0 5 1 10q-7 -11 -17 -25 q-8 -12 -19.5 -28t-25.5 -35q-13 -18 -27.5 -36.5t-28.5 -33.5t-26 -25t-18 -11q-11 -2 -20 5t-7 18q1 7 3 8.5t4.5 0.5t5.5 -1.5t8 1.5z" />
<glyph unicode="_" horiz-adv-x="255" d="M-8 -8h276l-1 -12h-276z" />
<glyph unicode="`" horiz-adv-x="139" d="M113 478q9 -5 1.5 -15.5t-18.5 -8.5q-6 1 -15.5 10.5t-18.5 22t-16.5 25.5t-10.5 21q-3 6 -1.5 10t5.5 4.5t7.5 -1.5t3.5 -8q0 -4 8.5 -13.5t19 -19t21 -17.5t14.5 -10z" />
<glyph unicode="a" horiz-adv-x="261" d="M278 232q2 3 7.5 5.5t10 2.5t6 -3t-4.5 -10q-7 -9 -20.5 -20.5t-28.5 -22.5t-30 -19.5t-25 -10.5l-16 -4t-15 -2q-11 0 -18.5 6t-8.5 23q-1 9 1.5 18.5t4.5 17.5l6 18q-18 -20 -37 -38q-17 -15 -38 -30t-43 -23q-24 -8 -36 1.5t-6 36.5q4 17 17 38t29.5 40t34.5 33t31 16 t20 -1t9.5 -7.5t1 -9t-4.5 -5.5q-3 0 -15 -6t-27 -16.5t-30.5 -24t-25.5 -27.5q-9 -12 -14.5 -22t-6.5 -16.5t5.5 -8t21.5 3.5q19 9 42 28t43 39t35 37.5t19 22.5q4 7 9.5 8t10 -2t6 -9t-1.5 -12q-3 -8 -8.5 -19t-10.5 -23t-9.5 -24.5t-6.5 -21.5q-4 -18 3.5 -19.5t21.5 3.5 q33 13 58 32t34 27z" />
<glyph unicode="b" horiz-adv-x="240" d="M254 236q15 13 23.5 12t-0.5 -15q-10 -12 -29.5 -24.5t-41 -23.5t-41 -18.5t-29.5 -9.5q-17 -7 -26.5 -15.5t-22.5 -16.5q-8 -5 -14.5 -2.5t-11.5 8t-7.5 12t-1.5 11.5t7.5 7.5t15 3.5t16 1.5t10.5 1.5q10 3 24 13t26.5 23t22.5 28.5t12 30.5q2 12 -5 17.5t-19 5.5 q-28 0 -61 -25q-22 -17 -39.5 -39t-31 -42.5t-21.5 -36t-10 -19.5q-5 -11 -11 -3t-6 21q0 14 18.5 54t49.5 112q5 12 15 34.5t21.5 49t23.5 54.5t22.5 51.5t17.5 40t9 19.5q2 6 6.5 11t8.5 5.5t6.5 -6t1.5 -22.5q-2 -22 -15.5 -56.5t-30.5 -71.5t-35 -71t-30 -55 q-19 -35 -25 -50q-4 -9 -6 -15q7 10 17 21q8 9 19 19t25 20t30 14.5t31 4.5q24 0 39 -12.5t5 -41.5q-5 -15 -12.5 -27t-15.5 -20q-9 -10 -19 -18q15 5 31 12q14 6 30.5 15t33.5 23z" />
<glyph unicode="c" horiz-adv-x="196" d="M111 315q6 0 10 -4.5t6.5 -10t2 -10t-3.5 -4.5q-17 0 -33 -9.5t-29.5 -23t-23.5 -29t-14 -26.5q-6 -18 -6 -28q0 -20 30 -17q16 2 39.5 11t47 21t45 26t34.5 26q9 8 17 4.5t-3 -17.5q-8 -11 -28.5 -26t-47 -29t-56 -25t-54.5 -14q-30 -4 -43 14q-5 7 -4.5 31.5t24.5 64.5 q25 42 50 57.5t40 17.5z" />
<glyph unicode="d" horiz-adv-x="262" d="M133 285q-7 -2 -26.5 -10.5t-53.5 -37.5q-15 -13 -25.5 -27t-15.5 -27t-5.5 -22t4.5 -12q3 -2 11.5 1.5t21.5 11.5t27.5 20t29.5 27q10 11 22 23.5t26 26.5q6 31 15.5 62.5t17.5 54.5q5 17 15.5 42.5t23 51.5t26 48t25.5 33q8 8 14.5 10.5t12.5 2.5q12 0 18.5 -10 t6.5 -21q0 -10 -4.5 -28.5t-13 -41.5t-21.5 -48.5t-31 -49.5q-20 -29 -42 -57.5t-43 -54.5q-10 -52 -3 -81q3 -11 17.5 -7.5t32.5 15t35.5 26.5t26.5 27q11 15 17 8t-6 -23q-5 -6 -15.5 -16.5t-24.5 -22t-30 -21.5t-32 -14q-20 -6 -32 5t-14 44q-1 11 2 30q-7 -8 -13.5 -15 t-12.5 -12q-24 -23 -42 -38.5t-44 -26.5q-29 -12 -38 0t-7 31q2 16 13.5 42.5t44.5 60.5q21 22 42 34t38 12q10 -1 14 -4.5t4 -8t-2.5 -8.5t-6.5 -5zM252 400q16 28 27 53.5t17 44.5t7 30t-3 11q-10 0 -24.5 -19t-30 -48.5t-30 -64t-23.5 -64.5q-5 -14 -8 -27t-6 -24 q18 22 37 49t37 59z" />
<glyph unicode="e" horiz-adv-x="181" d="M205 242q8 8 10.5 1.5t0.5 -12.5q-6 -10 -23 -24.5t-38 -28t-43.5 -25t-41.5 -15.5q-12 -3 -24 -2.5t-22 5.5t-15.5 15t-3.5 25q5 33 20.5 61t41.5 51q21 19 37.5 22.5t30.5 -1.5q10 -4 11 -15t-5 -25t-17.5 -27.5t-24.5 -21.5q-16 -9 -35 -12.5t-25 3.5q-2 -7 -6 -12 t-6 -23q0 -10 3 -14.5t7.5 -6.5t10 -2h11.5q14 1 36 11t43.5 23t40 27t26.5 23zM73 268q-8 -7 -10.5 -11t-9.5 -15q5 -7 15.5 -6t21.5 9q15 11 26.5 26t6.5 23q-4 6 -20.5 -4t-29.5 -22z" />
<glyph unicode="f" horiz-adv-x="135" d="M-90 87q5 -4 19.5 -1t40.5 16q12 36 27.5 74.5t32 75.5t33 72t30.5 64q23 48 46 87.5t43.5 69t35.5 47t22 21.5q11 5 18.5 0.5t9.5 -17.5q3 -22 -17.5 -79t-68.5 -138q-19 -29 -40 -55t-40.5 -46t-35 -33t-22.5 -17q-21 -47 -39 -90q-2 -5 -4 -10.5t-4 -10.5 q24 15 47.5 31t44 31.5t36.5 30t26 25.5q11 11 19 9.5t1 -12.5q-12 -19 -47 -50.5t-87 -63.5q-13 -8 -25.5 -15.5t-24.5 -14.5q-16 -46 -23.5 -85t-2.5 -60q5 -20 11.5 -24t17.5 1q7 2 10.5 -7t-7.5 -16q-20 -11 -37.5 9.5t-14.5 71.5q3 41 20 97q-21 -10 -37 -14t-23 3 q-5 5 -6 10.5t1 9.5t5.5 5t8.5 -2zM163 390q17 28 33 61t27.5 61t17.5 47.5t4 21.5q-2 3 -13 -9.5t-27 -37t-36 -57.5t-40 -70q-20 -38 -37.5 -73.5t-31.5 -68.5q17 17 46.5 49t56.5 76z" />
<glyph unicode="g" horiz-adv-x="260" d="M279 235q4 3 10.5 5.5t10.5 1.5t3.5 -5.5t-10.5 -15.5q-17 -17 -47.5 -35.5t-76.5 -47.5q-5 -15 -10 -32t-14 -37q-19 -49 -46.5 -83.5t-53.5 -57t-47 -33.5t-27 -12q-6 -2 -14 -2t-14 4.5t-9 13.5t0 24q5 24 23 54t62 74q20 17 55 46t77 55q5 17 7 32.5t4 26.5 q2 13 3 25q-21 -22 -45 -41q-20 -17 -45.5 -32.5t-51.5 -20.5q-28 -7 -38 7t-2 36q3 9 15 26t30 35t40 34t45 24q13 4 21.5 -0.5t12.5 -12.5t2 -15.5t-10 -8.5q-20 0 -41 -8.5t-40.5 -21t-34 -27.5t-20.5 -28q-6 -14 -3 -18.5t13 -3t24 7.5t29 14q14 7 31.5 21.5t33.5 29.5 t28.5 28t17.5 17q2 3 6.5 2.5t8.5 -4t5 -9.5t-3 -12q-6 -9 -6.5 -29.5t-10.5 -57.5q44 26 69.5 42.5t32.5 24.5zM113 46q7 14 16 35t14 41q-28 -17 -55 -39t-44 -37q-25 -21 -44.5 -45t-31 -45t-15 -36.5t3.5 -18.5t27.5 8.5t44.5 32.5t47 48t37 56z" />
<glyph unicode="h" horiz-adv-x="243" d="M-9 148q-1 7 8.5 34.5t23.5 65.5t31.5 80.5t34 79.5t29.5 63.5t19 31.5q9 7 14.5 6.5t8.5 -5.5t3 -12.5t-3 -14.5q-2 -5 -8.5 -20t-15.5 -36t-20.5 -46t-23 -49t-22.5 -45t-19 -34q-5 -8 -10 -21t-10 -25q-5 -14 -10 -29q19 24 40 46q17 19 38.5 39t41.5 34q8 5 14 0 t4 -21q-2 -9 -4 -24t-2 -31q0 -15 4 -27t15 -15q12 -3 25.5 4t26.5 18.5t24.5 23t18.5 17.5q10 9 14 2t0 -12q-7 -8 -18 -20.5t-25 -24.5t-29.5 -20.5t-30.5 -9.5q-14 -1 -22.5 5t-13 15.5t-6.5 21.5t-2 24q0 8 0.5 16t1.5 14q1 7 2 12q-22 -17 -42 -36q-17 -17 -37 -37.5 t-35 -42.5q-9 -13 -20.5 -11.5t-12.5 16.5z" />
<glyph unicode="i" horiz-adv-x="138" d="M157 235q13 11 16 2t-4 -16q-9 -9 -23 -21t-31.5 -23t-38 -20.5t-43.5 -12.5q-22 -5 -30 3t-8 26q0 11 7 28.5t16 34t18 28t14 11.5q6 0 13 -4.5t-2 -16.5q-6 -8 -16 -22.5t-17.5 -29.5t-9.5 -25.5t8 -10.5q19 1 38.5 9t37 19t32 22t23.5 19zM90 310q-8 2 -7.5 11t2.5 15 q0 7 8.5 12t17.5 0q18 -15 6 -29q-5 -5 -11.5 -8t-15.5 -1z" />
<glyph unicode="j" horiz-adv-x="65" d="M83 351q9 -5 11 -13t-5 -13q-10 -15 -26 -12q-9 2 -8.5 12.5t2.5 16.5q0 5 9 9.5t17 -0.5zM-28 73q19 -2 35 -10t27 -19t16 -22.5t3 -21.5q-2 -11 -7 -14.5t-10 -2t-7.5 5.5t0.5 9q6 13 -9.5 29.5t-53.5 21.5q-15 -33 -33.5 -67.5t-35.5 -60.5q-35 -50 -77.5 -85 t-79.5 -39q-34 0 -34 41q0 16 8 42q4 14 14.5 36.5t29.5 47.5t48 50t70 45q40 17 70 17q14 31 27.5 61t24 54t18 39.5t9.5 18.5q3 4 8 4.5t9.5 -1t7.5 -4t1 -4.5q-5 -7 -18 -33.5t-26 -57.5q-7 -15 -15.5 -33t-19.5 -47zM-58 49q-18 4 -40 -4t-41 -19q-26 -15 -49 -37.5 t-40 -45.5t-28 -44t-13 -33q-3 -14 -3.5 -25t3.5 -16t14 -4t27 10q18 9 38 25.5t42 43t44.5 63t45.5 86.5z" />
<glyph unicode="k" horiz-adv-x="228" d="M203 315q-10 0 -27 -8.5t-35 -20.5t-34.5 -25.5t-24.5 -22.5q-24 -27 -34.5 -41.5t-8.5 -25.5q0 -5 4 -8.5t13.5 -3.5t26 4.5t41.5 14.5q19 8 38.5 17t36 17.5t29 16t18.5 11.5q11 9 17 4t-8 -19q-9 -9 -36 -24.5t-59 -30t-63 -23.5t-50 -5q-22 5 -28 16t-2 25 q-9 -17 -18.5 -35t-19 -34.5t-17 -29t-11.5 -17.5q-6 -8 -12 -10.5t-10 -1.5t-4.5 4.5t2.5 7.5t11.5 18t20 34.5t25 45t26.5 50.5q11 22 30.5 60.5t40 80t36.5 79t21 57.5q3 11 9 14t12 -0.5t10 -12.5t1 -21q-2 -8 -8.5 -23t-15.5 -33t-20 -39t-23 -41q-27 -48 -60 -103 l-5 -10l6 8t7 9q11 15 28 29.5t34.5 27.5t34.5 21.5t28 11.5q7 1 13.5 -1.5t10.5 -5.5t5 -5.5t-2 -2.5z" />
<glyph unicode="l" horiz-adv-x="176" d="M164 536q29 32 48 32q14 0 20.5 -15t4.5 -40q-3 -43 -30.5 -87.5t-72.5 -100.5q-32 -41 -56.5 -66t-36.5 -36q-2 -9 -3 -16.5t-1 -14.5q0 -34 35 -28q18 3 37.5 12.5t37 20t30.5 21.5t18 17q11 11 18 5.5t-6 -20.5q-8 -9 -24 -22t-37 -25.5t-43.5 -22t-41.5 -11.5 q-26 -3 -35.5 14.5t-9.5 41.5q0 23 5 46q7 41 22 82.5t34 80t41.5 72.5t45.5 60zM216 513q5 26 -6.5 27.5t-33.5 -24.5q-19 -24 -38.5 -55.5t-37.5 -66.5t-32 -70.5t-22 -67.5q13 14 33.5 36t49.5 62q24 32 39.5 55t25.5 41t14.5 32.5t7.5 30.5z" />
<glyph unicode="m" horiz-adv-x="384" d="M58 254q-5 -5 -12 -17.5t-13 -25.5q-7 -15 -14 -33q4 4 19.5 22t34.5 38.5t36.5 38t26.5 20.5q7 2 16.5 0t7.5 -15q-2 -7 -3 -17.5t-1.5 -22t-1 -22.5t-1.5 -19q17 17 48.5 41t69.5 45q12 7 19.5 -1.5t2.5 -18.5q-4 -8 -7 -19t-3 -23q0 -15 6 -28q5 -11 18 -15.5t28 1.5 q18 7 30 15t19.5 16t12.5 14.5t11 10.5q8 7 10.5 1.5t-5.5 -18.5q-10 -14 -30 -33t-49 -26q-28 -7 -45 6t-23 31q-3 8 -3.5 18t-0.5 19q0 10 1 20q-11 -6 -28.5 -18.5t-34 -25.5t-28.5 -23.5l-12 -10.5q-2 -1 -6 -3.5t-8.5 -3t-8.5 1.5t-5 10q-2 9 -1.5 23.5t1.5 28 t2.5 23.5l1.5 10q-1 0 -7 -5.5t-14 -13t-17 -17t-16 -16.5q-9 -9 -20 -22t-21 -25t-18.5 -21t-12.5 -10q-9 -5 -15.5 0.5t-4.5 16.5q5 20 17 50.5t27 55.5q4 6 9.5 7.5t10 -1t6.5 -6.5t-2 -8z" />
<glyph unicode="n" horiz-adv-x="280" d="M66 269q-4 -4 -12.5 -18t-17.5 -30q-11 -18 -23 -41q28 27 54 52q23 21 46 41.5t40 31.5q15 10 26 4t6 -17q-7 -16 -7 -45q0 -17 4.5 -33.5t16.5 -24.5q11 -7 24.5 -5t27 9t26 16.5t21.5 18.5t14 11t7 0t0.5 -7t-6.5 -11q-9 -10 -21.5 -21.5t-27 -20.5t-31 -14t-32.5 -1 q-23 5 -32 24t-12 39q-4 24 0 53q-25 -19 -51 -41q-22 -19 -46 -43t-44 -50q-4 -5 -11 -5.5t-13 2t-9 8t0 11.5q3 10 11.5 27.5t18.5 36t19 33.5t13 20q2 3 7 3t9.5 -1.5t6.5 -4.5t-2 -7z" />
<glyph unicode="o" horiz-adv-x="225" d="M85 272q-9 -2 -20 -11.5t-17 -17.5q-10 -14 -16.5 -37.5t-4.5 -37.5q2 -13 9.5 -18t27.5 6q8 5 17.5 12.5t19.5 16.5q-8 12 -7 32q1 15 6.5 31.5t14 30t19.5 24t23 13.5q20 5 30 -4.5t8 -24.5q-2 -18 -16.5 -43.5t-37.5 -51.5q6 0 12 1.5l14 3.5q11 3 23 9t23 12.5 t19.5 12.5t13.5 9q8 5 11.5 -2.5t-2.5 -14.5q-5 -4 -15 -11t-24 -14.5t-30.5 -14t-34.5 -9.5q-8 -2 -15.5 -3t-13.5 1q-23 -21 -46 -35q-20 -10 -35 -10q-26 0 -34 38q-3 14 0 32t10 36t17 32.5t22 21.5q22 8 28.5 -1t0.5 -14zM135 219q19 23 26.5 36.5t9.5 28.5 q2 9 -3 11.5t-12 -2.5q-5 -3 -12.5 -12.5t-14.5 -21t-11.5 -23.5t-3.5 -22q0 -8 4 -14q4 4 8 9t9 10z" />
<glyph unicode="p" horiz-adv-x="204" d="M-34 58q-13 -30 -21 -51t-17 -47q-5 -14 -13.5 -9t-6.5 29q2 7 13 32t24.5 55t27 59t19.5 46q17 42 33.5 75t25.5 53q1 4 5 6t8.5 1.5t7.5 -4t2 -9.5q-4 -11 -12 -26q-4 -8 -9 -16q16 17 34 30q15 11 33.5 20.5t37.5 10.5q16 1 24 -11t-1 -41q-6 -20 -15.5 -36t-17.5 -27 q-10 -13 -20 -24q18 8 36 18q15 8 31.5 19.5t28.5 25.5q8 8 13.5 5t-2.5 -17q-9 -14 -32 -31t-60 -34l-17.5 -7.5t-21.5 -8.5t-21 -7t-16 -3q-17 0 -17.5 11t6.5 18q4 4 11.5 6.5t14.5 3.5t13 2t7 2q5 2 21.5 21t27.5 44q10 23 11 31.5t-3 13.5q-7 5 -23 -2t-36 -20t-41 -38 t-34 -45z" />
<glyph unicode="q" horiz-adv-x="258" d="M138 277q-9 5 -24 -1t-34 -20q-12 -10 -29 -27t-31 -34.5t-21 -32.5t1 -19q6 -3 24.5 8t39 26t38 30t23.5 21q5 6 12.5 16t16 20t16 17.5t13.5 9.5q5 2 11.5 0t11 -6.5t4.5 -10t-7 -9.5q-20 -10 -42 -38t-49 -85q13 -1 31.5 2.5t50.5 23.5q34 20 51 35t31 29q11 10 18 7 t2 -11q-13 -22 -36.5 -41t-47 -33t-40.5 -22.5t-18 -8.5q1 0 5 -3t8 -10.5t7 -21.5t3 -37q-1 -26 -9 -58t-23 -62t-36 -55t-48 -37q-15 -6 -26 -5t-18 7.5t-10.5 17t-3.5 23.5q0 12 4 31t11 41.5t16 48t18 49.5q21 57 49 123q-14 -10 -29 -20q-13 -8 -28.5 -17.5 t-29.5 -14.5q-10 -5 -18 -4t-14 6t-8 12t0 15q2 14 12 33.5t25 40t33 39.5t36 33q13 9 24.5 12.5t21 3t15.5 -3.5t8 -6q7 -9 1.5 -20t-12.5 -7zM32 -147q24 -4 51.5 24.5t49.5 74.5q10 20 17 53t7 59q0 22 -6 33q-9 15 -25 18t-25 2q-15 -35 -32 -79.5t-29.5 -85t-16 -69 t8.5 -30.5z" />
<glyph unicode="r" horiz-adv-x="226" d="M112 270q40 22 71 22q22 0 29 -10q4 -5 3 -11t-4 -10t-7.5 -5t-8.5 3q-3 3 -11.5 5t-22 0t-32.5 -10.5t-43 -25.5q-26 -18 -42 -33t-25 -26t-13 -18.5t-6 -10.5q-1 -2 -6.5 -4.5t-10.5 -2.5t-8.5 4t-0.5 13q2 6 7 16.5t11.5 22.5t13 23t10.5 19q11 20 20.5 41t14.5 27 q1 2 5.5 2t8.5 -2t6 -6.5t-1 -10.5q-5 -8 -11.5 -20.5t-13.5 -24.5q-8 -14 -16 -30q10 11 22 22q11 9 26 20t35 21z" />
<glyph unicode="s" horiz-adv-x="175" d="M88 293q-5 -1 -12.5 -6.5t-15 -12.5t-12.5 -14t-5 -11q1 -10 9.5 -21t18.5 -21.5t18.5 -20t9.5 -16.5q16 7 43 24t55 46q12 12 15.5 5t-1.5 -13q-5 -10 -18 -22t-28.5 -24t-32.5 -22.5t-30 -16.5q-5 -15 -20 -22.5t-23 -9.5q-11 -2 -21.5 -0.5t-18 5.5t-10 9t2.5 9 q11 7 31 10.5t33 14.5q2 9 -7 20t-21 22.5t-21.5 24t-7.5 24.5q1 12 8 23.5t15.5 20t17 13.5t11.5 5q13 -1 17.5 -11t-0.5 -12z" />
<glyph unicode="t" horiz-adv-x="141" d="M16 405q18 -9 38 -11.5t37 -0.5q10 20 16.5 34.5t8.5 19.5q6 12 8.5 19.5t4 12.5t2.5 8.5t3 6.5q5 6 16 -1t9 -23q-1 -8 -11 -30t-23 -46q15 -1 32.5 5.5t25.5 14.5q4 4 9.5 4.5t9.5 -1t4 -6t-6 -11.5q-5 -5 -15.5 -10.5t-23.5 -9.5t-26 -6.5t-22 -1.5q-20 -37 -29 -54.5 t-15 -26.5l-14 -28t-18 -42t-9.5 -40t11.5 -20q11 -2 27 5t33.5 18.5t33.5 25t27 25.5q11 11 19.5 9t-4.5 -17q-7 -9 -22 -24t-34 -29.5t-40 -25t-40 -10.5q-18 0 -25 9.5t-7 24.5q0 16 5.5 36t12.5 40q7 22 22 54t33 70q-22 0 -42.5 5t-29.5 10q-15 9 -9.5 16.5t17.5 1.5z " />
<glyph unicode="u" horiz-adv-x="254" d="M271 233q11 13 18.5 9.5t-0.5 -16.5q-7 -10 -19.5 -22.5t-26.5 -23.5t-29.5 -20t-28.5 -12q-19 -7 -27 -3.5t-14 20.5q-3 7 -2 16.5t3 18.5q3 11 7 22q-13 -15 -29 -28q-14 -12 -31 -24.5t-37 -21.5q-14 -7 -28.5 -2t-20.5 25q-3 12 1.5 30t12 35.5t16 32t13.5 20.5 q6 6 13 7.5t12.5 -1t7 -7t-3.5 -10.5q-9 -10 -21.5 -30t-20.5 -39.5t-8.5 -32.5t13.5 -8t35.5 20t41 33t33.5 34.5t14 23.5q0 5 5 7t10.5 0.5t9.5 -6t2 -12.5q-1 -7 -7.5 -23.5t-12 -33.5t-7 -30t7.5 -13q18 0 46.5 19t51.5 46z" />
<glyph unicode="v" horiz-adv-x="186" d="M65 258q-3 -5 -6.5 -6t-6.5 -2.5t-6 -6.5t-5 -19q-2 -12 -2 -24t1 -20.5t4 -13t7 -2.5q6 4 26.5 24t43.5 44t42 46t22 28q5 10 10 10.5t8 -3.5t4.5 -10t-1.5 -10q-6 -9 -26 -31t-43 -46.5t-45.5 -46t-34.5 -28.5q-11 -7 -20.5 -2t-16.5 25q-4 15 -4 38q0 20 5 41.5 t16 38.5q6 9 12 9t10.5 -4.5t6 -12.5t-0.5 -16z" />
<glyph unicode="w" horiz-adv-x="322" d="M89 277q-3 -3 -14 -12t-24 -23.5t-24 -33t-14 -39.5q-1 -7 1 -8.5t6 0t9 5.5t11 7q6 4 16.5 12.5t22.5 18t23 20t19 19.5q15 17 25.5 32.5t14.5 22.5q2 2 8 2.5t12 -0.5t9.5 -3.5t1.5 -6.5q-2 -5 -10.5 -15t-17.5 -22.5t-17 -24.5t-10 -19q-5 -20 4.5 -30.5t31.5 -8.5 q12 2 27.5 10t30.5 19.5t27.5 25.5t18.5 29q11 26 12.5 38t-3.5 23q-2 4 -6 6.5t-7 4t-4.5 3.5t0.5 6q1 7 6.5 9.5t12 1t12.5 -6.5t9 -12q6 -15 6 -30q0 -20 -9 -40.5t-23 -37.5q-12 -15 -27.5 -28.5t-31.5 -23.5t-31 -15.5t-26 -4.5q-24 0 -35 9t-14 20q-4 12 0 29 q-14 -14 -27 -25q-11 -10 -23.5 -19.5t-22.5 -13.5q-14 -8 -28 -8q-13 0 -21 8.5t-3 28.5q2 15 10.5 33.5t18.5 35t19.5 29.5t15.5 18q4 4 10.5 3.5t12 -3.5t8.5 -7.5t1 -7.5z" />
<glyph unicode="x" horiz-adv-x="196" d="M194 326q8 -2 8.5 -7.5t-8.5 -7.5q-3 0 -13 -6.5t-23.5 -16.5t-28 -23.5t-26.5 -27.5q-8 -7 -14.5 -16t-14.5 -17q10 -13 26.5 -25.5t32.5 -21.5t27.5 -12t11.5 3q0 7 3 6.5t5 -5t1 -10.5t-8 -9q-9 -3 -23 0t-29 11t-30 19t-27 24q-23 -30 -40 -53t-20 -28q-2 -4 -6 -4.5 t-7.5 1t-5.5 5.5t0 10q2 4 8 13t15 21t19.5 26.5t20.5 28.5q-16 20 -24 36t-6 34q2 12 8.5 16t13 3.5t11.5 -5t4 -8.5q-14 -14 -8.5 -29t16.5 -30q6 8 12 16.5t13 15.5q14 18 31 32t32 23.5t27 14t16 3.5z" />
<glyph unicode="y" horiz-adv-x="249" d="M82 286q-26 -30 -42.5 -59t-16.5 -47q0 -29 29 -16q15 6 35.5 24t40 39.5t34.5 42.5t18 33q4 9 16 2t10 -22q-2 -14 -9.5 -46t-22.5 -79q34 28 56 44t39 36q11 13 17.5 7.5t-1.5 -16.5q-11 -15 -44 -42.5t-79 -65.5q-2 -7 -5 -13.5t-5 -13.5q-34 -87 -75 -144.5 t-78 -82.5q-26 -17 -49 -17q-16 0 -24.5 9.5t-3.5 29.5q3 18 16.5 40t32 45.5t41.5 46.5t46 43q17 14 39.5 31.5t47.5 37.5q10 28 15.5 50t8.5 37q4 18 5 31q-20 -26 -40 -48q-17 -19 -36.5 -36.5t-36.5 -25.5q-14 -6 -26 -5t-20.5 7t-12.5 16t-2 22q1 13 6 28t12 30 t15 28.5t16 23.5q3 6 11 8.5t14.5 1.5t10 -4.5t-2.5 -10.5zM81 54q-22 -18 -43.5 -39.5t-40 -42.5t-32 -40t-19.5 -31q-13 -24 0.5 -29.5t35.5 8.5q12 5 29 21.5t35 40.5t35.5 52.5t30.5 58.5q5 11 9 20.5t9 20.5q-14 -12 -26.5 -22z" />
<glyph unicode="z" horiz-adv-x="158" d="M179 231q11 14 18.5 9.5t-2.5 -15.5q-9 -11 -17.5 -21t-19 -23t-24 -29t-31.5 -39q-7 -39 -16.5 -83.5t-29.5 -79.5q-31 -67 -66.5 -101.5t-55.5 -34.5q-15 2 -21 11t-6 22q0 10 2.5 20t6.5 20q14 39 41.5 82t66.5 89q13 15 26 32t31 37q1 13 1.5 23.5t1.5 17.5q1 8 1 14 q-23 -11 -42 -22q-17 -9 -31.5 -17.5t-19.5 -13.5q-6 -6 -17 1t-9 18q2 4 9 16t15 27t16.5 29t14.5 23q4 8 11 20t14.5 24t14.5 22t12 13q9 8 18 2t2 -17q-3 -8 -11 -20t-18.5 -26t-21.5 -30t-21 -31q-5 -9 -9.5 -16.5t-8.5 -13.5q-4 -7 -9 -12q25 13 45 24q17 9 32 17 t17 10q6 2 16 -2.5t10 -15.5q0 -5 -2 -13.5t-4 -24.5q29 35 46 53t24 25zM60 16q5 17 9.5 35t6.5 33q-24 -31 -42 -53.5t-27 -33.5q-10 -13 -21.5 -29t-22.5 -33t-19.5 -34t-11.5 -32q-7 -26 -0.5 -28.5t17.5 2.5q33 20 62 68t49 105z" />
<glyph unicode="{" horiz-adv-x="365" d="M410 576q-16 3 -33 7q-14 3 -31 5.5t-32 4.5q-24 2 -52 -11t-41 -35q-4 -9 -9 -29t-10.5 -45t-10.5 -52t-9.5 -50t-8 -40t-4.5 -22q-5 -13 -13.5 -30t-21.5 -28q-8 -7 -17.5 -13.5t-17.5 -11.5q-10 -6 -20 -13q19 -6 36 -14q14 -7 28.5 -15.5t22.5 -19.5q7 -7 4.5 -24 t-13.5 -37q-5 -9 -15 -28t-19.5 -40t-16.5 -40t-7 -28q-2 -22 21 -35.5t60 -11.5q32 1 58.5 8t45.5 15.5t29.5 16.5t9.5 10q-2 4 -11.5 3t-9.5 5q0 16 10.5 17.5t18.5 -5.5q9 -5 10 -19t-13 -27q-8 -7 -23.5 -15t-36 -15t-43.5 -12t-45 -5q-52 -2 -80.5 15t-26.5 49 q0 11 6 29t14.5 38.5t18 41t17.5 37.5t13 29t4 14q-5 8 -24.5 20t-39.5 14q-37 4 -52 0q-5 0 -9.5 4t-7 10t-1.5 12t9 9q7 3 13 4.5t12.5 3.5t16.5 5.5t25 12.5q17 11 34.5 33.5t28.5 76.5q6 27 11.5 61.5t13 68t18.5 61t27 41.5q17 15 38.5 21t44.5 6q34 0 64 -8.5 t42 -15.5q8 -5 8.5 -7t-1.5 -4q-3 -2 -7 -3z" />
<glyph unicode="|" horiz-adv-x="217" d="M227 477q-6 -11 -16 -32t-22 -46t-24 -52t-23 -51t-26.5 -63.5t-30.5 -77.5q-18 -45 -36 -93q3 4 7 7q8 6 10 3q3 -5 -2 -11.5t-12 -16.5q-4 -5 -5.5 -12.5t-3 -15.5t-3.5 -16.5t-8 -15.5q-11 -17 -17.5 -18.5t-10.5 7.5q-3 4 -1 15t6.5 24t9.5 26.5t9 22.5 q4 8 14.5 36.5t23.5 62.5t26 67t21 50q5 12 13 31t18.5 41.5t21 46t20 44t17 36.5t11.5 23q11 21 14.5 32t2.5 17q1 8 13 17.5t24 11.5q10 -1 11.5 -11t-4.5 -21q-7 -14 -20.5 -31t-27.5 -37z" />
<glyph unicode="}" horiz-adv-x="348" d="M84 595q0 -2 -2.5 -2t-5.5 0.5t-4.5 0.5t0.5 -2q5 -5 19 -11.5t36 -8.5q27 -3 61 -3q29 0 56.5 2t45.5 6q7 2 16 0.5t14.5 -7t6.5 -13t-8 -17.5t-21 -25t-24.5 -33t-25 -37.5t-22.5 -38.5q-10 -17 -19.5 -36.5t-16.5 -35.5t-9 -26.5t3 -10.5q6 -2 21 2t32 4q15 0 30 -6 q25 -13 24 -27t-8 -21q-3 -5 -19 -9.5t-31.5 -9t-25.5 -9t-2 -7.5q20 -8 36 -37.5t23 -71.5q2 -13 3.5 -27.5t1.5 -31.5q0 -38 -12 -80.5t-48 -84.5q-11 -13 -25 -22t-29.5 -14.5t-31 -8t-28.5 -2.5q-25 0 -34 7q-11 7 -11 18.5t5 23t13 20t13 10.5q7 5 10 0.5t-4 -8.5 q-2 -3 -7.5 -10.5t-9.5 -15t-4.5 -14t7.5 -7.5q7 -2 22 -2t32.5 4t35 12t29.5 21q29 32 41.5 75.5t10.5 98.5q-2 44 -14 77.5t-27 39.5q-17 7 -24 8t-14 1q-8 0 -6.5 13t12.5 26q6 7 21 11.5t30 8t26 8t10 10.5t-12.5 7.5t-25 0t-25.5 -5t-15 -5.5q-9 -2 -18.5 12.5 t-5.5 34.5q2 11 11.5 31t22.5 44t27 48t26 42q22 32 36 52t5 20q-7 0 -37 -2.5t-65 -2.5q-19 0 -37.5 1.5t-32.5 4.5q-20 5 -36.5 10.5t-28.5 12.5t-17.5 15t-3.5 19q2 9 14 11t21 -5q8 -13 15.5 -14t7.5 -6z" />
<glyph unicode="~" horiz-adv-x="455" d="M29 167q0 7 8.5 23t21.5 33t27.5 32.5t26.5 21.5q16 11 31 11q20 0 27 -22q9 -26 25.5 -45t38.5 -19q31 -2 58 8.5t46.5 24.5t31 28.5t12.5 19.5q4 13 0 17t-6 15q0 5 4 7.5t9.5 2t10 -5t5.5 -13.5q5 -24 -12 -48.5t-46 -44.5q-20 -13 -47.5 -25.5t-56.5 -12.5 q-15 0 -29.5 5t-28.5 16q-12 10 -18.5 21t-11 21t-8 17t-9.5 8q-4 1 -11 -3t-14.5 -10.5t-14 -14t-9.5 -13.5q-5 -4 -10 -12.5t-9.5 -17.5t-8 -18t-4.5 -13q0 -3 -4.5 -5.5t-10 -2.5t-10 3t-4.5 11z" />
<glyph unicode="&#xa1;" horiz-adv-x="276" d="M-19 -24q3 2 12 10t20.5 19t24 24.5t24.5 27.5q26 30 45.5 58.5t36.5 68.5q10 24 13 42t-2 25q-2 6 -0.5 10.5t5 6t8 -2t7.5 -14.5q4 -17 -7.5 -54.5t-33.5 -76.5q-9 -16 -26 -42t-36.5 -52t-37.5 -47t-29 -27q-9 -5 -14.5 -2.5t-8.5 7.5t-3 11t2 8zM202 335 q-7 2 -13 4.5t-8 13.5q0 13 7.5 18t15.5 5q7 2 15.5 -3.5t8.5 -16.5t-10 -16t-16 -5z" />
<glyph unicode="&#xa2;" horiz-adv-x="325" d="M255 473q-5 -5 -19.5 -23.5t-33.5 -58.5q16 3 26 -1q20 -8 25 -24.5t-2 -30.5q-5 -8 -10.5 -9.5t-10 0t-7 5.5t-1.5 8q0 11 3 13t3 10q0 5 -11 5t-27 -3q-1 -2 -1 -3.5t-1 -3.5q-11 -26 -25 -63l-28 -74q24 0 46 4t40 10t30 12.5t17 11.5q7 6 14.5 6.5t12 -1.5t4 -7 t-10.5 -11q-10 -7 -26.5 -15t-37.5 -14.5t-46 -11.5t-51 -5q-14 -40 -23.5 -68t-7.5 -28h9t5.5 -3t-0.5 -10t-9 -22q-6 -8 -13.5 -14t-13.5 3q-7 6 -1.5 30t24.5 80q2 8 5 16l6 16q-12 1 -24 3t-24 5q-17 5 -23.5 15t-6.5 21q0 12 5 25t11 21q4 6 17.5 19t32 27t40.5 27.5 t43 21.5q21 45 38 75t27 35q11 6 14.5 -2.5t-3.5 -18.5zM60 233q27 -10 55 -12q11 32 23.5 65.5t27.5 70.5q-13 -5 -21 -11q-36 -23 -54 -38.5t-28 -29.5q-11 -15 -12.5 -27.5t9.5 -17.5z" />
<glyph unicode="&#xa3;" horiz-adv-x="343" d="M18 258q12 3 36 7.5t54 6.5q3 13 6 25.5t6 24.5q9 33 19.5 65t21 58t19 44.5t14.5 24.5q12 11 23 6.5t14 -14.5q3 -9 4 -32t1 -47v-43.5t2 -21.5q4 -5 9.5 -4t-0.5 -3q-2 -3 -7 -5.5t-10.5 -4t-9.5 0t-5 6.5q-1 4 -0.5 16t1.5 27.5t2 32.5t1 32q0 16 -2 26.5t-7 10.5 q-6 0 -17.5 -25.5t-24 -60.5t-24 -71.5t-17.5 -59.5q-1 -2 -1 -4t-1 -4h106q11 0 13.5 -10t-8.5 -10h-67h-49q-5 -21 -11.5 -44t-12.5 -44q3 -1 9 -1q15 -2 32.5 -6.5t35.5 -9.5t34.5 -8.5t28.5 -4.5q8 -1 15.5 -1h13.5q17 0 27 1t15 1q3 1 3.5 3t0.5 4.5t0.5 4t4.5 2.5 q4 0 10 -2.5t9 -7t0.5 -9.5t-14.5 -9q-5 -2 -14.5 -3t-22.5 -1q-28 0 -65 4.5t-71 13.5q-38 9 -58 9q-6 -20 -11 -35.5t-7 -22.5q-5 -18 -13 -22t-13 8t-8.5 30t-8.5 29q-5 8 -7 17.5t12 12.5q10 1 21 2t24 1q5 20 11 42.5t12 45.5q-29 -2 -47 -5.5t-26 -7.5q-5 -2 -9 0 t-6.5 5.5t-1.5 7.5t6 6zM58 104q2 -1 6 10t9 29q-8 -1 -13 -2.5t-7 -2.5q-2 -3 -2.5 -8.5t0.5 -11.5t3 -10t4 -4z" />
<glyph unicode="&#xa4;" horiz-adv-x="330" d="M65 329q4 6 7.5 12.5t8.5 12.5q14 21 34 39.5t40.5 33.5t39 25.5t29.5 14.5q18 9 37 9q13 0 23 -4.5t15 -13.5q5 -8 9 -18t6.5 -19t3.5 -15.5t1 -7.5q-2 -5 -5 -9.5t-12 -4.5q-11 3 -8 16q2 8 -3 24t-13 24q-17 10 -46 -1.5t-84 -52.5q-20 -15 -34 -31t-24 -33 q35 3 54.5 5t30.5 3.5t17 3t14 2.5q17 2 24 -3t-5 -10q-16 -5 -47.5 -10t-78.5 -9q-6 -1 -11 -1.5t-10 -1.5q-8 -16 -11 -30.5t-3 -27.5q11 1 30 1.5t39 1.5t38 2.5t27 3.5q15 2 20.5 -5.5t-8.5 -12.5q-6 -2 -22.5 -4t-37.5 -4t-43.5 -4t-40.5 -3q5 -29 25 -51t66 -26 q24 -3 46 2t40 12.5t30.5 14.5t15.5 9q5 4 12.5 3t-1.5 -11q-6 -9 -19.5 -18.5t-31.5 -17t-40 -12.5t-44 -5q-26 0 -50 8.5t-41 28.5q-25 30 -30 62h-6q-25 0 -42 -3.5t-25 4.5q-7 7 0 15.5t15 12.5q8 2 15.5 7t11.5 2q4 -4 2 -8q-1 -2 -4 -4q4 -1 9 -1q5 -1 10 -1h12 q2 30 13 56q-25 -3 -38.5 -2.5t-23.5 2.5q-13 2 -14.5 12.5t11.5 12.5q9 2 18.5 -1t17.5 -3z" />
<glyph unicode="&#xa5;" horiz-adv-x="396" d="M356 461q-8 -8 -27 -24.5t-48 -58.5q-18 -26 -32 -49.5t-25 -45.5q15 5 29 9t23 7q20 7 33.5 9.5t23.5 -0.5q8 -1 6 -7.5t-14 -8.5q-5 0 -18 -4t-29.5 -9.5t-34 -11.5t-31.5 -11q-2 -5 -3.5 -9t-3.5 -8q-5 -12 -10.5 -28.5t-10.5 -33.5q13 3 28 6.5t29 6.5t24.5 5.5 t15.5 4.5q6 3 10 1.5t6.5 -4.5t1.5 -6t-5 -4q-5 -2 -18 -5.5t-28.5 -7.5t-32.5 -8t-29 -7q-6 -2 -7 -2q-5 -20 -7 -34.5t1 -19.5q2 -7 6 -4.5t6 0.5q7 -10 -4 -18q-8 -5 -18 1.5t-10 23.5q-2 19 3 46q-21 -5 -40 -7.5t-32 -2.5q-17 0 -20 8.5t-1 10.5q4 5 10.5 5h17.5 q15 0 32 1t38 5q5 17 11 36t15 40q-28 -8 -51 -10t-39 -1q-19 2 -28 5.5t-12 12.5q-2 6 3 10.5t10 2.5q3 -2 11 -4t18.5 -3t22 -1.5t20.5 1.5q7 1 17 3.5t21 5.5q-9 14 -18 38t-14 47q-4 19 -6.5 38.5t-5 36t-3.5 28t-2 16.5q-2 8 -5.5 13.5t3.5 7.5q11 2 19 -2.5t10 -15.5 q2 -12 3 -40.5t5 -59.5q6 -45 16 -68.5t18 -30.5q12 26 29 56t35 57t36 48.5t33 31.5q6 5 12 5t9.5 -2.5t4 -6t-2.5 -6.5z" />
<glyph unicode="&#xa6;" horiz-adv-x="209" d="M138 295q2 3 5 6q4 4 9 3q1 0 -2 -9t-7.5 -20.5t-9.5 -22t-7 -12.5q-1 -1 -6 -1.5t-10 2t-7.5 8t0.5 15.5q2 7 9.5 28.5t17.5 49t21.5 59t21.5 59t17.5 47.5t10.5 26q4 10 10.5 12t11.5 -1t7 -10.5t-2 -17.5q-5 -9 -17.5 -30.5t-29.5 -71.5q-9 -25 -16.5 -46.5 t-13.5 -37.5q-7 -19 -13 -35zM77 168q4 7 10.5 8.5t12 -1t9.5 -7.5t3 -9q-7 -15 -16 -40t-18.5 -54.5t-18.5 -59.5t-16.5 -55.5t-12.5 -43.5t-5 -22q-1 -7 -4.5 -12t-7.5 -7t-7.5 -0.5t-4.5 7.5q-1 4 3.5 25.5t12 52t17 66t18 67t15.5 55t10 30.5z" />
<glyph unicode="&#xa7;" horiz-adv-x="406" d="M290 515q15 -22 17.5 -35t2.5 -19q-2 -9 -3 -14t-13 -2t-11 14.5t1 18.5q-2 8 -5.5 16t-20.5 6q-13 0 -40.5 -13t-64.5 -42q-21 -17 -42 -37.5t-37.5 -41t-28 -39t-13.5 -31.5q-3 -14 13.5 -18.5t38.5 -4.5q14 0 28 1t22 3q16 3 39.5 11t50.5 16t56 14t56 6 q10 0 20.5 -0.5t17.5 -3.5t10.5 -8.5t0.5 -15.5t-8.5 -21.5t-12 -23t-13 -21t-10.5 -15.5q13 -8 18 -21t0 -32q-10 -37 -35 -72.5t-57 -77.5q-17 -21 -34 -40.5t-34 -35t-33 -25.5t-29 -11q-12 -1 -19.5 6t-11 17t-2.5 20.5t7 16.5q13 12 18.5 5t-1.5 -14q-5 -6 -2 -16 t11 -12q7 -1 18.5 6t25.5 19.5t30.5 29.5t32.5 38q16 20 31.5 41t28.5 41.5t21.5 39t10.5 33.5q3 21 -13 26t-42 4q-21 0 -50 -9.5t-58 -22t-54 -25.5t-38 -21q-14 -8 -28 -8q-20 0 -32 14t-1 42q11 23 28 42.5t33 31.5q-8 0 -12 1q-32 3 -45.5 15.5t-13.5 31.5q0 21 16 51 q13 25 36.5 51t51.5 49.5t57 42t55 30.5q20 8 38 9t26 -11zM252 289q-29 -7 -63 -19t-67 -19q-8 -7 -18.5 -16.5t-21 -20.5t-20 -22.5t-15.5 -20.5q-11 -20 -4.5 -28t38.5 9q17 7 38.5 18.5t46.5 23t52 21t55 12.5q23 2 43 -3q3 4 9 12.5t12.5 18.5t12 19t7.5 15q1 7 -7 9.5 t-21 2.5q-18 0 -40.5 -4t-36.5 -8z" />
<glyph unicode="&#xa8;" horiz-adv-x="153" d="M73 531q-5 -9 -15.5 -13t-16.5 1q-3 1 -7 5t-6 8.5t-1 9t8 6.5q5 2 12 1t13 -4t10 -7t3 -7zM84 510q-2 9 5.5 13t20.5 2q11 -5 15.5 -16.5t-6.5 -18.5q-9 -5 -21 2t-14 18z" />
<glyph unicode="&#xa9;" horiz-adv-x="426" d="M204 474q33 12 68 12q36 0 67 -12.5t48 -34.5q17 -26 17 -64q0 -42 -20 -88t-52 -83q-40 -42 -85 -67.5t-95 -25.5q-27 0 -55 9q-42 14 -57 44t-15 62q0 19 4 36.5t10 31.5q8 17 24.5 41t35.5 47q0 26 30 50.5t75 41.5zM210 450q1 -3 0 -7q-2 -8 -15 -16 q-10 -7 -30.5 -23.5t-42.5 -37.5h1q11 -11 3.5 -14.5t-16.5 3.5q-10 -10 -18.5 -19.5t-15.5 -18.5q-12 -18 -21 -42.5t-9 -49.5q0 -22 8.5 -41t30.5 -32q13 -7 29 -11t35 -4q40 0 85.5 19.5t85.5 67.5q36 42 51.5 81.5t15.5 69.5q0 37 -18 55t-42 25.5t-50 7.5 q-19 0 -37.5 -3.5t-33.5 -8.5q1 0 1.5 -0.5t1.5 -0.5h1zM285 352q0 5 -5.5 6.5t-31.5 -6.5q-12 -3 -26 -9.5t-27.5 -14.5t-25 -16.5t-17.5 -17.5q-13 -16 -13 -28q0 -20 42 -21q26 -2 45.5 3t32.5 14q11 9 19 8.5t1 -14.5q-3 -5 -13 -12.5t-25 -13.5t-34 -9t-41 0 q-28 5 -39.5 15.5t-11.5 24.5q0 9 4.5 19t12.5 20q12 15 30 28.5t38 24.5t39 18.5t32 9.5q28 2 39 -12.5t-4 -36.5q-9 -14 -19.5 -13.5t-12.5 7.5q-2 8 4.5 14.5t6.5 11.5z" />
<glyph unicode="&#xaa;" horiz-adv-x="215" d="M122 289q-9 -2 -25.5 -8t-35.5 -26q-9 -9 -15.5 -19t-9.5 -18.5t-1.5 -13.5t9.5 -2q12 4 27.5 20.5t29.5 35t25 34t13 17.5q5 7 15 1.5t8 -18.5q-2 -7 -8.5 -25t-6.5 -36q0 -10 3 -18t12 -13q10 -5 20.5 -2t20.5 9.5t18.5 14.5t13.5 13q8 8 14 7t-4 -18q-3 -6 -13 -16 t-23.5 -18.5t-29 -11.5t-30.5 5q-14 8 -19 20.5t-5 25.5q0 6 0.5 11.5t1.5 10.5t3 9q-13 -17 -26 -32q-11 -13 -24.5 -26t-27.5 -19q-20 -9 -30.5 -1t-8.5 25t10.5 35.5t21.5 33t29 24t33 8.5q14 -1 17.5 -9t-2.5 -10zM18 148q3 3 10.5 8t18.5 10.5t24 9t27 3.5 q17 0 28.5 -2t18.5 -5t11.5 -5t8.5 -2q3 0 4.5 -3t1 -6.5t-3 -6.5t-6.5 -2q-8 1 -27 8t-42 3q-26 -4 -41.5 -12.5t-23.5 -13.5q-7 -6 -10.5 3t1.5 13z" />
<glyph unicode="&#xab;" horiz-adv-x="272" d="M149 430q-6 -4 -22.5 -26t-34.5 -48q-21 -30 -45 -68q12 -37 23 -67q9 -26 18.5 -48.5t16.5 -26.5q8 -5 12 -11.5t3 -12t-6 -8t-15 2.5q-10 3 -22.5 26t-24 50t-20.5 51t-11 29q-7 14 -3 25t15 25q5 6 18.5 25t29 39.5t30 38t20.5 21.5t11.5 3.5t8.5 -4t3 -8.5t-5 -8z M250 415q-2 -6 -7 -12t-7 -8q-9 -10 -21.5 -28.5t-23.5 -36.5q-13 -21 -28 -45q12 -32 23 -59q9 -23 18 -45t14 -30q11 -13 5.5 -25t-16.5 -4q-9 7 -20.5 28t-22.5 44.5t-19.5 44t-10.5 26.5q-6 13 -2.5 24t14.5 25q5 6 17 23.5t25 36.5t24.5 35t17.5 21q11 8 19 2t1 -17z " />
<glyph unicode="&#xac;" horiz-adv-x="390" d="M46 316q5 -7 18.5 -10.5t33.5 -1.5q18 2 50 10.5t66 18t63.5 17t43.5 7.5q29 0 35.5 -8t-0.5 -21q-3 -6 -13 -23t-19.5 -36.5t-15.5 -38t-1 -27.5q14 -32 -6 -32q-5 1 -10 6.5t-9 14.5t-5 20t4 23q4 12 10 26.5t11 28t8.5 23.5t2.5 12q-1 3 -27 -2.5t-60 -14t-66 -17 t-45 -10.5q-17 -3 -33 -2t-29 5t-21 10.5t-9 15.5q-2 9 0 13t6 5t9 -2.5t8 -9.5z" />
<glyph unicode="&#xae;" horiz-adv-x="465" d="M218 464q33 13 70 13q35 0 65.5 -12.5t46.5 -35.5q16 -26 16 -64q0 -42 -19.5 -87.5t-51.5 -80.5q-39 -43 -85 -69.5t-96 -26.5q-27 0 -54 9q-42 14 -56.5 44.5t-14.5 62.5q0 19 4 36.5t9 30.5q8 17 24 40t35 46q0 26 29.5 52t77.5 42zM223 444q1 -4 -1 -8t-5 -9t-11 -10 q-10 -7 -29.5 -23.5t-41.5 -36.5h1q16 -11 24 -14.5t17 -3.5q11 0 8 -5.5t-17 -5.5q-8 0 -21 4.5t-24 12.5q-9 -10 -17.5 -19.5t-15.5 -18.5q-13 -19 -22.5 -43t-9.5 -49q0 -21 9 -40t32 -33q12 -7 27.5 -11t34.5 -4q40 0 86 20t87 67q36 42 51.5 81.5t15.5 69.5 q0 37 -18 55q-18 19 -43 26t-51 7q-18 0 -35 -2.5t-31 -6.5zM194 388q5 2 20.5 2.5t33.5 0.5q17 0 33 -1t24 -4q21 -5 21 -21q0 -13 -16 -35q-22 -28 -48.5 -40.5t-43.5 -14.5q-7 -8 -2.5 -19.5t19.5 -17.5q10 -7 20 -7.5t19 1.5t16 5t12 4t7.5 -2t1.5 -7t-4 -8.5t-8 -6.5 q-8 -2 -23.5 -6t-31.5 -4q-10 0 -18.5 2t-16.5 8q-11 9 -14.5 19t-3.5 19q0 10 3 20q-10 -13 -17 -23q-6 -9 -11 -16t-3 -7q4 0 9 3.5t5 -3.5q0 -2 -4 -10t-10 -16.5t-14 -15.5t-15 -7q-7 1 -5.5 11t7.5 24t15.5 30t19.5 30q10 15 20.5 30.5t19.5 28.5q11 15 21 28 q-7 -1 -13 -2q-5 -1 -11 -1h-11q-5 -1 -8 3.5t-3 10t2 10.5t6 5zM215 304q5 -2 10 -2q11 0 25 5q11 4 21.5 11.5t18 15t10.5 14.5t-1 11q-5 3 -12.5 4t-14.5 1q-9 0 -17 -2z" />
<glyph unicode="&#xaf;" horiz-adv-x="277" d="M211 524q-10 0 -21 1q-9 1 -21 1.5t-24 0.5h-16t-15 -1q-18 -2 -27.5 -5t-15.5 -5t-11 -3t-12 1q-13 2 -16 10t10 15q14 8 32.5 11.5t48.5 5.5q37 2 69.5 -3t48.5 -10q13 -2 15.5 -10t-11.5 -15q-7 -2 -12.5 -1.5t-10.5 2.5t-11 5z" />
<glyph unicode="&#xb0;" horiz-adv-x="174" d="M40 400q6 11 19.5 20.5t26.5 10.5q14 1 28 -3t27 -19q13 -18 13 -32t-12 -29q-11 -14 -29.5 -20.5t-37.5 -6.5q-9 0 -17.5 1.5t-14.5 5.5q-8 5 -10.5 12.5t-2.5 16.5q0 19 8 33q-2 5 2 10zM60 384q-7 -7 -9.5 -14t-2.5 -13q0 -19 35 -18q15 1 32.5 11.5t19.5 23.5 q2 11 -8 23.5t-24 14.5q-13 2 -23.5 -3t-17.5 -12q2 -2 2.5 -5t-4.5 -8z" />
<glyph unicode="&#xb1;" horiz-adv-x="401" d="M180 226q0 -11 3 -19.5t-3 -15.5q-7 -7 -15.5 -3t-10.5 18q-5 18 3 43.5t22 63.5q-15 0 -33 -2t-35.5 -3.5t-33 -2t-25.5 1.5q-11 2 -14 7t0 10t10 8.5t16 3.5h125q20 41 39.5 71.5t32.5 38.5q5 4 10.5 4t8.5 -3t2.5 -9t-7.5 -12q-10 -10 -24.5 -33t-31.5 -57 q17 0 36.5 0.5t38.5 1t34 1t23 0.5q7 -1 10.5 -5t3.5 -8.5t-4 -7.5t-10 -2q-6 0 -23 -0.5t-38.5 -1t-44 -1t-38.5 -0.5q-19 -35 -23 -56t-4 -31zM314 131q-5 0 -12 1t-17 1.5t-25 0.5h-19.5t-23.5 -1q-18 -1 -46.5 -4.5l-57 -7t-52.5 -6t-31 -0.5q-13 2 -16 10t10 15 q7 4 31 7t55 5.5t63 4.5t55 4q37 2 68.5 -2t47.5 -9q13 -2 15.5 -10t-11.5 -15q-7 -2 -12.5 -1.5t-10.5 2.5t-11 5z" />
<glyph unicode="&#xb2;" horiz-adv-x="227" d="M78 396q3 4 12 10.5t20 11.5t24 8t25 0q14 -4 19.5 -12.5t5.5 -19.5q0 -13 -5.5 -26.5t-10.5 -21.5q-4 -8 -14 -24q25 -10 37 -25t12 -23q0 -9 -8 -11t-12 5q-6 14 -17.5 22.5t-25.5 12.5q-17 -20 -38 -38t-42 -23q-17 -5 -27.5 4t-10.5 23q0 8 3 16t11 16q15 15 37 23 t51 5q2 -1 7 -1q9 11 16 23.5t12 35.5q3 11 -4 15.5t-18 3.5t-24 -7.5t-20 -17.5q-2 -5 -6 -5t-7 2.5t-4 7t2 10.5zM81 306q-24 -9 -35 -22.5t0 -18.5q4 -1 12.5 3.5t18.5 11t20 14.5t16 14q-10 1 -18.5 0t-13.5 -2z" />
<glyph unicode="&#xb3;" horiz-adv-x="212" d="M75 414q7 7 21.5 13.5t36.5 6.5t37.5 -11.5t8.5 -31.5q-2 -6 -7.5 -11.5l-10.5 -10.5q-6 -5 -14 -10q6 -4 10 -8t7.5 -9.5t3.5 -11.5q1 -15 -8.5 -27.5t-23.5 -21.5t-30 -15t-28 -9q-29 -8 -41 -6.5t-14 9.5q0 9 11 16t18 7q3 0 3 -2v-4t1.5 -3t6.5 0q9 1 21 4.5t24 8.5 t21.5 12.5t12.5 17.5q4 10 1.5 15.5t-8 7.5t-12 2t-8.5 -1q-2 0 -12.5 -4t-21.5 -4q-11 -2 -16 6t10 17q10 6 23 6h12q9 4 17 9q7 4 14 9.5t12 12.5q7 8 1.5 14.5t-18.5 6.5q-15 1 -23 -2.5t-12.5 -8t-7.5 -8.5t-7 -4q-8 0 -13 8t2 15z" />
<glyph unicode="&#xb4;" horiz-adv-x="158" d="M26 528q8 -2 22 0.5t29 7.5t28 11t19 9q8 7 12 3.5t-1 -12.5q-3 -5 -15 -13t-27 -15.5t-30.5 -13t-25.5 -6.5q-9 -1 -14.5 3.5t-7 10.5t0.5 11t10 4z" />
<glyph unicode="&#xb5;" horiz-adv-x="244" d="M-232 -31q15 9 41.5 41t55.5 72.5t57 81.5t45 68q18 28 37 59.5t35.5 59.5t28.5 48.5t15 26.5q7 11 10 24t12 18q4 2 10 2.5t11 -2.5t7 -9t-2 -17q-4 -7 -15 -25.5t-25 -42t-28.5 -49t-24.5 -47t-13.5 -36t4.5 -15.5q14 -3 31 12t34 37.5t32.5 48.5t27.5 44 q24 38 37.5 61.5t20.5 31.5q2 4 9 5t13.5 -2t10 -8.5t-0.5 -14.5q-5 -10 -14 -38t-17.5 -59t-13 -57t0.5 -32q5 -2 12 -2t11 5q9 7 11.5 0.5t-2.5 -14.5q-3 -3 -8.5 -7.5t-12 -7t-14 -1.5t-14.5 7q-8 6 -11 16.5t-3 24.5q0 15 3 32t7 31q4 17 10 32q-23 -37 -45 -70 q-19 -28 -40 -54.5t-37 -37.5q-12 -9 -21.5 -12.5t-17.5 -3.5q-11 0 -17.5 5t-10.5 11q-4 7 -6 17q-14 -21 -29 -44q-13 -20 -29.5 -45t-33.5 -50q-18 -26 -37 -52.5t-37.5 -48.5t-35.5 -35t-30 -12q-11 0 -17 4t-8.5 9.5t-1 10t6.5 5.5q6 0 10.5 -2t15.5 2z" />
<glyph unicode="&#xb6;" horiz-adv-x="478" d="M327 479q-3 -2 -16 -17.5t-29.5 -36.5t-35 -45t-32.5 -44q-6 -8 -11.5 -14.5t-10.5 -14.5q0 -1 -1 -2q-2 -2 -3 -4t-3 -4q-34 -46 -64 -89.5t-52 -78.5t-34 -58t-10 -27q5 -5 13.5 2t13.5 12q4 4 7 -5.5t-7 -17.5q-11 -11 -20 -17.5t-24 -0.5q-11 5 -5 34t37 80 q20 31 49.5 74t58.5 85q-9 1 -21 2t-29 4q-27 3 -45.5 12t-29.5 20.5t-15 23.5t-3 22q5 29 36.5 62.5t79.5 59.5q21 12 47.5 21.5t55 16.5t58.5 11t58 4q18 0 35.5 -1.5t32.5 -5.5q29 -6 44.5 -22t13.5 -36q0 -4 -4 -7.5t-9 -4t-9 2.5t-4 12q2 11 -14 20.5t-38 14.5 q-17 4 -43 4q-56 0 -140 -24q-59 -16 -96 -41t-63 -58q-15 -21 -15 -35q0 -20 17.5 -30t34.5 -13q35 -8 54 -8.5t31 2.5q12 17 23 31.5t20 26.5q33 42 58.5 73t34.5 37q5 3 11 3t10 -2t5 -4.5t-3 -4.5zM455 441q-5 -3 -19 -17.5t-33 -34.5t-40 -43t-39 -44t-43.5 -54.5 t-49.5 -66.5t-41.5 -58.5t-19.5 -29.5q-3 -7 -2.5 -9.5t1 -4t0.5 -4t-4 -8.5q-7 -14 -17 -31t-15 -21q-2 -5 -6.5 -3.5t-8 6t-5 11.5t1.5 15q3 7 16 29.5t31 50.5t38 57t37 51q11 14 28.5 35.5t38.5 46t42.5 49.5t40.5 45.5t33 34t20 15.5q15 5 19 -2t-4 -15z" />
<glyph unicode="&#xb7;" horiz-adv-x="123" d="M32 208q-4 2 -4.5 5.5t-0.5 6.5q0 4 2 8l3 3q2 7 5.5 11t12.5 4q4 -1 8 -6.5t5.5 -12.5t0.5 -12.5t-5 -6.5q-9 -2 -14.5 -5.5t-12.5 5.5z" />
<glyph unicode="&#xb8;" horiz-adv-x="123" d="M78 141q0 5 4 8t9 3t9 -3.5t4 -10.5q0 -11 -6.5 -28t-17 -33.5t-24.5 -29t-28 -14.5q-11 0 -14.5 6t-3 12.5t5 10t10.5 -2.5q4 -5 12.5 3t17.5 22t15.5 30t6.5 27z" />
<glyph unicode="&#xb9;" horiz-adv-x="160" d="M91 427q5 6 11.5 7.5t11 0t6 -6t-1.5 -10.5q-3 -5 -7.5 -9t-9.5 -10t-10 -16t-11 -26q-5 -17 -7.5 -31t-4.5 -24q-2 -11 -2 -20q2 2 5 3q6 2 6 -6q0 -9 -5.5 -18.5t-12.5 -4.5q-13 3 -13 30q0 8 1 17.5t4 21.5q2 11 5.5 25t8.5 28t11.5 27t14.5 22z" />
<glyph unicode="&#xba;" horiz-adv-x="208" d="M224 237q13 13 19.5 8.5t-2.5 -18.5q-6 -9 -17.5 -17.5t-26 -15t-30 -11t-30.5 -4.5q-17 0 -30 7q-20 -14 -41.5 -24t-37.5 -16q-17 -6 -26.5 3t-7.5 26q2 9 8.5 26t18 36.5t26.5 39t34 32.5q10 5 16.5 -3.5t6.5 -15.5q10 20 20 30q5 7 14 11.5t18 4.5q10 0 17 -8t6 -28 q-1 -32 -16.5 -57t-35.5 -41q20 -5 49 6t48 29zM101 285q-5 -4 -20 -15.5t-32 -33.5q-9 -11 -16 -22.5t-10.5 -21t-4 -16t4.5 -7.5q5 0 25.5 8.5t43.5 23.5q-8 14 -4.5 38t14.5 46h-1zM-14 101q4 3 14.5 9t25.5 11.5t32.5 10t35.5 6.5q29 3 49.5 -0.5t31.5 -8.5 q8 -4 2.5 -12t-16.5 -7q-11 2 -27.5 7t-44.5 0q-38 -6 -61.5 -16.5t-32.5 -15.5q-11 -4 -14.5 2t5.5 14zM121 225q14 14 23 29t13 27.5t3 21t-7 9.5q-6 2 -15 -8.5t-16.5 -26.5t-11.5 -33t0 -27q0 -2 1 -2q2 2 5 4.5t5 5.5z" />
<glyph unicode="&#xbb;" horiz-adv-x="272" d="M119 430q-5 3 -5 8t3 8.5t8.5 4t11.5 -3.5t20.5 -21.5t30 -38t29 -39.5t18.5 -25q11 -14 15 -25t-3 -25q-2 -5 -11 -29t-20.5 -51t-24 -50t-22.5 -26q-10 -5 -15 -2.5t-6 8t3 12t12 11.5q6 4 16 26.5t19 48.5q11 30 23 67q-24 38 -45 68q-18 26 -35 48t-22 26zM18 415 q-7 11 1 17t19 -2q6 -5 17.5 -21t24.5 -35t25 -36.5t17 -23.5q11 -14 14.5 -25t-2.5 -24q-2 -6 -10.5 -26.5t-19.5 -44t-22.5 -44.5t-20.5 -28q-11 -8 -16.5 4t5.5 25q4 8 13.5 30t18.5 45q11 27 23 59q-15 24 -28 45q-11 18 -24 36.5t-21 28.5q-2 2 -7 8t-7 12z" />
<glyph unicode="&#xbc;" horiz-adv-x="365" d="M253 131q0 -3 1 -2.5t2.5 2t4 3t4.5 0.5t2 -5.5t-2 -9.5t-4.5 -9.5t-4.5 -5.5q-11 -9 -18.5 0t-7.5 20q1 11 5 24.5t9 28.5q-17 0 -31 1t-23 4q-18 5 -22.5 20t10.5 32q7 8 22.5 18.5t33 19.5t32 15.5t20.5 7.5q2 10 2 15q-2 13 8 11.5t12 -14.5q1 -8 0 -15t-4 -17 t-8.5 -23.5t-13.5 -33.5q-2 -6 -4.5 -11t-4.5 -10q15 0 28.5 0.5t18.5 -0.5q6 -1 8.5 -5t3 -8t-2 -6.5t-6.5 -1.5q-5 1 -22 1h-36q-15 -37 -12 -46zM299 409q-4 -3 -18 -15.5t-32.5 -30t-39 -38.5t-37.5 -40q-17 -20 -35.5 -40.5t-35 -38t-28 -29.5t-12.5 -14 q-13 -15 -13 -23.5t-7 -8.5t-11.5 9.5t8.5 25.5q6 7 20 24t33 38.5t40.5 45t42.5 45.5q44 46 69 76t39 35q15 6 19.5 -4t-2.5 -17zM91 427q5 6 11.5 7.5t11 0t6 -6t-1.5 -10.5q-3 -5 -7.5 -9t-9.5 -10t-10 -16t-11 -26q-5 -17 -7.5 -31t-4.5 -24q-2 -11 -2 -20q2 2 5 3 q6 2 6 -6q0 -9 -5.5 -18.5t-12.5 -4.5q-13 3 -13 30q0 8 1 17.5t4 21.5q2 11 5.5 25t8.5 28t11.5 27t14.5 22zM193 208q4 -7 21 -9t38 -2q4 9 7.5 18t6.5 17q3 9 7 19t7 20q-7 -3 -23 -10.5t-31.5 -17t-26 -19t-6.5 -16.5z" />
<glyph unicode="&#xbd;" horiz-adv-x="373" d="M216 266q3 4 12 10.5t20 11.5t24 8t25 0q14 -4 19.5 -12.5t5.5 -19.5q0 -13 -5.5 -26.5t-10.5 -21.5q-4 -8 -14 -24q25 -10 37 -25t12 -23q0 -9 -8 -11t-12 5q-6 14 -17.5 22.5t-25.5 12.5q-17 -20 -38 -38t-42 -23q-17 -5 -27.5 4t-10.5 23q0 8 3 16t11 16q15 15 37 23 t51 5q2 -1 7 -1q9 11 16 23.5t12 35.5q3 11 -4 15.5t-18 3.5t-24 -7.5t-20 -17.5q-2 -5 -6 -5t-7 2.5t-4 7t2 10.5zM299 409q-4 -3 -18 -15.5t-32.5 -30t-39 -38.5t-37.5 -40q-17 -20 -35.5 -40.5t-35 -38t-28 -29.5t-12.5 -14q-13 -15 -13 -23.5t-7 -8.5t-11.5 9.5 t8.5 25.5q6 7 20 24t33 38.5t40.5 45t42.5 45.5q44 46 69 76t39 35q15 6 19.5 -4t-2.5 -17zM91 427q5 6 11.5 7.5t11 0t6 -6t-1.5 -10.5q-3 -5 -7.5 -9t-9.5 -10t-10 -16t-11 -26q-5 -17 -7.5 -31t-4.5 -24q-2 -11 -2 -20q2 2 5 3q6 2 6 -6q0 -9 -5.5 -18.5t-12.5 -4.5 q-13 3 -13 30q0 8 1 17.5t4 21.5q2 11 5.5 25t8.5 28t11.5 27t14.5 22zM219 176q-24 -9 -35 -22.5t0 -18.5q4 -1 12.5 3.5t18.5 11t20 14.5t16 14q-10 1 -18.5 0t-13.5 -2z" />
<glyph unicode="&#xbe;" horiz-adv-x="380" d="M275 131q0 -3 1 -2.5t2.5 2t4 3t4.5 0.5t2 -5.5t-2 -9.5t-4.5 -9.5t-4.5 -5.5q-11 -9 -18.5 0t-7.5 20q1 11 5 24.5t9 28.5q-17 0 -31 1t-23 4q-18 5 -22.5 20t10.5 32q7 8 22.5 18.5t33 19.5t32 15.5t20.5 7.5q2 10 2 15q-2 13 8 11.5t12 -14.5q1 -8 0 -15t-4 -17 t-8.5 -23.5t-13.5 -33.5q-2 -6 -4.5 -11t-4.5 -10q15 0 28.5 0.5t18.5 -0.5q6 -1 8.5 -5t3 -8t-2 -6.5t-6.5 -1.5q-5 1 -22 1h-36q-15 -37 -12 -46zM75 414q7 7 21.5 13.5t36.5 6.5t37.5 -11.5t8.5 -31.5q-2 -6 -7.5 -11.5l-10.5 -10.5q-6 -5 -14 -10q6 -4 10 -8t7.5 -9.5 t3.5 -11.5q1 -15 -8.5 -27.5t-23.5 -21.5t-30 -15t-28 -9q-29 -8 -41 -6.5t-14 9.5q0 9 11 16t18 7q3 0 3 -2v-4t1.5 -3t6.5 0q9 1 21 4.5t24 8.5t21.5 12.5t12.5 17.5q4 10 1.5 15.5t-8 7.5t-12 2t-8.5 -1q-2 0 -12.5 -4t-21.5 -4q-11 -2 -16 6t10 17q10 6 23 6h12 q9 4 17 9q7 4 14 9.5t12 12.5q7 8 1.5 14.5t-18.5 6.5q-15 1 -23 -2.5t-12.5 -8t-7.5 -8.5t-7 -4q-8 0 -13 8t2 15zM323 400q-4 -3 -18 -15.5t-32.5 -30t-39 -38.5t-37.5 -40q-17 -20 -35.5 -40.5t-35 -38t-28 -29.5t-12.5 -14q-13 -15 -13 -23.5t-7 -8.5t-11.5 9.5 t8.5 25.5q6 7 20 24t33 38.5t40.5 45t42.5 45.5q44 46 69 76t39 35q15 6 19.5 -4t-2.5 -17zM215 208q4 -7 21 -9t38 -2q4 9 7.5 18t6.5 17q3 9 7 19t7 20q-7 -3 -23 -10.5t-31.5 -17t-26 -19t-6.5 -16.5z" />
<glyph unicode="&#xbf;" horiz-adv-x="365" d="M150 -48q1 3 4 6q5 5 13 6q11 1 15.5 -6t-0.5 -15q-3 -4 -13.5 -9.5t-24.5 -11t-30.5 -10t-30.5 -6.5q-12 -2 -25 -2t-23 3t-15.5 9.5t-3.5 18.5t17.5 32.5t37 43.5t46 46t43.5 40q54 46 79.5 82.5t25.5 45.5q0 4 -6.5 -0.5t-10.5 -2.5q-5 2 -3.5 9t6.5 11q4 3 10 5.5 t11.5 1.5t9.5 -6.5t4 -17.5q0 -13 -13.5 -34t-33 -44t-41.5 -45t-38 -36q-18 -15 -37 -34t-35.5 -37.5t-28.5 -34.5t-14 -25q-1 -5 4 -6.5t13 -1t18 2t19 3.5t18 5t17 6q9 4 16 8zM328 334q5 -4 5 -12q0 -4 -2 -8l-3 -3q-2 -7 -9.5 -18t-16.5 -11q-5 1 -8.5 6.5t-5 12.5 t-0.5 12.5t5 6.5t9 5t9.5 7.5t9 4.5t7.5 -3z" />
<glyph unicode="&#xc0;" horiz-adv-x="545" d="M428 482q-7 1 -16 2.5t-22 1.5q-14 0 -31 -3.5t-37 -11.5q-35 -15 -65 -33.5t-57.5 -42.5t-54 -53.5t-53.5 -67.5q-26 -37 -44.5 -73t-28 -65t-10.5 -48t9 -22q6 -2 20.5 -1t42.5 14.5t71 43.5t106 87q46 43 76 80.5t49 66.5t30 50.5t20 33.5q12 16 26 16q11 0 14 -11.5 t-11 -30.5q-10 -14 -23.5 -33.5t-27 -43.5t-25 -51t-17.5 -56q-3 -21 -3 -37q0 -32 10 -44t24 -12t30 7.5t30 17.5q29 19 54 36.5t51 41.5q20 17 20.5 7t-20.5 -31q-22 -22 -48.5 -40.5t-43.5 -29.5q-20 -14 -40 -21.5t-37 -7.5q-20 0 -34 13t-16 44q-2 20 -0.5 37t3.5 29 q3 14 6 26q-51 -49 -101 -92q-21 -18 -44.5 -37t-47 -35.5t-46.5 -30t-42 -21.5q-31 -13 -51 -13q-17 0 -26.5 10t-9.5 33q0 13 5 38q5 29 20.5 65.5t39.5 75.5t56 77.5t71 72.5q77 67 134 91t108 17q15 -1 20.5 -7.5t4.5 -13t-6.5 -11.5t-11.5 -4zM531 535q9 -5 1.5 -15.5 t-18.5 -8.5q-6 1 -15.5 10.5t-18.5 22t-16.5 25.5t-10.5 21q-3 6 -1.5 10t5.5 4.5t7.5 -1.5t3.5 -8q0 -4 8.5 -13.5t19 -19t21 -17.5t14.5 -10z" />
<glyph unicode="&#xc1;" horiz-adv-x="545" d="M428 482q-7 1 -16 2.5t-22 1.5q-14 0 -31 -3.5t-37 -11.5q-35 -15 -65 -33.5t-57.5 -42.5t-54 -53.5t-53.5 -67.5q-26 -37 -44.5 -73t-28 -65t-10.5 -48t9 -22q6 -2 20.5 -1t42.5 14.5t71 43.5t106 87q46 43 76 80.5t49 66.5t30 50.5t20 33.5q12 16 26 16q11 0 14 -11.5 t-11 -30.5q-10 -14 -23.5 -33.5t-27 -43.5t-25 -51t-17.5 -56q-3 -21 -3 -37q0 -32 10 -44t24 -12t30 7.5t30 17.5q29 19 54 36.5t51 41.5q20 17 20.5 7t-20.5 -31q-22 -22 -48.5 -40.5t-43.5 -29.5q-20 -14 -40 -21.5t-37 -7.5q-20 0 -34 13t-16 44q-2 20 -0.5 37t3.5 29 q3 14 6 26q-51 -49 -101 -92q-21 -18 -44.5 -37t-47 -35.5t-46.5 -30t-42 -21.5q-31 -13 -51 -13q-17 0 -26.5 10t-9.5 33q0 13 5 38q5 29 20.5 65.5t39.5 75.5t56 77.5t71 72.5q77 67 134 91t108 17q15 -1 20.5 -7.5t4.5 -13t-6.5 -11.5t-11.5 -4zM459 553q8 -2 22 0.5 t29 7.5t28 11t19 9q8 7 12 3.5t-1 -12.5q-3 -5 -15 -13t-27 -15.5t-30.5 -13t-25.5 -6.5q-9 -1 -14.5 3.5t-7 10.5t0.5 11t10 4z" />
<glyph unicode="&#xc2;" horiz-adv-x="545" d="M428 482q-7 1 -16 2.5t-22 1.5q-14 0 -31 -3.5t-37 -11.5q-35 -15 -65 -33.5t-57.5 -42.5t-54 -53.5t-53.5 -67.5q-26 -37 -44.5 -73t-28 -65t-10.5 -48t9 -22q6 -2 20.5 -1t42.5 14.5t71 43.5t106 87q46 43 76 80.5t49 66.5t30 50.5t20 33.5q12 16 26 16q11 0 14 -11.5 t-11 -30.5q-10 -14 -23.5 -33.5t-27 -43.5t-25 -51t-17.5 -56q-3 -21 -3 -37q0 -32 10 -44t24 -12t30 7.5t30 17.5q29 19 54 36.5t51 41.5q20 17 20.5 7t-20.5 -31q-22 -22 -48.5 -40.5t-43.5 -29.5q-20 -14 -40 -21.5t-37 -7.5q-20 0 -34 13t-16 44q-2 20 -0.5 37t3.5 29 q3 14 6 26q-51 -49 -101 -92q-21 -18 -44.5 -37t-47 -35.5t-46.5 -30t-42 -21.5q-31 -13 -51 -13q-17 0 -26.5 10t-9.5 33q0 13 5 38q5 29 20.5 65.5t39.5 75.5t56 77.5t71 72.5q77 67 134 91t108 17q15 -1 20.5 -7.5t4.5 -13t-6.5 -11.5t-11.5 -4zM464 560q-9 -3 -19 -5.5 t-19 -1.5q-8 0 -11.5 4t-3.5 8t2.5 7.5t7.5 3.5q23 -1 39.5 5.5t30.5 8.5q14 5 14 -14q0 -14 2 -25t22 -16q7 -2 6.5 -8.5t-9.5 -8.5q-12 -2 -21 4t-14.5 14.5t-7 17.5t1.5 13z" />
<glyph unicode="&#xc3;" horiz-adv-x="545" d="M428 482q-7 1 -16 2.5t-22 1.5q-14 0 -31 -3.5t-37 -11.5q-35 -15 -65 -33.5t-57.5 -42.5t-54 -53.5t-53.5 -67.5q-26 -37 -44.5 -73t-28 -65t-10.5 -48t9 -22q6 -2 20.5 -1t42.5 14.5t71 43.5t106 87q46 43 76 80.5t49 66.5t30 50.5t20 33.5q12 16 26 16q11 0 14 -11.5 t-11 -30.5q-10 -14 -23.5 -33.5t-27 -43.5t-25 -51t-17.5 -56q-3 -21 -3 -37q0 -32 10 -44t24 -12t30 7.5t30 17.5q29 19 54 36.5t51 41.5q20 17 20.5 7t-20.5 -31q-22 -22 -48.5 -40.5t-43.5 -29.5q-20 -14 -40 -21.5t-37 -7.5q-20 0 -34 13t-16 44q-2 20 -0.5 37t3.5 29 q3 14 6 26q-51 -49 -101 -92q-21 -18 -44.5 -37t-47 -35.5t-46.5 -30t-42 -21.5q-31 -13 -51 -13q-17 0 -26.5 10t-9.5 33q0 13 5 38q5 29 20.5 65.5t39.5 75.5t56 77.5t71 72.5q77 67 134 91t108 17q15 -1 20.5 -7.5t4.5 -13t-6.5 -11.5t-11.5 -4zM418 567q3 4 10 7.5 t15 5.5t15.5 1.5t11.5 -3.5q6 -2 8 -8.5t3 -14t2.5 -14t4.5 -9.5q4 -2 11 -1t14 4t13 7t8 7q2 4 7 -2.5t-4 -14.5q-9 -7 -25.5 -14t-29.5 -1q-7 2 -10 8t-5 12.5t-3.5 12.5t-4.5 8q-3 3 -8 2t-10.5 -4t-10 -7t-6.5 -6t-5.5 -1t-5 4.5t-1 8.5t5.5 12z" />
<glyph unicode="&#xc4;" horiz-adv-x="545" d="M428 482q-7 1 -16 2.5t-22 1.5q-14 0 -31 -3.5t-37 -11.5q-35 -15 -65 -33.5t-57.5 -42.5t-54 -53.5t-53.5 -67.5q-26 -37 -44.5 -73t-28 -65t-10.5 -48t9 -22q6 -2 20.5 -1t42.5 14.5t71 43.5t106 87q46 43 76 80.5t49 66.5t30 50.5t20 33.5q12 16 26 16q11 0 14 -11.5 t-11 -30.5q-10 -14 -23.5 -33.5t-27 -43.5t-25 -51t-17.5 -56q-3 -21 -3 -37q0 -32 10 -44t24 -12t30 7.5t30 17.5q29 19 54 36.5t51 41.5q20 17 20.5 7t-20.5 -31q-22 -22 -48.5 -40.5t-43.5 -29.5q-20 -14 -40 -21.5t-37 -7.5q-20 0 -34 13t-16 44q-2 20 -0.5 37t3.5 29 q3 14 6 26q-51 -49 -101 -92q-21 -18 -44.5 -37t-47 -35.5t-46.5 -30t-42 -21.5q-31 -13 -51 -13q-17 0 -26.5 10t-9.5 33q0 13 5 38q5 29 20.5 65.5t39.5 75.5t56 77.5t71 72.5q77 67 134 91t108 17q15 -1 20.5 -7.5t4.5 -13t-6.5 -11.5t-11.5 -4zM463 571q-5 -9 -15.5 -13 t-16.5 1q-3 1 -7 5t-6 8.5t-1 9t8 6.5q5 2 12 1t13 -4t10 -7t3 -7zM474 550q-2 9 5.5 13t20.5 2q11 -5 15.5 -16.5t-6.5 -18.5q-9 -5 -21 2t-14 18z" />
<glyph unicode="&#xc5;" horiz-adv-x="545" d="M428 482q-7 1 -16 2.5t-22 1.5q-14 0 -31 -3.5t-37 -11.5q-35 -15 -65 -33.5t-57.5 -42.5t-54 -53.5t-53.5 -67.5q-26 -37 -44.5 -73t-28 -65t-10.5 -48t9 -22q6 -2 20.5 -1t42.5 14.5t71 43.5t106 87q46 43 76 80.5t49 66.5t30 50.5t20 33.5q12 16 26 16q11 0 14 -11.5 t-11 -30.5q-10 -14 -23.5 -33.5t-27 -43.5t-25 -51t-17.5 -56q-3 -21 -3 -37q0 -32 10 -44t24 -12t30 7.5t30 17.5q29 19 54 36.5t51 41.5q20 17 20.5 7t-20.5 -31q-22 -22 -48.5 -40.5t-43.5 -29.5q-20 -14 -40 -21.5t-37 -7.5q-20 0 -34 13t-16 44q-2 20 -0.5 37t3.5 29 q3 14 6 26q-51 -49 -101 -92q-21 -18 -44.5 -37t-47 -35.5t-46.5 -30t-42 -21.5q-31 -13 -51 -13q-17 0 -26.5 10t-9.5 33q0 13 5 38q5 29 20.5 65.5t39.5 75.5t56 77.5t71 72.5q77 67 134 91t108 17q15 -1 20.5 -7.5t4.5 -13t-6.5 -11.5t-11.5 -4zM437 595q6 11 19.5 20.5 t26.5 10.5q14 1 28 -3t27 -19q13 -18 13 -32t-12 -29q-11 -14 -29.5 -20.5t-37.5 -6.5q-9 0 -17.5 1.5t-14.5 5.5q-8 5 -10.5 12.5t-2.5 16.5q0 19 8 33q-2 5 2 10zM457 579q-7 -7 -9.5 -14t-2.5 -13q0 -19 35 -18q15 1 32.5 11.5t19.5 23.5q2 11 -8 23.5t-24 14.5 q-13 2 -23.5 -3t-17.5 -12q2 -2 2.5 -5t-4.5 -8z" />
<glyph unicode="&#xc6;" horiz-adv-x="546" d="M578 514q-8 -1 -21 -2t-31.5 -6t-42 -16.5t-51.5 -33.5q-34 -26 -62 -55.5t-49 -60.5q29 8 53 12.5t41 5.5q25 1 39.5 -1.5t21 -6.5t6.5 -9.5t-3 -9.5q-2 -4 -10 -7t-17.5 -5.5t-18.5 -3.5t-15 -1q-5 1 -5 4.5t1 7.5t-1 6.5t-12 1.5q-13 -2 -40 -6.5t-57 -11.5 q-16 -27 -25 -51.5t-11 -45.5q-2 -31 19 -46.5t58 -15.5q21 0 41 4q38 7 67.5 19.5t51 25.5t37 25t26.5 18q19 13 24 4.5t-13 -21.5q-9 -8 -32 -23t-53.5 -31t-65.5 -29t-68 -15q-24 -1 -48 3.5t-41.5 16.5t-26 31t-0.5 48q5 18 12.5 37t18.5 39q-10 -2 -19.5 -4.5 t-17.5 -4.5l-45 -18q-14 -33 -25 -66t-11 -58q0 -27 15 -38q11 -8 25.5 -12t30.5 -4q25 0 47 7t33 15q9 6 13.5 6t5.5 -4t-2.5 -10t-10.5 -10q-8 -6 -35 -13.5t-58 -7.5q-20 0 -39.5 5t-33.5 16q-8 7 -12 19t-4 27q0 25 8 55.5t19 60.5q-26 -10 -54 -17t-53 -9 q-21 -21 -47 -45.5t-50 -45.5t-42 -36t-23 -18q-9 -5 -17 -3.5t-11 6t-0.5 11t14.5 13.5q10 4 25 16t33.5 28t39.5 35.5t42 39.5q-33 4 -44 10.5t-15 12.5q-7 6 -1.5 15t20.5 2q9 -5 23 -11t40 -6l34 34q15 15 36.5 39.5t45 52.5t47 57t43.5 54t34.5 44t19.5 26q7 9 13 10 t10.5 -2.5t6.5 -10t0 -13.5q-2 -5 -15 -28.5t-30 -56t-36 -70t-33 -70.5q-3 -6 -5.5 -12.5t-5.5 -13.5q21 7 42.5 13t41.5 11q24 39 56 76t68 66q24 19 41.5 31t32 19.5t27.5 11t27 4.5q11 2 21 -1t16.5 -8.5t7 -10.5t-6.5 -6zM192 346q31 66 49.5 103.5t21.5 42.5 q-5 -6 -27 -33t-50 -61.5t-57.5 -69t-48.5 -55.5q7 1 14.5 3t15.5 4q14 4 29 8.5t32 9.5q10 27 21 48z" />
<glyph unicode="&#xc7;" horiz-adv-x="410" d="M88 67q0 5 4 8t9 3t9 -3.5t4 -10.5q0 -11 -6.5 -28t-17 -33.5t-24.5 -29t-28 -14.5q-11 0 -14.5 6t-3 12.5t5 10t10.5 -2.5q4 -5 12.5 3t17.5 22t15.5 30t6.5 27zM426 232q7 7 13 9t9 -0.5t2.5 -8t-6.5 -12.5q-6 -6 -35 -31.5t-76.5 -54t-111 -52.5t-138.5 -27 q-64 -3 -98.5 23.5t-34.5 72.5q0 57 40.5 124.5t135.5 139.5q79 57 130 79t73 22q15 0 24.5 -6t14.5 -14q6 -9 8 -20q1 2 4 4q2 2 4.5 3.5t6.5 1.5q2 0 6.5 -5t4.5 -10q0 -2 -5.5 -8t-13 -13.5t-15 -15.5t-10.5 -15q-6 -8 -7.5 -14t-2.5 -11t-4 -7.5t-12 -2.5q-7 0 -15 2.5 t-8 10.5q0 6 6 18.5t13 25.5t13 23t6 12q0 10 -25 10q-5 0 -19 -2t-38 -12t-59 -31t-81 -59q-45 -37 -73 -69t-44.5 -59t-23.5 -50t-8 -42q-2 -18 3.5 -34.5t19 -28t36 -17t56.5 -2.5q58 5 112.5 24t99.5 43t77.5 47.5t45.5 38.5z" />
<glyph unicode="&#xc8;" horiz-adv-x="520" d="M491 538q9 -5 1.5 -15.5t-18.5 -8.5q-6 1 -15.5 10.5t-18.5 22t-16.5 25.5t-10.5 21q-3 6 -1.5 10t5.5 4.5t7.5 -1.5t3.5 -8q0 -4 8.5 -13.5t19 -19t21 -17.5t14.5 -10zM540 238q14 12 20 6.5t-6 -20.5q-10 -13 -39.5 -31.5t-68 -38.5t-81.5 -39.5t-80 -32.5 q-41 -15 -72 -25t-56.5 -16t-46 -8t-38.5 -2q-67 0 -101 23t-34 61q0 23 16.5 50.5t59.5 56.5q38 28 75.5 48.5t66.5 33.5q34 15 66 25q-7 5 -19.5 11.5t-25 14.5t-21.5 18.5t-9 24.5q0 10 6 21q5 6 21.5 15.5t39 20t49 20t52.5 14.5q11 2 34.5 4.5t48.5 2.5q15 0 28.5 -1.5 t23.5 -4.5t15.5 -8.5t4.5 -14.5q0 -2 -0.5 -4t-0.5 -4q2 1 4 3q4 4 7 6q5 0 10 -4t5 -9q0 -2 -5 -7.5t-11.5 -12.5t-14 -16t-13.5 -18q-7 -9 -8.5 -15.5t-2 -11t-3 -6.5t-12.5 -2q-8 0 -15.5 2.5t-7.5 8.5t6 17.5t13.5 24t13.5 23.5t6 16q0 8 -16.5 11t-32.5 3 q-45 0 -84.5 -9.5t-69 -22t-46.5 -25.5t-17 -19q0 -5 11.5 -15t26 -19.5t28.5 -16.5t19 -7t20 3t33 3q19 0 26.5 -4.5t7.5 -12.5q0 -11 -7 -14t-21 -3q-19 0 -50 -1.5t-76 -18.5q-41 -14 -82 -34.5t-74 -43.5t-53.5 -48t-19.5 -48q1 -22 13.5 -34t30 -18t35.5 -7t30 -1 q35 0 76.5 7.5t93.5 27.5q75 28 126 50.5t85 40t54 31t33 25.5z" />
<glyph unicode="&#xc9;" horiz-adv-x="520" d="M331 553q8 -2 22 0.5t29 7.5t28 11t19 9q8 7 12 3.5t-1 -12.5q-3 -5 -15 -13t-27 -15.5t-30.5 -13t-25.5 -6.5q-9 -1 -14.5 3.5t-7 10.5t0.5 11t10 4zM540 238q14 12 20 6.5t-6 -20.5q-10 -13 -39.5 -31.5t-68 -38.5t-81.5 -39.5t-80 -32.5q-41 -15 -72 -25t-56.5 -16 t-46 -8t-38.5 -2q-67 0 -101 23t-34 61q0 23 16.5 50.5t59.5 56.5q38 28 75.5 48.5t66.5 33.5q34 15 66 25q-7 5 -19.5 11.5t-25 14.5t-21.5 18.5t-9 24.5q0 10 6 21q5 6 21.5 15.5t39 20t49 20t52.5 14.5q11 2 34.5 4.5t48.5 2.5q15 0 28.5 -1.5t23.5 -4.5t15.5 -8.5 t4.5 -14.5q0 -2 -0.5 -4t-0.5 -4q2 1 4 3q4 4 7 6q5 0 10 -4t5 -9q0 -2 -5 -7.5t-11.5 -12.5t-14 -16t-13.5 -18q-7 -9 -8.5 -15.5t-2 -11t-3 -6.5t-12.5 -2q-8 0 -15.5 2.5t-7.5 8.5t6 17.5t13.5 24t13.5 23.5t6 16q0 8 -16.5 11t-32.5 3q-45 0 -84.5 -9.5t-69 -22 t-46.5 -25.5t-17 -19q0 -5 11.5 -15t26 -19.5t28.5 -16.5t19 -7t20 3t33 3q19 0 26.5 -4.5t7.5 -12.5q0 -11 -7 -14t-21 -3q-19 0 -50 -1.5t-76 -18.5q-41 -14 -82 -34.5t-74 -43.5t-53.5 -48t-19.5 -48q1 -22 13.5 -34t30 -18t35.5 -7t30 -1q35 0 76.5 7.5t93.5 27.5 q75 28 126 50.5t85 40t54 31t33 25.5z" />
<glyph unicode="&#xca;" horiz-adv-x="520" d="M438 546q-9 -3 -19 -5.5t-19 -1.5q-8 0 -11.5 4t-3.5 8t2.5 7.5t7.5 3.5q23 -1 39.5 5.5t30.5 8.5q14 5 14 -14q0 -14 2 -25t22 -16q7 -2 6.5 -8.5t-9.5 -8.5q-12 -2 -21 4t-14.5 14.5t-7 17.5t1.5 13zM540 238q14 12 20 6.5t-6 -20.5q-10 -13 -39.5 -31.5t-68 -38.5 t-81.5 -39.5t-80 -32.5q-41 -15 -72 -25t-56.5 -16t-46 -8t-38.5 -2q-67 0 -101 23t-34 61q0 23 16.5 50.5t59.5 56.5q38 28 75.5 48.5t66.5 33.5q34 15 66 25q-7 5 -19.5 11.5t-25 14.5t-21.5 18.5t-9 24.5q0 10 6 21q5 6 21.5 15.5t39 20t49 20t52.5 14.5q11 2 34.5 4.5 t48.5 2.5q15 0 28.5 -1.5t23.5 -4.5t15.5 -8.5t4.5 -14.5q0 -2 -0.5 -4t-0.5 -4q2 1 4 3q4 4 7 6q5 0 10 -4t5 -9q0 -2 -5 -7.5t-11.5 -12.5t-14 -16t-13.5 -18q-7 -9 -8.5 -15.5t-2 -11t-3 -6.5t-12.5 -2q-8 0 -15.5 2.5t-7.5 8.5t6 17.5t13.5 24t13.5 23.5t6 16 q0 8 -16.5 11t-32.5 3q-45 0 -84.5 -9.5t-69 -22t-46.5 -25.5t-17 -19q0 -5 11.5 -15t26 -19.5t28.5 -16.5t19 -7t20 3t33 3q19 0 26.5 -4.5t7.5 -12.5q0 -11 -7 -14t-21 -3q-19 0 -50 -1.5t-76 -18.5q-41 -14 -82 -34.5t-74 -43.5t-53.5 -48t-19.5 -48q1 -22 13.5 -34 t30 -18t35.5 -7t30 -1q35 0 76.5 7.5t93.5 27.5q75 28 126 50.5t85 40t54 31t33 25.5z" />
<glyph unicode="&#xcb;" horiz-adv-x="520" d="M447 559q-5 -9 -15.5 -13t-16.5 1q-3 1 -7 5t-6 8.5t-1 9t8 6.5q5 2 12 1t13 -4t10 -7t3 -7zM458 538q-2 9 5.5 13t20.5 2q11 -5 15.5 -16.5t-6.5 -18.5q-9 -5 -21 2t-14 18zM540 238q14 12 20 6.5t-6 -20.5q-10 -13 -39.5 -31.5t-68 -38.5t-81.5 -39.5t-80 -32.5 q-41 -15 -72 -25t-56.5 -16t-46 -8t-38.5 -2q-67 0 -101 23t-34 61q0 23 16.5 50.5t59.5 56.5q38 28 75.5 48.5t66.5 33.5q34 15 66 25q-7 5 -19.5 11.5t-25 14.5t-21.5 18.5t-9 24.5q0 10 6 21q5 6 21.5 15.5t39 20t49 20t52.5 14.5q11 2 34.5 4.5t48.5 2.5q15 0 28.5 -1.5 t23.5 -4.5t15.5 -8.5t4.5 -14.5q0 -2 -0.5 -4t-0.5 -4q2 1 4 3q4 4 7 6q5 0 10 -4t5 -9q0 -2 -5 -7.5t-11.5 -12.5t-14 -16t-13.5 -18q-7 -9 -8.5 -15.5t-2 -11t-3 -6.5t-12.5 -2q-8 0 -15.5 2.5t-7.5 8.5t6 17.5t13.5 24t13.5 23.5t6 16q0 8 -16.5 11t-32.5 3 q-45 0 -84.5 -9.5t-69 -22t-46.5 -25.5t-17 -19q0 -5 11.5 -15t26 -19.5t28.5 -16.5t19 -7t20 3t33 3q19 0 26.5 -4.5t7.5 -12.5q0 -11 -7 -14t-21 -3q-19 0 -50 -1.5t-76 -18.5q-41 -14 -82 -34.5t-74 -43.5t-53.5 -48t-19.5 -48q1 -22 13.5 -34t30 -18t35.5 -7t30 -1 q35 0 76.5 7.5t93.5 27.5q75 28 126 50.5t85 40t54 31t33 25.5z" />
<glyph unicode="&#xcc;" horiz-adv-x="192" d="M295 629q9 -5 1.5 -15.5t-18.5 -8.5q-6 1 -15.5 10.5t-18.5 22t-16.5 25.5t-10.5 21q-3 6 -1.5 10t5.5 4.5t7.5 -1.5t3.5 -8q0 -4 8.5 -13.5t19 -19t21 -17.5t14.5 -10zM88 116q7 5 9 -1.5t-3 -12.5q-7 -7 -20.5 -8.5t-29.5 5.5q-8 3 -14 12q-34 -26 -71 -40t-60 -10 q-17 2 -25 13t-8 25q0 11 5 21.5t14 15.5q13 9 15.5 1.5t-3.5 -12.5q-11 -5 -14 -19t11 -19q20 -8 49 2t62 33q3 2 6.5 4.5t8.5 6.5q-6 21 -6 52q0 23 4 50t12 58q13 46 37 97.5t50.5 96.5t51 77.5t38.5 38.5q17 8 29.5 8t16.5 -11q5 -14 -1 -46t-17.5 -71t-26.5 -78.5 t-27 -67.5q-17 -39 -32 -68.5t-29 -52.5t-28 -41t-30 -36l-14 -14q1 -4 5 -6q11 -9 19.5 -8.5t15.5 5.5zM53 287q-8 -30 -12 -56t-4 -46q0 -21 3 -34q24 23 52 61.5t51 93.5q14 35 32 81.5t31.5 88.5t20 72t-2.5 32q-7 1 -20 -13t-29.5 -38.5t-35 -56t-35.5 -64.5 t-30.5 -64.5t-20.5 -56.5z" />
<glyph unicode="&#xcd;" horiz-adv-x="192" d="M185 654q8 -2 22 0.5t29 7.5t28 11t19 9q8 7 12 3.5t-1 -12.5q-3 -5 -15 -13t-27 -15.5t-30.5 -13t-25.5 -6.5q-9 -1 -14.5 3.5t-7 10.5t0.5 11t10 4zM88 116q7 5 9 -1.5t-3 -12.5q-7 -7 -20.5 -8.5t-29.5 5.5q-8 3 -14 12q-34 -26 -71 -40t-60 -10q-17 2 -25 13t-8 25 q0 11 5 21.5t14 15.5q13 9 15.5 1.5t-3.5 -12.5q-11 -5 -14 -19t11 -19q20 -8 49 2t62 33q3 2 6.5 4.5t8.5 6.5q-6 21 -6 52q0 23 4 50t12 58q13 46 37 97.5t50.5 96.5t51 77.5t38.5 38.5q17 8 29.5 8t16.5 -11q5 -14 -1 -46t-17.5 -71t-26.5 -78.5t-27 -67.5 q-17 -39 -32 -68.5t-29 -52.5t-28 -41t-30 -36l-14 -14q1 -4 5 -6q11 -9 19.5 -8.5t15.5 5.5zM53 287q-8 -30 -12 -56t-4 -46q0 -21 3 -34q24 23 52 61.5t51 93.5q14 35 32 81.5t31.5 88.5t20 72t-2.5 32q-7 1 -20 -13t-29.5 -38.5t-35 -56t-35.5 -64.5t-30.5 -64.5 t-20.5 -56.5z" />
<glyph unicode="&#xce;" horiz-adv-x="192" d="M234 647q-9 -3 -19 -5.5t-19 -1.5q-8 0 -11.5 4t-3.5 8t2.5 7.5t7.5 3.5q23 -1 39.5 5.5t30.5 8.5q14 5 14 -14q0 -14 2 -25t22 -16q7 -2 6.5 -8.5t-9.5 -8.5q-12 -2 -21 4t-14.5 14.5t-7 17.5t1.5 13zM88 116q7 5 9 -1.5t-3 -12.5q-7 -7 -20.5 -8.5t-29.5 5.5 q-8 3 -14 12q-34 -26 -71 -40t-60 -10q-17 2 -25 13t-8 25q0 11 5 21.5t14 15.5q13 9 15.5 1.5t-3.5 -12.5q-11 -5 -14 -19t11 -19q20 -8 49 2t62 33q3 2 6.5 4.5t8.5 6.5q-6 21 -6 52q0 23 4 50t12 58q13 46 37 97.5t50.5 96.5t51 77.5t38.5 38.5q17 8 29.5 8t16.5 -11 q5 -14 -1 -46t-17.5 -71t-26.5 -78.5t-27 -67.5q-17 -39 -32 -68.5t-29 -52.5t-28 -41t-30 -36l-14 -14q1 -4 5 -6q11 -9 19.5 -8.5t15.5 5.5zM53 287q-8 -30 -12 -56t-4 -46q0 -21 3 -34q24 23 52 61.5t51 93.5q14 35 32 81.5t31.5 88.5t20 72t-2.5 32q-7 1 -20 -13 t-29.5 -38.5t-35 -56t-35.5 -64.5t-30.5 -64.5t-20.5 -56.5z" />
<glyph unicode="&#xcf;" horiz-adv-x="192" d="M255 657q-5 -9 -15.5 -13t-16.5 1q-3 1 -7 5t-6 8.5t-1 9t8 6.5q5 2 12 1t13 -4t10 -7t3 -7zM266 636q-2 9 5.5 13t20.5 2q11 -5 15.5 -16.5t-6.5 -18.5q-9 -5 -21 2t-14 18zM88 116q7 5 9 -1.5t-3 -12.5q-7 -7 -20.5 -8.5t-29.5 5.5q-8 3 -14 12q-34 -26 -71 -40 t-60 -10q-17 2 -25 13t-8 25q0 11 5 21.5t14 15.5q13 9 15.5 1.5t-3.5 -12.5q-11 -5 -14 -19t11 -19q20 -8 49 2t62 33q3 2 6.5 4.5t8.5 6.5q-6 21 -6 52q0 23 4 50t12 58q13 46 37 97.5t50.5 96.5t51 77.5t38.5 38.5q17 8 29.5 8t16.5 -11q5 -14 -1 -46t-17.5 -71 t-26.5 -78.5t-27 -67.5q-17 -39 -32 -68.5t-29 -52.5t-28 -41t-30 -36l-14 -14q1 -4 5 -6q11 -9 19.5 -8.5t15.5 5.5zM53 287q-8 -30 -12 -56t-4 -46q0 -21 3 -34q24 23 52 61.5t51 93.5q14 35 32 81.5t31.5 88.5t20 72t-2.5 32q-7 1 -20 -13t-29.5 -38.5t-35 -56 t-35.5 -64.5t-30.5 -64.5t-20.5 -56.5z" />
<glyph unicode="&#xd0;" horiz-adv-x="524" d="M303 582q4 3 9.5 4t9.5 -1t5 -6.5t-3 -10.5q-2 -3 -9 -11.5t-18 -22.5q49 -5 92 -17.5t74 -32.5q33 -22 51.5 -53t18.5 -69q0 -34 -15.5 -71.5t-48.5 -79.5q-40 -49 -90.5 -83.5t-99.5 -55.5t-91.5 -29t-66.5 -3q-18 3 -26 12.5t-8 23.5q0 20 13.5 41t32.5 30q22 9 28 3 t-11 -14q-15 -9 -25 -20.5t-13.5 -22.5t-1.5 -19.5t11 -10.5q22 -5 55.5 0.5t73 21.5t81.5 41t80 59q53 48 75.5 94t22.5 84q0 29 -11 52t-29 38q-31 26 -82 39.5t-108 18.5q-24 -31 -54 -70t-56 -75q27 -1 49 -4.5t34 -6.5q13 -2 15.5 -9t-11.5 -14q-7 -2 -12.5 -1.5 t-10.5 2.5t-11 5q-7 1 -17 2q-9 1 -22 1h-33q-5 -8 -9 -14l-8 -12q-20 -28 -37.5 -58.5t-30.5 -56t-20.5 -43.5t-7.5 -21q0 -5 2.5 -4t5.5 2.5t5 2t1 -3.5q-2 -9 -6 -18.5t-11 -16.5q-9 -7 -17 -7.5t-13 21.5q-1 10 8 33t24.5 52.5t35 63t39.5 63.5q2 4 5 7.5t5 8.5 q-34 -2 -63 -9t-43 -3q-13 2 -16 9t10 14q14 8 51.5 11.5t75.5 3.5h3q25 35 54.5 75t55.5 72q-8 0 -15.5 0.5t-15.5 0.5t-15 -0.5t-14 -0.5q-31 -2 -64.5 -6.5t-64.5 -12t-55 -17t-35 -20.5q-7 -7 -14.5 -5.5t-10.5 8t1 16t21 17.5q10 5 21.5 10t29.5 10t43 9.5t62 9.5 q43 6 91 6q13 0 26 -0.5t26 -1.5q16 21 27 33q5 7 10 13z" />
<glyph unicode="&#xd1;" horiz-adv-x="519" d="M22 458q6 7 18.5 13t30 10.5t37 8.5t38.5 8q8 2 19 3.5t23 1.5t23 -2.5t18.5 -10t10.5 -20.5t-2 -33q-3 -12 -11.5 -30t-20 -40.5t-25 -46.5t-27.5 -48q-33 -55 -73 -119q42 39 82 76q34 32 69 65.5t58 56.5q17 18 37 38t39 37t33.5 30t21.5 17q15 9 25 0.5t1 -37.5 q-5 -15 -12 -34.5t-14 -41l-14 -43t-11 -39.5q-7 -28 -13.5 -58.5t-6.5 -52.5q0 -27 14 -27q16 0 37.5 11.5t42.5 26.5t39 30.5t26 24.5q13 14 23 11t-2 -18t-29 -30.5t-36 -29.5t-38.5 -25t-35.5 -17q-15 -6 -28 -6q-16 0 -26 11.5t-10 37.5q0 12 3 30t7.5 39t10.5 44 t12 45q15 52 34 109q-23 -19 -49 -41q-22 -19 -49.5 -43.5t-54.5 -52.5q-23 -24 -55.5 -54.5t-63.5 -59.5t-55 -50.5t-30 -27.5q-8 -8 -20 -12t-22 -4q-13 0 -18 7t9 22q13 13 25 26t25.5 30.5t29.5 42t37 61.5q14 24 32.5 56.5t33 62.5t20.5 53t-5 28q-9 4 -34 2t-52 -8.5 t-50 -15t-30 -15.5q-15 -15 -23 -6.5t1 23.5zM280 551q3 4 10 7.5t15 5.5t15.5 1.5t11.5 -3.5q6 -2 8 -8.5t3 -14t2.5 -14t4.5 -9.5q4 -2 11 -1t14 4t13 7t8 7q2 4 7 -2.5t-4 -14.5q-9 -7 -25.5 -14t-29.5 -1q-7 2 -10 8t-5 12.5t-3.5 12.5t-4.5 8q-3 3 -8 2t-10.5 -4 t-10 -7t-6.5 -6t-5.5 -1t-5 4.5t-1 8.5t5.5 12z" />
<glyph unicode="&#xd2;" d="M522 579q9 -5 1.5 -15.5t-18.5 -8.5q-6 1 -15.5 10.5t-18.5 22t-16.5 25.5t-10.5 21q-3 6 -1.5 10t5.5 4.5t7.5 -1.5t3.5 -8q0 -4 8.5 -13.5t19 -19t21 -17.5t14.5 -10zM197 492q16 5 26 1.5t17 -8.5q30 30 66 52t65 28q15 3 32 3q19 0 38 -5.5t34.5 -18.5t25 -34.5 t9.5 -54.5q0 -16 -3 -35q-5 -34 -26 -74.5t-52.5 -80.5t-70 -78t-78.5 -68t-79 -50t-71 -24q-8 -2 -15.5 -2h-15.5q-50 0 -74 26.5t-24 75.5q0 22 4 42q5 34 24.5 83.5t47 96.5t59 83t61.5 42zM173 359q0 27 13.5 54.5t36.5 53.5q-3 1 -7 1h-9q-24 -3 -52 -33.5t-53.5 -74 t-45.5 -92t-27 -87.5q-3 -17 -3 -31q0 -25 8 -42t21.5 -27t31 -13t35.5 1q36 6 76 27t79 51t74.5 66.5t64 75t47 76.5t22.5 70q3 25 -0.5 43t-12.5 30t-22 19.5t-27 10.5q-24 6 -54.5 -0.5t-68.5 -30.5q-24 -15 -47 -41q1 -4 2.5 -15t-3.5 -20q-7 -11 -10.5 -9.5t1.5 12.5 q2 4 2 10t-3 11q-12 -14 -22.5 -29t-17.5 -28.5t-10 -25.5t-1 -19q4 -10 2 -16t-6.5 -6t-9 6.5t-4.5 21.5z" />
<glyph unicode="&#xd3;" d="M370 616q8 -2 22 0.5t29 7.5t28 11t19 9q8 7 12 3.5t-1 -12.5q-3 -5 -15 -13t-27 -15.5t-30.5 -13t-25.5 -6.5q-9 -1 -14.5 3.5t-7 10.5t0.5 11t10 4zM197 492q16 5 26 1.5t17 -8.5q30 30 66 52t65 28q15 3 32 3q19 0 38 -5.5t34.5 -18.5t25 -34.5t9.5 -54.5 q0 -16 -3 -35q-5 -34 -26 -74.5t-52.5 -80.5t-70 -78t-78.5 -68t-79 -50t-71 -24q-8 -2 -15.5 -2h-15.5q-50 0 -74 26.5t-24 75.5q0 22 4 42q5 34 24.5 83.5t47 96.5t59 83t61.5 42zM173 359q0 27 13.5 54.5t36.5 53.5q-3 1 -7 1h-9q-24 -3 -52 -33.5t-53.5 -74t-45.5 -92 t-27 -87.5q-3 -17 -3 -31q0 -25 8 -42t21.5 -27t31 -13t35.5 1q36 6 76 27t79 51t74.5 66.5t64 75t47 76.5t22.5 70q3 25 -0.5 43t-12.5 30t-22 19.5t-27 10.5q-24 6 -54.5 -0.5t-68.5 -30.5q-24 -15 -47 -41q1 -4 2.5 -15t-3.5 -20q-7 -11 -10.5 -9.5t1.5 12.5q2 4 2 10 t-3 11q-12 -14 -22.5 -29t-17.5 -28.5t-10 -25.5t-1 -19q4 -10 2 -16t-6.5 -6t-9 6.5t-4.5 21.5z" />
<glyph unicode="&#xd4;" d="M445 608q-9 -3 -19 -5.5t-19 -1.5q-8 0 -11.5 4t-3.5 8t2.5 7.5t7.5 3.5q23 -1 39.5 5.5t30.5 8.5q14 5 14 -14q0 -14 2 -25t22 -16q7 -2 6.5 -8.5t-9.5 -8.5q-12 -2 -21 4t-14.5 14.5t-7 17.5t1.5 13zM197 492q16 5 26 1.5t17 -8.5q30 30 66 52t65 28q15 3 32 3 q19 0 38 -5.5t34.5 -18.5t25 -34.5t9.5 -54.5q0 -16 -3 -35q-5 -34 -26 -74.5t-52.5 -80.5t-70 -78t-78.5 -68t-79 -50t-71 -24q-8 -2 -15.5 -2h-15.5q-50 0 -74 26.5t-24 75.5q0 22 4 42q5 34 24.5 83.5t47 96.5t59 83t61.5 42zM173 359q0 27 13.5 54.5t36.5 53.5 q-3 1 -7 1h-9q-24 -3 -52 -33.5t-53.5 -74t-45.5 -92t-27 -87.5q-3 -17 -3 -31q0 -25 8 -42t21.5 -27t31 -13t35.5 1q36 6 76 27t79 51t74.5 66.5t64 75t47 76.5t22.5 70q3 25 -0.5 43t-12.5 30t-22 19.5t-27 10.5q-24 6 -54.5 -0.5t-68.5 -30.5q-24 -15 -47 -41 q1 -4 2.5 -15t-3.5 -20q-7 -11 -10.5 -9.5t1.5 12.5q2 4 2 10t-3 11q-12 -14 -22.5 -29t-17.5 -28.5t-10 -25.5t-1 -19q4 -10 2 -16t-6.5 -6t-9 6.5t-4.5 21.5z" />
<glyph unicode="&#xd5;" d="M407 613q3 4 10 7.5t15 5.5t15.5 1.5t11.5 -3.5q6 -2 8 -8.5t3 -14t2.5 -14t4.5 -9.5q4 -2 11 -1t14 4t13 7t8 7q2 4 7 -2.5t-4 -14.5q-9 -7 -25.5 -14t-29.5 -1q-7 2 -10 8t-5 12.5t-3.5 12.5t-4.5 8q-3 3 -8 2t-10.5 -4t-10 -7t-6.5 -6t-5.5 -1t-5 4.5t-1 8.5t5.5 12z M197 492q16 5 26 1.5t17 -8.5q30 30 66 52t65 28q15 3 32 3q19 0 38 -5.5t34.5 -18.5t25 -34.5t9.5 -54.5q0 -16 -3 -35q-5 -34 -26 -74.5t-52.5 -80.5t-70 -78t-78.5 -68t-79 -50t-71 -24q-8 -2 -15.5 -2h-15.5q-50 0 -74 26.5t-24 75.5q0 22 4 42q5 34 24.5 83.5t47 96.5 t59 83t61.5 42zM173 359q0 27 13.5 54.5t36.5 53.5q-3 1 -7 1h-9q-24 -3 -52 -33.5t-53.5 -74t-45.5 -92t-27 -87.5q-3 -17 -3 -31q0 -25 8 -42t21.5 -27t31 -13t35.5 1q36 6 76 27t79 51t74.5 66.5t64 75t47 76.5t22.5 70q3 25 -0.5 43t-12.5 30t-22 19.5t-27 10.5 q-24 6 -54.5 -0.5t-68.5 -30.5q-24 -15 -47 -41q1 -4 2.5 -15t-3.5 -20q-7 -11 -10.5 -9.5t1.5 12.5q2 4 2 10t-3 11q-12 -14 -22.5 -29t-17.5 -28.5t-10 -25.5t-1 -19q4 -10 2 -16t-6.5 -6t-9 6.5t-4.5 21.5z" />
<glyph unicode="&#xd6;" d="M471 625q-5 -9 -15.5 -13t-16.5 1q-3 1 -7 5t-6 8.5t-1 9t8 6.5q5 2 12 1t13 -4t10 -7t3 -7zM482 604q-2 9 5.5 13t20.5 2q11 -5 15.5 -16.5t-6.5 -18.5q-9 -5 -21 2t-14 18zM197 492q16 5 26 1.5t17 -8.5q30 30 66 52t65 28q15 3 32 3q19 0 38 -5.5t34.5 -18.5t25 -34.5 t9.5 -54.5q0 -16 -3 -35q-5 -34 -26 -74.5t-52.5 -80.5t-70 -78t-78.5 -68t-79 -50t-71 -24q-8 -2 -15.5 -2h-15.5q-50 0 -74 26.5t-24 75.5q0 22 4 42q5 34 24.5 83.5t47 96.5t59 83t61.5 42zM173 359q0 27 13.5 54.5t36.5 53.5q-3 1 -7 1h-9q-24 -3 -52 -33.5t-53.5 -74 t-45.5 -92t-27 -87.5q-3 -17 -3 -31q0 -25 8 -42t21.5 -27t31 -13t35.5 1q36 6 76 27t79 51t74.5 66.5t64 75t47 76.5t22.5 70q3 25 -0.5 43t-12.5 30t-22 19.5t-27 10.5q-24 6 -54.5 -0.5t-68.5 -30.5q-24 -15 -47 -41q1 -4 2.5 -15t-3.5 -20q-7 -11 -10.5 -9.5t1.5 12.5 q2 4 2 10t-3 11q-12 -14 -22.5 -29t-17.5 -28.5t-10 -25.5t-1 -19q4 -10 2 -16t-6.5 -6t-9 6.5t-4.5 21.5z" />
<glyph unicode="&#xd7;" horiz-adv-x="265" d="M228 384q12 2 15 -6.5t-5 -8.5q-5 -1 -17 -8t-26 -16.5t-28 -20t-23 -17.5l-2 -2q20 -23 35.5 -42.5t18.5 -30.5q1 -11 -8.5 -14.5t-13.5 7.5q-6 13 -19.5 31t-29.5 36q-38 -31 -55 -52t-23 -27q-9 -8 -18 -4.5t-4 16.5q1 4 9 12.5t19.5 19.5t26.5 24t31 26 q-21 22 -39 38.5t-23 19.5t-5 7.5t3.5 8.5t8 6t8.5 0q3 -2 22 -21.5t42 -44.5q32 25 60.5 43.5t39.5 19.5z" />
<glyph unicode="&#xd8;" d="M483 570q7 6 12.5 5t8.5 -5.5t2.5 -10t-3.5 -8.5q-3 -2 -8 -6t-11 -10q12 -14 19 -33t7 -47q0 -16 -3 -35q-5 -34 -26 -74.5t-52.5 -80.5t-70 -78t-78.5 -68t-79 -50t-71 -24q-18 -3 -33 -3q-39 0 -63 19q-7 -8 -11 -12.5t-5 -5.5q-5 -6 -10 -8.5t-9.5 -2.5t-6.5 3.5 t0 10.5q1 2 8 9.5t19 21.5q-18 25 -18 67q0 10 1 20.5t3 22.5q5 34 24.5 83.5t47 96.5t59 83t61.5 42q16 5 26 1.5t17 -8.5q30 30 66 52t65 28q15 3 32 3q16 0 31 -3.5t29 -11.5q16 14 20 17zM485 435q4 29 -2 49t-19 32q-24 -23 -57.5 -57.5t-72 -75t-79 -83.5t-78 -83.5 t-70 -75.5t-54.5 -59q29 -23 69 -13q36 6 76 27t79 51t74.5 66.5t64 75t47 76.5t22.5 70zM173 359q0 27 13.5 54.5t36.5 53.5q-3 1 -7 1h-9q-24 -3 -52 -33.5t-53.5 -74t-45.5 -92t-27 -87.5q-3 -18 -3 -33q0 -31 12 -50q36 40 90.5 99.5t113 122t112 119.5t88.5 92 q-5 2 -9.5 3.5t-9.5 3.5q-24 6 -54.5 -0.5t-68.5 -30.5q-24 -15 -47 -41q1 -4 2.5 -15t-3.5 -20q-7 -11 -10.5 -9.5t1.5 12.5q2 4 2 10t-3 11q-12 -14 -22.5 -29t-17.5 -28.5t-10 -25.5t-1 -19q4 -10 2 -16t-6.5 -6t-9 6.5t-4.5 21.5z" />
<glyph unicode="&#xd9;" horiz-adv-x="539" d="M395 569q9 -5 1.5 -15.5t-18.5 -8.5q-6 1 -15.5 10.5t-18.5 22t-16.5 25.5t-10.5 21q-3 6 -1.5 10t5.5 4.5t7.5 -1.5t3.5 -8q0 -4 8.5 -13.5t19 -19t21 -17.5t14.5 -10zM219 523q-1 -18 -10 -46.5t-23 -61.5t-30.5 -67t-31.5 -63q-13 -24 -30 -52t-31.5 -53.5t-23 -45.5 t-3.5 -27q4 -8 17 -9t38 10.5t65.5 38.5t100.5 76q83 68 125 116t52 68q11 23 22 40t21 28q8 10 18.5 15.5t18.5 5.5q10 0 10.5 -10t-19.5 -32q-17 -20 -32.5 -44t-29.5 -48.5t-25.5 -49.5t-19.5 -46q-14 -37 -14 -68q0 -23 8.5 -37.5t28.5 -13.5q17 1 35.5 9.5t37 22 t35.5 30t32 32.5q12 13 20 8t-2 -18q-7 -9 -20.5 -24.5t-31.5 -31t-40 -29t-45 -18.5q-33 -8 -55.5 7.5t-24.5 44.5q-2 18 1 39.5t8 39.5q5 21 12 43l-63 -54q-26 -23 -56.5 -47.5t-54.5 -43.5q-18 -14 -40 -28.5t-43 -25.5t-39.5 -18.5t-31.5 -8.5q-43 -2 -43 34 q0 7 1.5 15.5t6.5 17.5q18 35 49.5 92t64.5 125q17 37 28 64.5t17 48t7.5 34t-1.5 23.5q-3 12 2 17.5t12.5 5t14 -8t5.5 -21.5z" />
<glyph unicode="&#xda;" horiz-adv-x="539" d="M322 566q8 -2 22 0.5t29 7.5t28 11t19 9q8 7 12 3.5t-1 -12.5q-3 -5 -15 -13t-27 -15.5t-30.5 -13t-25.5 -6.5q-9 -1 -14.5 3.5t-7 10.5t0.5 11t10 4zM219 523q-1 -18 -10 -46.5t-23 -61.5t-30.5 -67t-31.5 -63q-13 -24 -30 -52t-31.5 -53.5t-23 -45.5t-3.5 -27 q4 -8 17 -9t38 10.5t65.5 38.5t100.5 76q83 68 125 116t52 68q11 23 22 40t21 28q8 10 18.5 15.5t18.5 5.5q10 0 10.5 -10t-19.5 -32q-17 -20 -32.5 -44t-29.5 -48.5t-25.5 -49.5t-19.5 -46q-14 -37 -14 -68q0 -23 8.5 -37.5t28.5 -13.5q17 1 35.5 9.5t37 22t35.5 30 t32 32.5q12 13 20 8t-2 -18q-7 -9 -20.5 -24.5t-31.5 -31t-40 -29t-45 -18.5q-33 -8 -55.5 7.5t-24.5 44.5q-2 18 1 39.5t8 39.5q5 21 12 43l-63 -54q-26 -23 -56.5 -47.5t-54.5 -43.5q-18 -14 -40 -28.5t-43 -25.5t-39.5 -18.5t-31.5 -8.5q-43 -2 -43 34q0 7 1.5 15.5 t6.5 17.5q18 35 49.5 92t64.5 125q17 37 28 64.5t17 48t7.5 34t-1.5 23.5q-3 12 2 17.5t12.5 5t14 -8t5.5 -21.5z" />
<glyph unicode="&#xdb;" horiz-adv-x="539" d="M350 573q-9 -3 -19 -5.5t-19 -1.5q-8 0 -11.5 4t-3.5 8t2.5 7.5t7.5 3.5q23 -1 39.5 5.5t30.5 8.5q14 5 14 -14q0 -14 2 -25t22 -16q7 -2 6.5 -8.5t-9.5 -8.5q-12 -2 -21 4t-14.5 14.5t-7 17.5t1.5 13zM219 523q-1 -18 -10 -46.5t-23 -61.5t-30.5 -67t-31.5 -63 q-13 -24 -30 -52t-31.5 -53.5t-23 -45.5t-3.5 -27q4 -8 17 -9t38 10.5t65.5 38.5t100.5 76q83 68 125 116t52 68q11 23 22 40t21 28q8 10 18.5 15.5t18.5 5.5q10 0 10.5 -10t-19.5 -32q-17 -20 -32.5 -44t-29.5 -48.5t-25.5 -49.5t-19.5 -46q-14 -37 -14 -68 q0 -23 8.5 -37.5t28.5 -13.5q17 1 35.5 9.5t37 22t35.5 30t32 32.5q12 13 20 8t-2 -18q-7 -9 -20.5 -24.5t-31.5 -31t-40 -29t-45 -18.5q-33 -8 -55.5 7.5t-24.5 44.5q-2 18 1 39.5t8 39.5q5 21 12 43l-63 -54q-26 -23 -56.5 -47.5t-54.5 -43.5q-18 -14 -40 -28.5t-43 -25.5 t-39.5 -18.5t-31.5 -8.5q-43 -2 -43 34q0 7 1.5 15.5t6.5 17.5q18 35 49.5 92t64.5 125q17 37 28 64.5t17 48t7.5 34t-1.5 23.5q-3 12 2 17.5t12.5 5t14 -8t5.5 -21.5z" />
<glyph unicode="&#xdc;" horiz-adv-x="539" d="M364 589q-5 -9 -15.5 -13t-16.5 1q-3 1 -7 5t-6 8.5t-1 9t8 6.5q5 2 12 1t13 -4t10 -7t3 -7zM375 568q-2 9 5.5 13t20.5 2q11 -5 15.5 -16.5t-6.5 -18.5q-9 -5 -21 2t-14 18zM219 523q-1 -18 -10 -46.5t-23 -61.5t-30.5 -67t-31.5 -63q-13 -24 -30 -52t-31.5 -53.5 t-23 -45.5t-3.5 -27q4 -8 17 -9t38 10.5t65.5 38.5t100.5 76q83 68 125 116t52 68q11 23 22 40t21 28q8 10 18.5 15.5t18.5 5.5q10 0 10.5 -10t-19.5 -32q-17 -20 -32.5 -44t-29.5 -48.5t-25.5 -49.5t-19.5 -46q-14 -37 -14 -68q0 -23 8.5 -37.5t28.5 -13.5q17 1 35.5 9.5 t37 22t35.5 30t32 32.5q12 13 20 8t-2 -18q-7 -9 -20.5 -24.5t-31.5 -31t-40 -29t-45 -18.5q-33 -8 -55.5 7.5t-24.5 44.5q-2 18 1 39.5t8 39.5q5 21 12 43l-63 -54q-26 -23 -56.5 -47.5t-54.5 -43.5q-18 -14 -40 -28.5t-43 -25.5t-39.5 -18.5t-31.5 -8.5q-43 -2 -43 34 q0 7 1.5 15.5t6.5 17.5q18 35 49.5 92t64.5 125q17 37 28 64.5t17 48t7.5 34t-1.5 23.5q-3 12 2 17.5t12.5 5t14 -8t5.5 -21.5z" />
<glyph unicode="&#xdd;" horiz-adv-x="500" d="M320 540q8 -2 22 0.5t29 7.5t28 11t19 9q8 7 12 3.5t-1 -12.5q-3 -5 -15 -13t-27 -15.5t-30.5 -13t-25.5 -6.5q-9 -1 -14.5 3.5t-7 10.5t0.5 11t10 4zM196 486q-13 17 -8 24t15 4.5t17 -14t-3 -30.5q-16 -32 -54 -80.5t-76 -108.5q-11 -18 -20.5 -37t-15.5 -35t-8 -27 t2 -12q7 -2 19 0t33 10.5t53.5 25t80.5 43.5q37 21 82.5 50t86.5 58.5t71 55.5t36 40t15.5 16t17.5 -4t11.5 -18t-1.5 -25q-5 -10 -19 -39.5t-34.5 -70t-45.5 -88.5t-52 -95q66 -3 114 -26t66 -58q7 -13 7 -30q0 -19 -9 -33.5t-25 -14.5t-13.5 12t20.5 18q10 7 8.5 19 t-10.5 25.5t-24.5 26t-33.5 19.5q-51 20 -112 20q-14 -23 -28.5 -45t-28.5 -42q-41 -57 -82 -99.5t-80.5 -70t-77 -39t-71.5 -4.5q-38 8 -38 48q0 19 10.5 44t32.5 52.5t55.5 56.5t79.5 56q55 32 109 47.5t104 17.5q23 41 49 90t48 94q26 51 50 104q-48 -39 -97 -75 q-42 -31 -91 -62.5t-92 -51.5q-31 -15 -59.5 -30.5t-53.5 -28t-45.5 -20.5t-35.5 -8q-21 0 -29 17q-3 8 -0.5 21.5t8.5 29.5t14 31.5t16 27.5q5 8 13.5 22t19.5 30.5t23.5 35.5t24.5 37q28 43 61 93zM268 86q-79 -30 -142.5 -74.5t-101.5 -105.5q-8 -12 -12 -24t-4 -22 q0 -15 9 -24.5t28 -9.5t49 12q37 16 73.5 44.5t70.5 64.5t64.5 77t55.5 82q-45 -3 -90 -20z" />
<glyph unicode="&#xde;" horiz-adv-x="520" d="M296 530q7 7 17 3t4 -15q-5 -6 -20.5 -26.5t-36.5 -49.5q59 -2 111.5 -13t90.5 -34q19 -12 31.5 -34.5t12.5 -48.5q0 -15 -5 -31t-16 -33q-29 -41 -77.5 -75t-108.5 -53q-51 -16 -97.5 -22t-88.5 -6q-35 0 -65 3q-11 -21 -16.5 -35.5t-5.5 -16.5q0 -5 2.5 -4t5 3.5t4 3.5 t0.5 -3q-2 -11 -6.5 -20.5t-11.5 -14.5q-8 -7 -16 -7.5t-13 19.5q-1 8 7 29t22 50q-38 7 -63 16t-32 17q-9 9 -9 17.5t4.5 14t11 5t10.5 -9.5q5 -10 25.5 -20.5t63.5 -16.5q12 25 26.5 51.5t29.5 52.5t29.5 50t26.5 42q15 23 33 50t38 53q-62 0 -119.5 -7t-96.5 -18 q-42 -12 -68.5 -26t-42 -27.5t-23 -26t-11.5 -21.5q-2 -5 -6 -6t-7.5 1t-6 6.5t-1.5 11.5q1 8 11 23t30 32t51.5 33t75.5 26q43 9 104 15.5t126 5.5q13 17 25 33l21 28q11 14 20 26zM195 122q39 4 78.5 16t74 29t62.5 38.5t45 44.5q13 17 19 34t6 33q0 40 -39 62 q-38 21 -89 30.5t-108 11.5q-21 -28 -42.5 -58t-38.5 -56q-12 -17 -25.5 -40t-27.5 -48.5t-27 -51.5l-24 -48q11 -1 23 -1.5t26 -0.5q19 0 40.5 1t46.5 4z" />
<glyph unicode="&#xdf;" horiz-adv-x="305" d="M139 271q28 17 59 17q24 0 38.5 -13.5t4.5 -41.5q-6 -15 -13.5 -28t-15.5 -22q-9 -11 -18 -19q23 8 42 16q17 7 33 14.5t24 12.5q15 11 24.5 11t-1.5 -14q-10 -12 -30 -23t-42.5 -20.5t-42.5 -16t-30 -9.5q-17 -5 -26.5 -13t-22.5 -16q-8 -6 -15 -4t-11.5 7.5t-7 12.5 t-1.5 13q1 5 7.5 8t15 4.5t16 1.5h10.5t15 8.5t26 21.5t26.5 29.5t16.5 33.5q4 12 -5 18.5t-23 6.5t-29 -6t-27 -19q-2 -2 -7.5 -4.5t-10.5 -2t-8.5 4.5t-2.5 14q2 11 16.5 34t33 50.5t36.5 55t27 47.5q8 17 8.5 24t-3 7t-9 -4.5t-9.5 -10.5q-13 -12 -36.5 -45t-49.5 -70.5 t-50.5 -71t-39.5 -45.5q-7 -6 -12.5 -7.5t-8 0.5t0 7t11.5 14q15 13 37.5 45.5t47.5 70.5t50 74.5t43 58.5q5 6 13 8.5t15.5 1t13 -8t5.5 -18.5q0 -13 -9 -35q-10 -24 -26.5 -53t-32.5 -54q-19 -29 -40 -58z" />
<glyph unicode="&#xe0;" horiz-adv-x="261" d="M278 232q2 3 7.5 5.5t10 2.5t6 -3t-4.5 -10q-7 -9 -20.5 -20.5t-28.5 -22.5t-30 -19.5t-25 -10.5l-16 -4t-15 -2q-11 0 -18.5 6t-8.5 23q-1 9 1.5 18.5t4.5 17.5l6 18q-18 -20 -37 -38q-17 -15 -38 -30t-43 -23q-24 -8 -36 1.5t-6 36.5q4 17 17 38t29.5 40t34.5 33t31 16 t20 -1t9.5 -7.5t1 -9t-4.5 -5.5q-3 0 -15 -6t-27 -16.5t-30.5 -24t-25.5 -27.5q-9 -12 -14.5 -22t-6.5 -16.5t5.5 -8t21.5 3.5q19 9 42 28t43 39t35 37.5t19 22.5q4 7 9.5 8t10 -2t6 -9t-1.5 -12q-3 -8 -8.5 -19t-10.5 -23t-9.5 -24.5t-6.5 -21.5q-4 -18 3.5 -19.5t21.5 3.5 q33 13 58 32t34 27zM157 357q9 -5 1.5 -15.5t-18.5 -8.5q-6 1 -15.5 10.5t-18.5 22t-16.5 25.5t-10.5 21q-3 6 -1.5 10t5.5 4.5t7.5 -1.5t3.5 -8q0 -4 8.5 -13.5t19 -19t21 -17.5t14.5 -10z" />
<glyph unicode="&#xe1;" horiz-adv-x="261" d="M278 232q2 3 7.5 5.5t10 2.5t6 -3t-4.5 -10q-7 -9 -20.5 -20.5t-28.5 -22.5t-30 -19.5t-25 -10.5l-16 -4t-15 -2q-11 0 -18.5 6t-8.5 23q-1 9 1.5 18.5t4.5 17.5l6 18q-18 -20 -37 -38q-17 -15 -38 -30t-43 -23q-24 -8 -36 1.5t-6 36.5q4 17 17 38t29.5 40t34.5 33t31 16 t20 -1t9.5 -7.5t1 -9t-4.5 -5.5q-3 0 -15 -6t-27 -16.5t-30.5 -24t-25.5 -27.5q-9 -12 -14.5 -22t-6.5 -16.5t5.5 -8t21.5 3.5q19 9 42 28t43 39t35 37.5t19 22.5q4 7 9.5 8t10 -2t6 -9t-1.5 -12q-3 -8 -8.5 -19t-10.5 -23t-9.5 -24.5t-6.5 -21.5q-4 -18 3.5 -19.5t21.5 3.5 q33 13 58 32t34 27zM84 369q8 -2 22 0.5t29 7.5t28 11t19 9q8 7 12 3.5t-1 -12.5q-3 -5 -15 -13t-27 -15.5t-30.5 -13t-25.5 -6.5q-9 -1 -14.5 3.5t-7 10.5t0.5 11t10 4z" />
<glyph unicode="&#xe2;" horiz-adv-x="261" d="M278 232q2 3 7.5 5.5t10 2.5t6 -3t-4.5 -10q-7 -9 -20.5 -20.5t-28.5 -22.5t-30 -19.5t-25 -10.5l-16 -4t-15 -2q-11 0 -18.5 6t-8.5 23q-1 9 1.5 18.5t4.5 17.5l6 18q-18 -20 -37 -38q-17 -15 -38 -30t-43 -23q-24 -8 -36 1.5t-6 36.5q4 17 17 38t29.5 40t34.5 33t31 16 t20 -1t9.5 -7.5t1 -9t-4.5 -5.5q-3 0 -15 -6t-27 -16.5t-30.5 -24t-25.5 -27.5q-9 -12 -14.5 -22t-6.5 -16.5t5.5 -8t21.5 3.5q19 9 42 28t43 39t35 37.5t19 22.5q4 7 9.5 8t10 -2t6 -9t-1.5 -12q-3 -8 -8.5 -19t-10.5 -23t-9.5 -24.5t-6.5 -21.5q-4 -18 3.5 -19.5t21.5 3.5 q33 13 58 32t34 27zM151 373q-9 -3 -19 -5.5t-19 -1.5q-8 0 -11.5 4t-3.5 8t2.5 7.5t7.5 3.5q23 -1 39.5 5.5t30.5 8.5q14 5 14 -14q0 -14 2 -25t22 -16q7 -2 6.5 -8.5t-9.5 -8.5q-12 -2 -21 4t-14.5 14.5t-7 17.5t1.5 13z" />
<glyph unicode="&#xe3;" horiz-adv-x="261" d="M278 232q2 3 7.5 5.5t10 2.5t6 -3t-4.5 -10q-7 -9 -20.5 -20.5t-28.5 -22.5t-30 -19.5t-25 -10.5l-16 -4t-15 -2q-11 0 -18.5 6t-8.5 23q-1 9 1.5 18.5t4.5 17.5l6 18q-18 -20 -37 -38q-17 -15 -38 -30t-43 -23q-24 -8 -36 1.5t-6 36.5q4 17 17 38t29.5 40t34.5 33t31 16 t20 -1t9.5 -7.5t1 -9t-4.5 -5.5q-3 0 -15 -6t-27 -16.5t-30.5 -24t-25.5 -27.5q-9 -12 -14.5 -22t-6.5 -16.5t5.5 -8t21.5 3.5q19 9 42 28t43 39t35 37.5t19 22.5q4 7 9.5 8t10 -2t6 -9t-1.5 -12q-3 -8 -8.5 -19t-10.5 -23t-9.5 -24.5t-6.5 -21.5q-4 -18 3.5 -19.5t21.5 3.5 q33 13 58 32t34 27zM111 375q3 4 10 7.5t15 5.5t15.5 1.5t11.5 -3.5q6 -2 8 -8.5t3 -14t2.5 -14t4.5 -9.5q4 -2 11 -1t14 4t13 7t8 7q2 4 7 -2.5t-4 -14.5q-9 -7 -25.5 -14t-29.5 -1q-7 2 -10 8t-5 12.5t-3.5 12.5t-4.5 8q-3 3 -8 2t-10.5 -4t-10 -7t-6.5 -6t-5.5 -1t-5 4.5 t-1 8.5t5.5 12z" />
<glyph unicode="&#xe4;" horiz-adv-x="261" d="M278 232q2 3 7.5 5.5t10 2.5t6 -3t-4.5 -10q-7 -9 -20.5 -20.5t-28.5 -22.5t-30 -19.5t-25 -10.5l-16 -4t-15 -2q-11 0 -18.5 6t-8.5 23q-1 9 1.5 18.5t4.5 17.5l6 18q-18 -20 -37 -38q-17 -15 -38 -30t-43 -23q-24 -8 -36 1.5t-6 36.5q4 17 17 38t29.5 40t34.5 33t31 16 t20 -1t9.5 -7.5t1 -9t-4.5 -5.5q-3 0 -15 -6t-27 -16.5t-30.5 -24t-25.5 -27.5q-9 -12 -14.5 -22t-6.5 -16.5t5.5 -8t21.5 3.5q19 9 42 28t43 39t35 37.5t19 22.5q4 7 9.5 8t10 -2t6 -9t-1.5 -12q-3 -8 -8.5 -19t-10.5 -23t-9.5 -24.5t-6.5 -21.5q-4 -18 3.5 -19.5t21.5 3.5 q33 13 58 32t34 27zM163 369q-5 -9 -15.5 -13t-16.5 1q-3 1 -7 5t-6 8.5t-1 9t8 6.5q5 2 12 1t13 -4t10 -7t3 -7zM174 348q-2 9 5.5 13t20.5 2q11 -5 15.5 -16.5t-6.5 -18.5q-9 -5 -21 2t-14 18z" />
<glyph unicode="&#xe5;" horiz-adv-x="261" d="M278 232q2 3 7.5 5.5t10 2.5t6 -3t-4.5 -10q-7 -9 -20.5 -20.5t-28.5 -22.5t-30 -19.5t-25 -10.5l-16 -4t-15 -2q-11 0 -18.5 6t-8.5 23q-1 9 1.5 18.5t4.5 17.5l6 18q-18 -20 -37 -38q-17 -15 -38 -30t-43 -23q-24 -8 -36 1.5t-6 36.5q4 17 17 38t29.5 40t34.5 33t31 16 t20 -1t9.5 -7.5t1 -9t-4.5 -5.5q-3 0 -15 -6t-27 -16.5t-30.5 -24t-25.5 -27.5q-9 -12 -14.5 -22t-6.5 -16.5t5.5 -8t21.5 3.5q19 9 42 28t43 39t35 37.5t19 22.5q4 7 9.5 8t10 -2t6 -9t-1.5 -12q-3 -8 -8.5 -19t-10.5 -23t-9.5 -24.5t-6.5 -21.5q-4 -18 3.5 -19.5t21.5 3.5 q33 13 58 32t34 27zM134 394q6 11 19.5 20.5t26.5 10.5q14 1 28 -3t27 -19q13 -18 13 -32t-12 -29q-11 -14 -29.5 -20.5t-37.5 -6.5q-9 0 -17.5 1.5t-14.5 5.5q-8 5 -10.5 12.5t-2.5 16.5q0 19 8 33q-2 5 2 10zM154 378q-7 -7 -9.5 -14t-2.5 -13q0 -19 35 -18 q15 1 32.5 11.5t19.5 23.5q2 11 -8 23.5t-24 14.5q-13 2 -23.5 -3t-17.5 -12q2 -2 2.5 -5t-4.5 -8z" />
<glyph unicode="&#xe6;" horiz-adv-x="378" d="M406 243q8 8 10.5 1.5t0.5 -12.5q-6 -10 -24 -26t-40.5 -31.5t-46 -28.5t-42.5 -17q-12 -3 -24 -2.5t-22 5.5t-15.5 15t-3.5 25q0 5 1 7q-9 -3 -17 -5t-15 -2q-28 0 -29 27q-1 11 0.5 17.5t3.5 10.5q-4 -5 -15 -17t-27 -25.5t-34.5 -26t-37.5 -18.5q-24 -8 -36 1.5 t-6 36.5q4 17 17 38t29.5 40t34.5 33t31 16t20 -1t9.5 -7.5t1 -9t-4.5 -5.5q-3 0 -15 -6t-27 -16.5t-30.5 -24t-25.5 -27.5q-9 -12 -14.5 -22t-6.5 -16.5t5.5 -8t21.5 3.5q19 9 42 28t43 39t35 37.5t19 22.5q4 7 9.5 8t10 -2t6 -9t-1.5 -12q-7 -15 -17.5 -30t-16.5 -38 q-2 -8 1 -11t9.5 -3t15.5 2.5t18 5.5q15 45 55 81q21 19 37.5 22.5t30.5 -1.5q10 -4 10 -13.5t-7.5 -22t-20 -25.5t-26.5 -23q-23 -17 -39 -22.5t-22 -7.5q-1 -3 -1.5 -3t-0.5 -0.5v-3.5t-1 -12q0 -10 3 -14.5t7.5 -6.5t10 -2h11.5q14 1 37 12.5t46 26.5t42.5 30.5 t27.5 24.5zM267 259q-4 -4 -8.5 -10.5t-9.5 -13.5q-5 -8 -11 -18q9 4 17 8q7 4 14.5 8.5t13.5 9.5l24.5 24.5t7.5 18.5q-2 3 -7 1.5t-12 -6t-15 -10.5t-14 -12z" />
<glyph unicode="&#xe7;" horiz-adv-x="196" d="M111 315q6 0 10 -4.5t6.5 -10t2 -10t-3.5 -4.5q-17 0 -33 -9.5t-29.5 -23t-23.5 -29t-14 -26.5q-6 -18 -6 -28q0 -20 30 -17q16 2 39.5 11t47 21t45 26t34.5 26q9 8 17 4.5t-3 -17.5q-8 -11 -28.5 -26t-47 -29t-56 -25t-54.5 -14q-30 -4 -43 14q-5 7 -4.5 31.5t24.5 64.5 q25 42 50 57.5t40 17.5zM78 141q0 5 4 8t9 3t9 -3.5t4 -10.5q0 -11 -6.5 -28t-17 -33.5t-24.5 -29t-28 -14.5q-11 0 -14.5 6t-3 12.5t5 10t10.5 -2.5q4 -5 12.5 3t17.5 22t15.5 30t6.5 27z" />
<glyph unicode="&#xe8;" horiz-adv-x="181" d="M205 242q8 8 10.5 1.5t0.5 -12.5q-6 -10 -23 -24.5t-38 -28t-43.5 -25t-41.5 -15.5q-12 -3 -24 -2.5t-22 5.5t-15.5 15t-3.5 25q5 33 20.5 61t41.5 51q21 19 37.5 22.5t30.5 -1.5q10 -4 11 -15t-5 -25t-17.5 -27.5t-24.5 -21.5q-16 -9 -35 -12.5t-25 3.5q-2 -7 -6 -12 t-6 -23q0 -10 3 -14.5t7.5 -6.5t10 -2h11.5q14 1 36 11t43.5 23t40 27t26.5 23zM73 268q-8 -7 -10.5 -11t-9.5 -15q5 -7 15.5 -6t21.5 9q15 11 26.5 26t6.5 23q-4 6 -20.5 -4t-29.5 -22zM187 341q9 -5 1.5 -15.5t-18.5 -8.5q-6 1 -15.5 10.5t-18.5 22t-16.5 25.5t-10.5 21 q-3 6 -1.5 10t5.5 4.5t7.5 -1.5t3.5 -8q0 -4 8.5 -13.5t19 -19t21 -17.5t14.5 -10z" />
<glyph unicode="&#xe9;" horiz-adv-x="181" d="M205 242q8 8 10.5 1.5t0.5 -12.5q-6 -10 -23 -24.5t-38 -28t-43.5 -25t-41.5 -15.5q-12 -3 -24 -2.5t-22 5.5t-15.5 15t-3.5 25q5 33 20.5 61t41.5 51q21 19 37.5 22.5t30.5 -1.5q10 -4 11 -15t-5 -25t-17.5 -27.5t-24.5 -21.5q-16 -9 -35 -12.5t-25 3.5q-2 -7 -6 -12 t-6 -23q0 -10 3 -14.5t7.5 -6.5t10 -2h11.5q14 1 36 11t43.5 23t40 27t26.5 23zM73 268q-8 -7 -10.5 -11t-9.5 -15q5 -7 15.5 -6t21.5 9q15 11 26.5 26t6.5 23q-4 6 -20.5 -4t-29.5 -22zM92 368q8 -2 22 0.5t29 7.5t28 11t19 9q8 7 12 3.5t-1 -12.5q-3 -5 -15 -13t-27 -15.5 t-30.5 -13t-25.5 -6.5q-9 -1 -14.5 3.5t-7 10.5t0.5 11t10 4z" />
<glyph unicode="&#xea;" horiz-adv-x="181" d="M205 242q8 8 10.5 1.5t0.5 -12.5q-6 -10 -23 -24.5t-38 -28t-43.5 -25t-41.5 -15.5q-12 -3 -24 -2.5t-22 5.5t-15.5 15t-3.5 25q5 33 20.5 61t41.5 51q21 19 37.5 22.5t30.5 -1.5q10 -4 11 -15t-5 -25t-17.5 -27.5t-24.5 -21.5q-16 -9 -35 -12.5t-25 3.5q-2 -7 -6 -12 t-6 -23q0 -10 3 -14.5t7.5 -6.5t10 -2h11.5q14 1 36 11t43.5 23t40 27t26.5 23zM73 268q-8 -7 -10.5 -11t-9.5 -15q5 -7 15.5 -6t21.5 9q15 11 26.5 26t6.5 23q-4 6 -20.5 -4t-29.5 -22zM133 353q-9 -3 -19 -5.5t-19 -1.5q-8 0 -11.5 4t-3.5 8t2.5 7.5t7.5 3.5 q23 -1 39.5 5.5t30.5 8.5q14 5 14 -14q0 -14 2 -25t22 -16q7 -2 6.5 -8.5t-9.5 -8.5q-12 -2 -21 4t-14.5 14.5t-7 17.5t1.5 13z" />
<glyph unicode="&#xeb;" horiz-adv-x="181" d="M205 242q8 8 10.5 1.5t0.5 -12.5q-6 -10 -23 -24.5t-38 -28t-43.5 -25t-41.5 -15.5q-12 -3 -24 -2.5t-22 5.5t-15.5 15t-3.5 25q5 33 20.5 61t41.5 51q21 19 37.5 22.5t30.5 -1.5q10 -4 11 -15t-5 -25t-17.5 -27.5t-24.5 -21.5q-16 -9 -35 -12.5t-25 3.5q-2 -7 -6 -12 t-6 -23q0 -10 3 -14.5t7.5 -6.5t10 -2h11.5q14 1 36 11t43.5 23t40 27t26.5 23zM73 268q-8 -7 -10.5 -11t-9.5 -15q5 -7 15.5 -6t21.5 9q15 11 26.5 26t6.5 23q-4 6 -20.5 -4t-29.5 -22zM148 362q-5 -9 -15.5 -13t-16.5 1q-3 1 -7 5t-6 8.5t-1 9t8 6.5q5 2 12 1t13 -4t10 -7 t3 -7zM159 341q-2 9 5.5 13t20.5 2q11 -5 15.5 -16.5t-6.5 -18.5q-9 -5 -21 2t-14 18z" />
<glyph unicode="&#xec;" horiz-adv-x="138" d="M157 235q13 11 20.5 7t0.5 -11q-9 -9 -24 -22.5t-34.5 -26.5t-41.5 -24t-45 -14q-22 -5 -30 3t-8 26q0 11 7 28.5t16 34t18 28t14 11.5q6 0 13 -4.5t-2 -16.5q-6 -8 -16 -22.5t-17.5 -29.5t-9.5 -25.5t8 -10.5q19 1 38.5 9t37 19t32 22t23.5 19zM95 325q9 -5 1.5 -15.5 t-18.5 -8.5q-6 1 -15.5 10.5t-18.5 22t-16.5 25.5t-10.5 21q-3 6 -1.5 10t5.5 4.5t7.5 -1.5t3.5 -8q0 -4 8.5 -13.5t19 -19t21 -17.5t14.5 -10z" />
<glyph unicode="&#xed;" horiz-adv-x="138" d="M157 235q13 11 20.5 7t0.5 -11q-9 -9 -24 -22.5t-34.5 -26.5t-41.5 -24t-45 -14q-22 -5 -30 3t-8 26q0 11 7 28.5t16 34t18 28t14 11.5q6 0 13 -4.5t-2 -16.5q-6 -8 -16 -22.5t-17.5 -29.5t-9.5 -25.5t8 -10.5q19 1 38.5 9t37 19t32 22t23.5 19zM70 334q8 -2 22 0.5 t29 7.5t28 11t19 9q8 7 12 3.5t-1 -12.5q-3 -5 -15 -13t-27 -15.5t-30.5 -13t-25.5 -6.5q-9 -1 -14.5 3.5t-7 10.5t0.5 11t10 4z" />
<glyph unicode="&#xee;" horiz-adv-x="138" d="M157 235q13 11 20.5 7t0.5 -11q-9 -9 -24 -22.5t-34.5 -26.5t-41.5 -24t-45 -14q-22 -5 -30 3t-8 26q0 11 7 28.5t16 34t18 28t14 11.5q6 0 13 -4.5t-2 -16.5q-6 -8 -16 -22.5t-17.5 -29.5t-9.5 -25.5t8 -10.5q19 1 38.5 9t37 19t32 22t23.5 19zM61 330q-9 -3 -19 -5.5 t-19 -1.5q-8 0 -11.5 4t-3.5 8t2.5 7.5t7.5 3.5q23 -1 39.5 5.5t30.5 8.5q14 5 14 -14q0 -14 2 -25t22 -16q7 -2 6.5 -8.5t-9.5 -8.5q-12 -2 -21 4t-14.5 14.5t-7 17.5t1.5 13z" />
<glyph unicode="&#xef;" horiz-adv-x="138" d="M157 235q13 11 20.5 7t0.5 -11q-9 -9 -24 -22.5t-34.5 -26.5t-41.5 -24t-45 -14q-22 -5 -30 3t-8 26q0 11 7 28.5t16 34t18 28t14 11.5q6 0 13 -4.5t-2 -16.5q-6 -8 -16 -22.5t-17.5 -29.5t-9.5 -25.5t8 -10.5q19 1 38.5 9t37 19t32 22t23.5 19zM80 332q-5 -9 -15.5 -13 t-16.5 1q-3 1 -7 5t-6 8.5t-1 9t8 6.5q5 2 12 1t13 -4t10 -7t3 -7zM91 311q-2 9 5.5 13t20.5 2q11 -5 15.5 -16.5t-6.5 -18.5q-9 -5 -21 2t-14 18z" />
<glyph unicode="&#xf0;" horiz-adv-x="209" d="M166 490q4 4 17.5 13t30.5 18.5t36 19.5t34 16q0 37 -8.5 57.5t-13.5 23.5q-7 4 -12 2t-9 -6t-7.5 -8.5t-6.5 -4.5q-7 -2 -10.5 7.5t4.5 18.5q9 9 24 16t28 -1q10 -7 22.5 -30.5t14.5 -65.5q21 8 37.5 12.5t24.5 4.5q11 0 9.5 -6t-15.5 -11q-8 -3 -23.5 -8.5t-32.5 -12.5 q0 -11 -1.5 -22t-3.5 -24q-8 -41 -23.5 -81.5t-36.5 -77.5t-45.5 -69t-49.5 -56q-37 -38 -68.5 -57.5t-42.5 -19.5q-9 -2 -19.5 3.5t-13.5 32.5q-2 19 6 41t22.5 42.5t34.5 37t42 24.5q6 2 12.5 -1.5t10 -9.5t3 -11.5t-8.5 -6.5q-21 -5 -41.5 -22.5t-35.5 -38t-21.5 -39.5 t1.5 -27q6 -6 27.5 6t50 38t59.5 64.5t57 85.5q30 54 43 98.5t16 78.5q-5 -2 -13 -6q-38 -17 -62.5 -35t-30.5 -23q-7 -2 -13.5 5t1.5 15z" />
<glyph unicode="&#xf1;" horiz-adv-x="280" d="M66 269q-4 -4 -12.5 -18t-17.5 -30q-11 -18 -23 -41q28 27 54 52q23 21 46 41.5t40 31.5q15 10 26 4t6 -17q-7 -16 -7 -45q0 -17 4.5 -33.5t16.5 -24.5q11 -7 24.5 -5t27 9t26 16.5t21.5 18.5t14 11t7 0t0.5 -7t-6.5 -11q-9 -10 -21.5 -21.5t-27 -20.5t-31 -14t-32.5 -1 q-23 5 -32 24t-12 39q-4 24 0 53q-25 -19 -51 -41q-22 -19 -46 -43t-44 -50q-4 -5 -11 -5.5t-13 2t-9 8t0 11.5q3 10 11.5 27.5t18.5 36t19 33.5t13 20q2 3 7 3t9.5 -1.5t6.5 -4.5t-2 -7zM89 386q3 4 10 7.5t15 5.5t15.5 1.5t11.5 -3.5q6 -2 8 -8.5t3 -14t2.5 -14t4.5 -9.5 q4 -2 11 -1t14 4t13 7t8 7q2 4 7 -2.5t-4 -14.5q-9 -7 -25.5 -14t-29.5 -1q-7 2 -10 8t-5 12.5t-3.5 12.5t-4.5 8q-3 3 -8 2t-10.5 -4t-10 -7t-6.5 -6t-5.5 -1t-5 4.5t-1 8.5t5.5 12z" />
<glyph unicode="&#xf2;" horiz-adv-x="225" d="M85 272q-9 -2 -20 -11.5t-17 -17.5q-10 -14 -16.5 -37.5t-4.5 -37.5q2 -13 9.5 -18t27.5 6q8 5 17.5 12.5t19.5 16.5q-8 12 -7 32q1 15 6.5 31.5t14 30t19.5 24t23 13.5q20 5 30 -4.5t8 -24.5q-2 -18 -16.5 -43.5t-37.5 -51.5q6 0 12 1.5l14 3.5q11 3 23 9t23 12.5 t19.5 12.5t13.5 9q8 5 11.5 -2.5t-2.5 -14.5q-5 -4 -15 -11t-24 -14.5t-30.5 -14t-34.5 -9.5q-8 -2 -15.5 -3t-13.5 1q-23 -21 -46 -35q-20 -10 -35 -10q-26 0 -34 38q-3 14 0 32t10 36t17 32.5t22 21.5q22 8 28.5 -1t0.5 -14zM135 219q19 23 26.5 36.5t9.5 28.5 q2 9 -3 11.5t-12 -2.5q-5 -3 -12.5 -12.5t-14.5 -21t-11.5 -23.5t-3.5 -22q0 -8 4 -14q4 4 8 9t9 10zM205 355q9 -5 1.5 -15.5t-18.5 -8.5q-6 1 -15.5 10.5t-18.5 22t-16.5 25.5t-10.5 21q-3 6 -1.5 10t5.5 4.5t7.5 -1.5t3.5 -8q0 -4 8.5 -13.5t19 -19t21 -17.5t14.5 -10z " />
<glyph unicode="&#xf3;" horiz-adv-x="225" d="M85 272q-9 -2 -20 -11.5t-17 -17.5q-10 -14 -16.5 -37.5t-4.5 -37.5q2 -13 9.5 -18t27.5 6q8 5 17.5 12.5t19.5 16.5q-8 12 -7 32q1 15 6.5 31.5t14 30t19.5 24t23 13.5q20 5 30 -4.5t8 -24.5q-2 -18 -16.5 -43.5t-37.5 -51.5q6 0 12 1.5l14 3.5q11 3 23 9t23 12.5 t19.5 12.5t13.5 9q8 5 11.5 -2.5t-2.5 -14.5q-5 -4 -15 -11t-24 -14.5t-30.5 -14t-34.5 -9.5q-8 -2 -15.5 -3t-13.5 1q-23 -21 -46 -35q-20 -10 -35 -10q-26 0 -34 38q-3 14 0 32t10 36t17 32.5t22 21.5q22 8 28.5 -1t0.5 -14zM135 219q19 23 26.5 36.5t9.5 28.5 q2 9 -3 11.5t-12 -2.5q-5 -3 -12.5 -12.5t-14.5 -21t-11.5 -23.5t-3.5 -22q0 -8 4 -14q4 4 8 9t9 10zM95 372q8 -2 22 0.5t29 7.5t28 11t19 9q8 7 12 3.5t-1 -12.5q-3 -5 -15 -13t-27 -15.5t-30.5 -13t-25.5 -6.5q-9 -1 -14.5 3.5t-7 10.5t0.5 11t10 4z" />
<glyph unicode="&#xf4;" horiz-adv-x="225" d="M85 272q-9 -2 -20 -11.5t-17 -17.5q-10 -14 -16.5 -37.5t-4.5 -37.5q2 -13 9.5 -18t27.5 6q8 5 17.5 12.5t19.5 16.5q-8 12 -7 32q1 15 6.5 31.5t14 30t19.5 24t23 13.5q20 5 30 -4.5t8 -24.5q-2 -18 -16.5 -43.5t-37.5 -51.5q6 0 12 1.5l14 3.5q11 3 23 9t23 12.5 t19.5 12.5t13.5 9q8 5 11.5 -2.5t-2.5 -14.5q-5 -4 -15 -11t-24 -14.5t-30.5 -14t-34.5 -9.5q-8 -2 -15.5 -3t-13.5 1q-23 -21 -46 -35q-20 -10 -35 -10q-26 0 -34 38q-3 14 0 32t10 36t17 32.5t22 21.5q22 8 28.5 -1t0.5 -14zM135 219q19 23 26.5 36.5t9.5 28.5 q2 9 -3 11.5t-12 -2.5q-5 -3 -12.5 -12.5t-14.5 -21t-11.5 -23.5t-3.5 -22q0 -8 4 -14q4 4 8 9t9 10zM139 369q-9 -3 -19 -5.5t-19 -1.5q-8 0 -11.5 4t-3.5 8t2.5 7.5t7.5 3.5q23 -1 39.5 5.5t30.5 8.5q14 5 14 -14q0 -14 2 -25t22 -16q7 -2 6.5 -8.5t-9.5 -8.5 q-12 -2 -21 4t-14.5 14.5t-7 17.5t1.5 13z" />
<glyph unicode="&#xf5;" horiz-adv-x="225" d="M85 272q-9 -2 -20 -11.5t-17 -17.5q-10 -14 -16.5 -37.5t-4.5 -37.5q2 -13 9.5 -18t27.5 6q8 5 17.5 12.5t19.5 16.5q-8 12 -7 32q1 15 6.5 31.5t14 30t19.5 24t23 13.5q20 5 30 -4.5t8 -24.5q-2 -18 -16.5 -43.5t-37.5 -51.5q6 0 12 1.5l14 3.5q11 3 23 9t23 12.5 t19.5 12.5t13.5 9q8 5 11.5 -2.5t-2.5 -14.5q-5 -4 -15 -11t-24 -14.5t-30.5 -14t-34.5 -9.5q-8 -2 -15.5 -3t-13.5 1q-23 -21 -46 -35q-20 -10 -35 -10q-26 0 -34 38q-3 14 0 32t10 36t17 32.5t22 21.5q22 8 28.5 -1t0.5 -14zM135 219q19 23 26.5 36.5t9.5 28.5 q2 9 -3 11.5t-12 -2.5q-5 -3 -12.5 -12.5t-14.5 -21t-11.5 -23.5t-3.5 -22q0 -8 4 -14q4 4 8 9t9 10zM103 386q3 4 10 7.5t15 5.5t15.5 1.5t11.5 -3.5q6 -2 8 -8.5t3 -14t2.5 -14t4.5 -9.5q4 -2 11 -1t14 4t13 7t8 7q2 4 7 -2.5t-4 -14.5q-9 -7 -25.5 -14t-29.5 -1 q-7 2 -10 8t-5 12.5t-3.5 12.5t-4.5 8q-3 3 -8 2t-10.5 -4t-10 -7t-6.5 -6t-5.5 -1t-5 4.5t-1 8.5t5.5 12z" />
<glyph unicode="&#xf6;" horiz-adv-x="225" d="M85 272q-9 -2 -20 -11.5t-17 -17.5q-10 -14 -16.5 -37.5t-4.5 -37.5q2 -13 9.5 -18t27.5 6q8 5 17.5 12.5t19.5 16.5q-8 12 -7 32q1 15 6.5 31.5t14 30t19.5 24t23 13.5q20 5 30 -4.5t8 -24.5q-2 -18 -16.5 -43.5t-37.5 -51.5q6 0 12 1.5l14 3.5q11 3 23 9t23 12.5 t19.5 12.5t13.5 9q8 5 11.5 -2.5t-2.5 -14.5q-5 -4 -15 -11t-24 -14.5t-30.5 -14t-34.5 -9.5q-8 -2 -15.5 -3t-13.5 1q-23 -21 -46 -35q-20 -10 -35 -10q-26 0 -34 38q-3 14 0 32t10 36t17 32.5t22 21.5q22 8 28.5 -1t0.5 -14zM135 219q19 23 26.5 36.5t9.5 28.5 q2 9 -3 11.5t-12 -2.5q-5 -3 -12.5 -12.5t-14.5 -21t-11.5 -23.5t-3.5 -22q0 -8 4 -14q4 4 8 9t9 10zM162 380q-5 -9 -15.5 -13t-16.5 1q-3 1 -7 5t-6 8.5t-1 9t8 6.5q5 2 12 1t13 -4t10 -7t3 -7zM173 359q-2 9 5.5 13t20.5 2q11 -5 15.5 -16.5t-6.5 -18.5q-9 -5 -21 2 t-14 18z" />
<glyph unicode="&#xf7;" horiz-adv-x="310" d="M237 271q-4 0 -11 1q-6 1 -15 1.5t-23 0.5h-18t-21 -1q-32 -2 -58.5 -8t-40.5 -3q-11 2 -13.5 9.5t8.5 13.5q6 4 18 6.5t28 4t33.5 2t34.5 0.5q33 2 62 -1.5t43 -8.5q11 -2 13 -9t-10 -13q-6 -2 -11 -1.5t-10 2.5t-9 4zM157 322q-6 4 -4 11q0 4 2 7l5 7q2 6 4 8t10 2 q8 -2 10.5 -9.5t-0.5 -15.5l-5 -5t-7 -5.5t-8 -3t-7 3.5zM125 214q-3 2 -4 5t-1 6q0 4 2 7l3 2q2 6 5 10t11 4q4 -1 7 -6.5t4.5 -11.5t1 -11t-4.5 -5q-8 -2 -13 -5t-11 5z" />
<glyph unicode="&#xf8;" horiz-adv-x="188" d="M181 294q8 0 9 -10.5t-9 -12.5q-1 0 -2 -1q6 -15 5 -28q-3 -17 -14 -32t-26 -27.5t-32.5 -21.5t-35.5 -15q-20 -6 -33 -6q-17 0 -28 8l-2 -2q-7 -6 -13.5 -1t-1.5 10q2 2 3.5 4t3.5 4q-1 3 -1.5 7t0.5 8q2 21 12.5 40t24 34t26.5 25.5t21 13.5q9 3 14.5 1.5t8.5 -5.5 t2 -8t-5 -5q-3 -2 -14 -9.5t-24.5 -19.5t-26 -28.5t-19.5 -35.5q0 -1 -0.5 -1t-0.5 -1q13 11 29.5 24t34 26.5t34.5 26t31 21.5q-11 11 -18 8q-8 -4 -12 -9.5t-2 -7.5q5 -2 -0.5 -1t-5.5 10q0 6 8 17t21 9q12 0 25 -16q10 7 13 7zM160 236q4 10 2 23q-12 -8 -29 -20 t-35 -25.5t-35 -26.5t-29 -23q8 -3 18 -2t19 5q12 3 25 9t25.5 15t23 20.5t15.5 24.5z" />
<glyph unicode="&#xf9;" horiz-adv-x="254" d="M271 233q11 13 18.5 9.5t-0.5 -16.5q-7 -10 -19.5 -22.5t-26.5 -23.5t-29.5 -20t-28.5 -12q-19 -7 -27 -3.5t-14 20.5q-3 7 -2 16.5t3 18.5q3 11 7 22q-13 -15 -29 -28q-14 -12 -31 -24.5t-37 -21.5q-14 -7 -28.5 -2t-20.5 25q-3 12 1.5 30t12 35.5t16 32t13.5 20.5 q6 6 13 7.5t12.5 -1t7 -7t-3.5 -10.5q-9 -10 -21.5 -30t-20.5 -39.5t-8.5 -32.5t13.5 -8t35.5 20t41 33t33.5 34.5t14 23.5q0 5 5 7t10.5 0.5t9.5 -6t2 -12.5q-1 -7 -7.5 -23.5t-12 -33.5t-7 -30t7.5 -13q18 0 46.5 19t51.5 46zM168 335q9 -5 1.5 -15.5t-18.5 -8.5 q-6 1 -15.5 10.5t-18.5 22t-16.5 25.5t-10.5 21q-3 6 -1.5 10t5.5 4.5t7.5 -1.5t3.5 -8q0 -4 8.5 -13.5t19 -19t21 -17.5t14.5 -10z" />
<glyph unicode="&#xfa;" horiz-adv-x="254" d="M271 233q11 13 18.5 9.5t-0.5 -16.5q-7 -10 -19.5 -22.5t-26.5 -23.5t-29.5 -20t-28.5 -12q-19 -7 -27 -3.5t-14 20.5q-3 7 -2 16.5t3 18.5q3 11 7 22q-13 -15 -29 -28q-14 -12 -31 -24.5t-37 -21.5q-14 -7 -28.5 -2t-20.5 25q-3 12 1.5 30t12 35.5t16 32t13.5 20.5 q6 6 13 7.5t12.5 -1t7 -7t-3.5 -10.5q-9 -10 -21.5 -30t-20.5 -39.5t-8.5 -32.5t13.5 -8t35.5 20t41 33t33.5 34.5t14 23.5q0 5 5 7t10.5 0.5t9.5 -6t2 -12.5q-1 -7 -7.5 -23.5t-12 -33.5t-7 -30t7.5 -13q18 0 46.5 19t51.5 46zM104 354q8 -2 22 0.5t29 7.5t28 11t19 9 q8 7 12 3.5t-1 -12.5q-3 -5 -15 -13t-27 -15.5t-30.5 -13t-25.5 -6.5q-9 -1 -14.5 3.5t-7 10.5t0.5 11t10 4z" />
<glyph unicode="&#xfb;" horiz-adv-x="254" d="M271 233q11 13 18.5 9.5t-0.5 -16.5q-7 -10 -19.5 -22.5t-26.5 -23.5t-29.5 -20t-28.5 -12q-19 -7 -27 -3.5t-14 20.5q-3 7 -2 16.5t3 18.5q3 11 7 22q-13 -15 -29 -28q-14 -12 -31 -24.5t-37 -21.5q-14 -7 -28.5 -2t-20.5 25q-3 12 1.5 30t12 35.5t16 32t13.5 20.5 q6 6 13 7.5t12.5 -1t7 -7t-3.5 -10.5q-9 -10 -21.5 -30t-20.5 -39.5t-8.5 -32.5t13.5 -8t35.5 20t41 33t33.5 34.5t14 23.5q0 5 5 7t10.5 0.5t9.5 -6t2 -12.5q-1 -7 -7.5 -23.5t-12 -33.5t-7 -30t7.5 -13q18 0 46.5 19t51.5 46zM126 360q-9 -3 -19 -5.5t-19 -1.5 q-8 0 -11.5 4t-3.5 8t2.5 7.5t7.5 3.5q23 -1 39.5 5.5t30.5 8.5q14 5 14 -14q0 -14 2 -25t22 -16q7 -2 6.5 -8.5t-9.5 -8.5q-12 -2 -21 4t-14.5 14.5t-7 17.5t1.5 13z" />
<glyph unicode="&#xfc;" horiz-adv-x="254" d="M271 233q11 13 18.5 9.5t-0.5 -16.5q-7 -10 -19.5 -22.5t-26.5 -23.5t-29.5 -20t-28.5 -12q-19 -7 -27 -3.5t-14 20.5q-3 7 -2 16.5t3 18.5q3 11 7 22q-13 -15 -29 -28q-14 -12 -31 -24.5t-37 -21.5q-14 -7 -28.5 -2t-20.5 25q-3 12 1.5 30t12 35.5t16 32t13.5 20.5 q6 6 13 7.5t12.5 -1t7 -7t-3.5 -10.5q-9 -10 -21.5 -30t-20.5 -39.5t-8.5 -32.5t13.5 -8t35.5 20t41 33t33.5 34.5t14 23.5q0 5 5 7t10.5 0.5t9.5 -6t2 -12.5q-1 -7 -7.5 -23.5t-12 -33.5t-7 -30t7.5 -13q18 0 46.5 19t51.5 46zM135 364q-5 -9 -15.5 -13t-16.5 1q-3 1 -7 5 t-6 8.5t-1 9t8 6.5q5 2 12 1t13 -4t10 -7t3 -7zM146 343q-2 9 5.5 13t20.5 2q11 -5 15.5 -16.5t-6.5 -18.5q-9 -5 -21 2t-14 18z" />
<glyph unicode="&#xfd;" horiz-adv-x="249" d="M82 286q-26 -30 -42.5 -59t-16.5 -47q0 -29 29 -16q15 6 35.5 24t40 39.5t34.5 42.5t18 33q4 9 16 2t10 -22q-2 -14 -9.5 -46t-22.5 -79q34 28 56 44t39 36q11 13 17.5 7.5t-1.5 -16.5q-11 -15 -44 -42.5t-79 -65.5q-2 -7 -5 -13.5t-5 -13.5q-34 -87 -75 -144.5 t-78 -82.5q-26 -17 -49 -17q-16 0 -24.5 9.5t-3.5 29.5q3 18 16.5 40t32 45.5t41.5 46.5t46 43q17 14 39.5 31.5t47.5 37.5q10 28 15.5 50t8.5 37q4 18 5 31q-20 -26 -40 -48q-17 -19 -36.5 -36.5t-36.5 -25.5q-14 -6 -26 -5t-20.5 7t-12.5 16t-2 22q1 13 6 28t12 30 t15 28.5t16 23.5q3 6 11 8.5t14.5 1.5t10 -4.5t-2.5 -10.5zM81 54q-22 -18 -43.5 -39.5t-40 -42.5t-32 -40t-19.5 -31q-13 -24 0.5 -29.5t35.5 8.5q12 5 29 21.5t35 40.5t35.5 52.5t30.5 58.5q5 11 9 20.5t9 20.5q-14 -12 -26.5 -22zM112 372q8 -2 22 0.5t29 7.5t28 11t19 9 q8 7 12 3.5t-1 -12.5q-3 -5 -15 -13t-27 -15.5t-30.5 -13t-25.5 -6.5q-9 -1 -14.5 3.5t-7 10.5t0.5 11t10 4z" />
<glyph unicode="&#xfe;" horiz-adv-x="252" d="M264 236q17 10 24.5 10.5t-1.5 -13.5q-10 -12 -29.5 -21.5t-40.5 -16.5t-40.5 -11.5t-29.5 -6.5q-17 -7 -26.5 -15.5t-22.5 -16.5q-8 -5 -14.5 -2.5t-11.5 8t-7.5 12t-1.5 11.5t7.5 7.5t15 3.5t16 1.5t10.5 1.5q10 3 23.5 13.5t26.5 24t22.5 28.5t11.5 27t-5 18t-20 6 t-28.5 -6t-30.5 -18q-22 -18 -39 -38.5t-34 -49t-36 -70t-44 -101.5q-13 -30 -21 -51t-17 -47q-5 -14 -13.5 -9t-6.5 29q2 7 13 34t24.5 59t26.5 63t19 48q3 6 10 22.5t17 40.5t23 54t27 63q5 12 14.5 33t21.5 45t24 50t22 47t17 36t9 18q2 6 6.5 11t8.5 5.5t6.5 -6 t1.5 -22.5q-2 -22 -15 -53.5t-30 -64.5t-35 -64t-30 -52q-18 -33 -24 -48t-7 -17q1 2 18 21.5t43 38.5q14 10 30 14.5t31 4.5q24 0 39 -12.5t5 -41.5q-5 -15 -12.5 -27t-15.5 -20q-9 -10 -19 -18q14 0 29 4q13 3 29.5 9t35.5 17z" />
<glyph unicode="&#xff;" horiz-adv-x="249" d="M82 286q-26 -30 -42.5 -59t-16.5 -47q0 -29 29 -16q15 6 35.5 24t40 39.5t34.5 42.5t18 33q4 9 16 2t10 -22q-2 -14 -9.5 -46t-22.5 -79q34 28 56 44t39 36q11 13 17.5 7.5t-1.5 -16.5q-11 -15 -44 -42.5t-79 -65.5q-2 -7 -5 -13.5t-5 -13.5q-34 -87 -75 -144.5 t-78 -82.5q-26 -17 -49 -17q-16 0 -24.5 9.5t-3.5 29.5q3 18 16.5 40t32 45.5t41.5 46.5t46 43q17 14 39.5 31.5t47.5 37.5q10 28 15.5 50t8.5 37q4 18 5 31q-20 -26 -40 -48q-17 -19 -36.5 -36.5t-36.5 -25.5q-14 -6 -26 -5t-20.5 7t-12.5 16t-2 22q1 13 6 28t12 30 t15 28.5t16 23.5q3 6 11 8.5t14.5 1.5t10 -4.5t-2.5 -10.5zM81 54q-22 -18 -43.5 -39.5t-40 -42.5t-32 -40t-19.5 -31q-13 -24 0.5 -29.5t35.5 8.5q12 5 29 21.5t35 40.5t35.5 52.5t30.5 58.5q5 11 9 20.5t9 20.5q-14 -12 -26.5 -22zM121 371q-5 -9 -15.5 -13t-16.5 1 q-3 1 -7 5t-6 8.5t-1 9t8 6.5q5 2 12 1t13 -4t10 -7t3 -7zM132 350q-2 9 5.5 13t20.5 2q11 -5 15.5 -16.5t-6.5 -18.5q-9 -5 -21 2t-14 18z" />
<glyph unicode="&#x131;" horiz-adv-x="138" d="M157 235q13 11 20.5 7t0.5 -11q-9 -9 -24 -22.5t-34.5 -26.5t-41.5 -24t-45 -14q-22 -5 -30 3t-8 26q0 11 7 28.5t16 34t18 28t14 11.5q6 0 13 -4.5t-2 -16.5q-6 -8 -16 -22.5t-17.5 -29.5t-9.5 -25.5t8 -10.5q19 1 38.5 9t37 19t32 22t23.5 19z" />
<glyph unicode="&#x141;" horiz-adv-x="356" d="M298 455q-9 -2 -30.5 -17.5t-53.5 -52.5q-15 -17 -43.5 -54.5t-59.5 -80.5q-8 -23 -16.5 -48.5t-16 -49.5t-13.5 -45l-10 -35q-3 -17 3.5 -23.5t17.5 -6.5q13 0 28 5.5t27 10.5q17 7 46.5 19.5t59.5 25t54.5 24.5t33.5 18q10 6 14 6t4.5 -3t-1.5 -8t-5 -9 q-5 -5 -27.5 -16t-52 -24.5t-61.5 -27t-54 -23.5q-32 -14 -52.5 -19.5t-33.5 -5.5q-17 0 -22.5 7t-7.5 15q-1 8 0 18.5t4.5 26.5t10.5 39.5t17 56.5q-23 -32 -36 -51q-8 -11 -14 -20q2 -2 2 -6q0 -8 -5 -15q-7 -8 -14.5 -20t-14.5 -12q-9 -2 -16 7t1 22q9 13 23.5 30.5 t40.5 56.5q8 13 23 33.5t32 43.5q18 54 37.5 106.5t37.5 95t31 70t17 32.5q4 4 11 3.5t13 -3t8.5 -6.5t-0.5 -6q-7 -7 -11 -22.5t-18 -44.5q-5 -13 -9 -27t-6.5 -26.5t-4.5 -21t-3 -9.5q-2 -2 -3 2.5t-2 10.5q-1 7 -1 16q-6 -13 -12 -28q-5 -13 -11.5 -29.5t-14.5 -35.5 q23 30 40.5 53t22.5 31q13 17 29 34.5t20 26.5q7 7 19 12t19 -3q9 -9 12 -15t-3 -8z" />
<glyph unicode="&#x142;" horiz-adv-x="178" d="M324 520q-8 1 -29.5 -4t-56.5 -22q-14 -39 -42.5 -83t-61.5 -86q-32 -41 -56.5 -66t-36.5 -36q-2 -9 -3 -16.5t-1 -14.5q0 -34 35 -28q18 3 38 12.5t37 20t30.5 21.5t18.5 17q11 11 16.5 5.5t-7.5 -20.5q-8 -9 -24 -22t-36 -25.5t-42.5 -22t-41.5 -11.5 q-26 -3 -35.5 14.5t-9.5 41.5q0 23 5 46q6 33 18 70.5t29 75.5q-9 -7 -16 -11t-12 -7q-6 -4 -11 -5q0 -3 -1 -6q-2 -6 -10 -12q-9 -5 -20.5 -13t-18.5 -6q-9 2 -12 10t9 16q13 10 33 20.5t58 37.5q5 3 9.5 6.5t9.5 6.5q21 44 44.5 81t46.5 63q29 32 48 32q14 0 20.5 -15 t4.5 -40q-1 -5 -1 -8.5t-1 -8.5q12 6 22 8t15 7q9 4 22.5 4.5t16.5 -10.5q5 -11 5.5 -14.5t-5.5 -2.5zM129 354q26 35 45 66t32 57q-21 -11 -46.5 -28t-50.5 -34q-21 -42 -38 -84t-25 -75q13 14 33.5 36t49.5 62zM229 545q2 26 -8 27.5t-32 -24.5q-14 -18 -29.5 -42 t-30.5 -53q28 18 52 33.5t36 24.5q1 0 3 2q7 18 9 32z" />
<glyph unicode="&#x152;" horiz-adv-x="817" d="M827 169q14 15 20.5 9t-6.5 -20q-6 -6 -32.5 -32t-71.5 -54.5t-107.5 -52t-141.5 -25.5q-64 -2 -98.5 23.5t-34.5 71.5q0 6 0.5 12.5t1.5 13.5q-14 3 -25 9q-42 -38 -99 -71t-125 -48q-17 -4 -37 -4q-39 0 -66 20.5t-31 58.5q-2 26 7 62t25 75t37 76.5t43 66.5 q44 60 85 99.5t70 44.5q13 3 21 0.5t11.5 -8.5t3 -14.5t-3.5 -15.5q-7 -15 -18 -22.5t-20 -9.5q-4 -2 -8 -4.5t-7 -3t-3.5 1t1.5 6.5q0 3 4.5 7.5t9.5 8.5l15 10q-5 1 -15 -3q-8 -4 -23 -14t-38 -30q-28 -26 -53.5 -60.5t-47 -73t-38 -78t-26.5 -74.5q-3 -11 -4 -20t-1 -17 q0 -36 21.5 -50t48.5 -14q17 0 37 5q32 9 62.5 21.5t56.5 27.5t47 30.5t35 30.5l-6 6t-6 9q-11 15 -16 36t-5 45q0 33 8 69t22 69.5t32 62t39 46.5q24 20 47 32.5t42 12.5q17 0 29.5 -11t18.5 -37q2 -10 3 -20t1 -20q0 -25 -5.5 -48.5t-13.5 -46.5q26 25 56 47q79 57 130 79 t73 22q15 0 24.5 -6t14.5 -14q6 -9 8 -20q1 2 4 4q2 2 4.5 3.5t6.5 1.5q2 0 6.5 -5t4.5 -10q0 -2 -5.5 -8t-13 -13.5t-15 -15.5t-10.5 -15q-6 -8 -7.5 -14t-2.5 -11t-4 -7.5t-12 -2.5q-7 0 -15 2.5t-8 10.5q0 6 6 18.5t13 25.5t13 23t6 12q0 10 -25 10q-5 0 -19 -2t-38 -12 t-59 -31t-81 -59q-72 -60 -111.5 -120t-53.5 -104h10t11 1q26 2 51.5 12t48 23.5t40.5 28.5t30 28q6 6 12.5 9.5t11.5 3.5t5.5 -3.5t-5.5 -12.5q-12 -17 -35 -37.5t-53 -38.5t-64.5 -29t-69.5 -9q-1 -3 -1 -6.5v-5.5q-2 -18 3.5 -34t19 -27t36 -17t56.5 -4q64 3 119 21.5 t97.5 42.5t72 48.5t42.5 39.5zM329 159q2 2 4.5 4t4.5 4q68 63 108 130.5t42 142.5q0 29 -6 43.5t-21 14.5q-13 0 -34 -12q-25 -14 -44.5 -37.5t-35 -53t-27 -61.5t-18.5 -62q-4 -16 -4 -33q0 -28 9.5 -48t21.5 -32zM353 144q2 -2 4.5 -2.5t5.5 -2.5q2 5 3.5 10.5t3.5 10.5 q-5 -5 -9 -8.5t-8 -7.5z" />
<glyph unicode="&#x153;" horiz-adv-x="339" d="M361 239q8 8 10.5 1.5t0.5 -12.5q-6 -10 -23 -25.5t-38.5 -30.5t-44.5 -27t-42 -16q-12 -3 -24 -2.5t-22 5.5t-15.5 15t-3.5 25q1 5 2 11t3 12q-15 -3 -26 0l-13.5 -13.5t-17.5 -17t-17 -16.5t-14 -11q-20 -10 -35 -10q-26 0 -34 38q-3 14 0 32t10 36t17 32.5t22 21.5 q22 8 28.5 -1t0.5 -14q-9 -2 -19.5 -11t-15.5 -18q-11 -13 -17.5 -35t-4.5 -36q2 -13 9.5 -18t27.5 6q4 2 11 8t14.5 13.5l14.5 14.5l12 12q-8 12 -7 32q2 31 12.5 50t34.5 26q20 5 29 -4.5t9 -24.5q0 -11 -7.5 -28.5t-30.5 -43.5q2 0 6 0.5t9 1.5q9 20 22 37t27 30 q20 20 40.5 23.5t27.5 -2.5t6.5 -17.5t-6.5 -24t-17 -24.5t-24 -20q-32 -18 -56 -20q-2 -7 -6 -13t-4 -19q0 -12 10 -15t21 -3q14 1 36 11.5t44.5 25t41 29.5t26.5 24zM161 256q4 5 7.5 13t4.5 15t-2.5 10.5t-14.5 -1.5t-19.5 -20.5t-6.5 -35.5q0 -8 4 -14q4 4 13 16t14 17z M229 261q-10 -11 -14 -19t-11 -19q10 1 22.5 9t23.5 17.5t18 19t6 15.5q-1 4 -6 3t-11.5 -4.5t-14 -9.5t-13.5 -12z" />
<glyph unicode="&#x160;" horiz-adv-x="433" d="M238 637q-2 -5 -3.5 -13.5t-2.5 -16.5t0 -14.5t3 -7.5q2 -2 13 -1t24.5 4.5t27 8t19.5 8.5q3 3 3.5 1t-1.5 -6.5t-6 -10t-8 -7.5q-6 -5 -17 -8.5t-22.5 -6.5t-21.5 -5t-14 -3q-7 -2 -12.5 1t-7.5 16q-2 11 -2 29t5 29q1 7 5 10.5t8.5 3.5t7.5 -2.5t2 -8.5zM444 232 q17 11 25 14t2 -14q-4 -11 -26 -25t-50.5 -27.5t-58.5 -25t-49 -15.5q-2 -22 -11 -48.5t-27 -53.5t-45 -53t-65 -48q-34 -19 -56 -19q-17 0 -24.5 10t-7.5 26q0 32 28 74q16 25 39 45.5t48 36.5t50.5 27.5t47.5 18.5q0 6 -0.5 10.5t-2.5 9.5q-2 17 -16 34.5t-34.5 34t-44 32 t-45.5 28t-39 22.5t-23 17q-23 20 -23 46q0 12 6 25t20 25q23 21 61 38.5t80 31t82.5 21.5t67.5 10q11 1 25 0t27.5 -5t23.5 -11t13 -18q7 -22 3 -32t-10 -23q-3 -7 -5 -10.5t-3 -6.5t-1 -5.5v-6.5q0 -5 -3 -10.5t-7 -10.5q-4 -6 -10 -11q-7 -3 -10 -3t-5 3t-3.5 7.5 t-4.5 9.5q-2 11 10.5 30.5t23.5 36.5t-4.5 29t-41.5 12q-33 0 -71 -6.5t-76 -18t-73.5 -28t-62.5 -36.5q-15 -11 -21 -20.5t-6 -17.5q0 -9 7 -18t18 -17t24.5 -16t27.5 -17q21 -13 47 -30.5t49 -38t38.5 -43t14.5 -46.5q15 3 34 9.5t40 16t42.5 21t40.5 23.5zM121 -50 q67 37 100 83t43 98q-16 -5 -39.5 -16t-48 -27t-46.5 -36t-36 -42q-19 -33 -19 -52q0 -14 10.5 -17.5t35.5 9.5z" />
<glyph unicode="&#x161;" horiz-adv-x="175" d="M75 415q-2 -5 -3.5 -13.5t-2.5 -16.5t0 -14.5t3 -7.5q2 -2 13 -1t24.5 4.5t27 8t19.5 8.5q3 3 3.5 1t-1.5 -6.5t-6 -10t-8 -7.5q-6 -5 -17 -8.5t-22.5 -6.5t-21.5 -5t-14 -3q-7 -2 -12.5 1t-7.5 16q-2 11 -2 29t5 29q1 7 5 10.5t8.5 3.5t7.5 -2.5t2 -8.5zM88 293 q-5 -1 -12.5 -6.5t-15 -12.5t-12.5 -14t-5 -11q1 -10 9.5 -21t18.5 -21.5t18.5 -20t9.5 -16.5q16 7 43 24t55 46q12 12 15.5 5t-1.5 -13q-5 -10 -18 -22t-28.5 -24t-32.5 -22.5t-30 -16.5q-5 -15 -20 -22.5t-23 -9.5q-11 -2 -21.5 -0.5t-18 5.5t-10 9t2.5 9q11 7 31 10.5 t33 14.5q2 9 -7 20t-21 22.5t-21.5 24t-7.5 24.5q1 12 8 23.5t15.5 20t17 13.5t11.5 5q13 -1 17.5 -11t-0.5 -12z" />
<glyph unicode="&#x178;" horiz-adv-x="500" d="M355 533q-5 -9 -15.5 -13t-16.5 1q-3 1 -7 5t-6 8.5t-1 9t8 6.5q5 2 12 1t13 -4t10 -7t3 -7zM366 512q-2 9 5.5 13t20.5 2q11 -5 15.5 -16.5t-6.5 -18.5q-9 -5 -21 2t-14 18zM196 486q-13 17 -8 24t15 4.5t17 -14t-3 -30.5q-16 -32 -54 -80.5t-76 -108.5 q-11 -18 -20.5 -37t-15.5 -35t-8 -27t2 -12q7 -2 19 0t33 10.5t53.5 25t80.5 43.5q37 21 82.5 50t86.5 58.5t71 55.5t36 40t15.5 16t17.5 -4t11.5 -18t-1.5 -25q-5 -10 -19 -39.5t-34.5 -70t-45.5 -88.5t-52 -95q66 -3 114 -26t66 -58q7 -13 7 -30q0 -19 -9 -33.5t-25 -14.5 t-13.5 12t20.5 18q10 7 8.5 19t-10.5 25.5t-24.5 26t-33.5 19.5q-51 20 -112 20q-14 -23 -28.5 -45t-28.5 -42q-41 -57 -82 -99.5t-80.5 -70t-77 -39t-71.5 -4.5q-38 8 -38 48q0 19 10.5 44t32.5 52.5t55.5 56.5t79.5 56q55 32 109 47.5t104 17.5q23 41 49 90t48 94 q26 51 50 104q-48 -39 -97 -75q-42 -31 -91 -62.5t-92 -51.5q-31 -15 -59.5 -30.5t-53.5 -28t-45.5 -20.5t-35.5 -8q-21 0 -29 17q-3 8 -0.5 21.5t8.5 29.5t14 31.5t16 27.5q5 8 13.5 22t19.5 30.5t23.5 35.5t24.5 37q28 43 61 93zM268 86q-79 -30 -142.5 -74.5 t-101.5 -105.5q-8 -12 -12 -24t-4 -22q0 -15 9 -24.5t28 -9.5t49 12q37 16 73.5 44.5t70.5 64.5t64.5 77t55.5 82q-45 -3 -90 -20z" />
<glyph unicode="&#x17d;" horiz-adv-x="402" d="M291 623q-2 -5 -3.5 -13.5t-2.5 -16.5t0 -14.5t3 -7.5q2 -2 13 -1t24.5 4.5t27 8t19.5 8.5q3 3 3.5 1t-1.5 -6.5t-6 -10t-8 -7.5q-6 -5 -17 -8.5t-22.5 -6.5t-21.5 -5t-14 -3q-7 -2 -12.5 1t-7.5 16q-2 11 -2 29t5 29q1 7 5 10.5t8.5 3.5t7.5 -2.5t2 -8.5zM203 487 q12 1 31 5.5t41 9.5t45 10.5t44 8.5q15 2 30 3.5t29 1.5q21 0 32.5 -7t3.5 -27q-4 -11 -22 -29.5t-45 -40t-59.5 -45.5t-64 -46.5t-60 -42t-47.5 -33.5q-28 -21 -60 -46t-57 -49t-38.5 -43.5t-4.5 -28.5q14 -18 56 -18q40 0 108 14q66 13 115.5 28.5t71.5 37.5q15 15 22 17 t-2 -20q-5 -15 -26 -28t-51 -24.5t-65.5 -21t-69.5 -16t-64 -10t-48 -2.5q-38 2 -58 13t-20 33q0 14 11 36q7 14 27 34t46.5 42.5t57 45.5t58.5 43.5t51 36.5t35 24q20 13 48.5 34.5t55 43t46 39t21.5 22.5q1 6 -9.5 7t-26 -0.5t-33.5 -4t-32 -5.5q-21 -4 -41 -10t-38 -11.5 t-34.5 -7.5t-31.5 1q-17 4 -18.5 15.5t9.5 15.5q7 5 13.5 -0.5t17.5 -4.5z" />
<glyph unicode="&#x17e;" horiz-adv-x="158" d="M179 231q11 14 18.5 9.5t-2.5 -15.5q-9 -11 -17.5 -21t-19 -23t-24 -29t-31.5 -39q-7 -39 -16.5 -83.5t-29.5 -79.5q-31 -67 -66.5 -101.5t-55.5 -34.5q-15 2 -21 11t-6 22q0 10 2.5 20t6.5 20q14 39 41.5 82t66.5 89q13 15 26 32t31 37q1 13 1.5 23.5t1.5 17.5q1 8 1 14 q-23 -11 -42 -22q-17 -9 -31.5 -17.5t-19.5 -13.5q-6 -6 -17 1t-9 18q2 4 9 16t15 27t16.5 29t14.5 23q4 8 11 20t14.5 24t14.5 22t12 13q9 8 18 2t2 -17q-3 -8 -11 -20t-18.5 -26t-21.5 -30t-21 -31q-5 -9 -9.5 -16.5t-8.5 -13.5q-4 -7 -9 -12q25 13 45 24q17 9 32 17 t17 10q6 2 16 -2.5t10 -15.5q0 -5 -2 -13.5t-4 -24.5q29 35 46 53t24 25zM60 16q5 17 9.5 35t6.5 33q-24 -31 -42 -53.5t-27 -33.5q-10 -13 -21.5 -29t-22.5 -33t-19.5 -34t-11.5 -32q-7 -26 -0.5 -28.5t17.5 2.5q33 20 62 68t49 105zM106 446q-2 -5 -3.5 -13.5t-2.5 -16.5 t0 -14.5t3 -7.5q2 -2 13 -1t24.5 4.5t27 8t19.5 8.5q3 3 3.5 1t-1.5 -6.5t-6 -10t-8 -7.5q-6 -5 -17 -8.5t-22.5 -6.5t-21.5 -5t-14 -3q-7 -2 -12.5 1t-7.5 16q-2 11 -2 29t5 29q1 7 5 10.5t8.5 3.5t7.5 -2.5t2 -8.5z" />
<glyph unicode="&#x192;" horiz-adv-x="352" d="M-28 199q4 -1 19 0t34.5 3t41 5t38.5 6h2q17 39 36.5 81.5t36.5 79.5t30.5 64.5t19.5 35.5q9 13 18.5 18t19.5 5q14 0 26 -8.5t17 -17.5q9 -15 12.5 -29t5.5 -23q2 -13 -5.5 -22t-12.5 2q-7 38 -17.5 53t-21.5 15q-13 0 -27 -16q-7 -10 -20 -36t-28.5 -59.5t-31.5 -70 t-29 -66.5q30 8 55 17.5t36 17.5q6 3 10.5 -0.5t6.5 -10t0 -14t-11 -10.5q-17 -6 -47.5 -17.5t-65.5 -18.5q-10 -22 -23.5 -52.5t-28.5 -64t-29.5 -68t-28 -64.5t-24.5 -53t-17 -33q-14 -25 -30 -25q-8 0 -14.5 6t-10.5 13q-11 15 -7 28t13 13q4 -1 5.5 -5.5t3 -10t4 -9.5 t7.5 -4q6 0 21 29.5t34 71.5t39 88.5t34 79.5q5 11 10.5 25t13.5 31q-36 -5 -65 -8t-43 -1q-8 1 -13 6t-6.5 10.5t0 9.5t7.5 3z" />
<glyph unicode="&#x2c6;" horiz-adv-x="172" d="M71 533q-9 -3 -19 -5.5t-19 -1.5q-8 0 -11.5 4t-3.5 8t2.5 7.5t7.5 3.5q23 -1 39.5 5.5t30.5 8.5q14 5 14 -14q0 -14 2 -25t22 -16q7 -2 6.5 -8.5t-9.5 -8.5q-12 -2 -21 4t-14.5 14.5t-7 17.5t1.5 13z" />
<glyph unicode="&#x2c7;" horiz-adv-x="156" d="M52 553q-2 -5 -3.5 -13.5t-2.5 -16.5t0 -14.5t3 -7.5q2 -2 13 -1t24.5 4.5t27 8t19.5 8.5q3 3 3.5 1t-1.5 -6.5t-6 -10t-8 -7.5q-6 -5 -17 -8.5t-22.5 -6.5t-21.5 -5t-14 -3q-7 -2 -12.5 1t-7.5 16q-2 11 -2 29t5 29q1 7 5 10.5t8.5 3.5t7.5 -2.5t2 -8.5z" />
<glyph unicode="&#x2d8;" horiz-adv-x="140" d="M39 546q-2 -5 -3.5 -12t-1 -14.5t4 -13t11.5 -7.5q10 -3 20 1t19 10t17 13t14 11q6 6 8 -2.5t-4 -15.5q-6 -8 -17 -16t-23.5 -13.5t-25 -7.5t-21.5 1q-6 2 -15 18.5t-3 44.5q3 12 12.5 12.5t7.5 -9.5z" />
<glyph unicode="&#x2d9;" horiz-adv-x="123" d="M46 515q-4 2 -4.5 5.5t-0.5 6.5q0 4 2 8l3 3q2 7 5.5 11t12.5 4q4 -1 8 -6.5t5.5 -12.5t0.5 -12.5t-5 -6.5q-9 -2 -14.5 -5.5t-12.5 5.5z" />
<glyph unicode="&#x2da;" horiz-adv-x="174" d="M37 518q6 11 19.5 20.5t26.5 10.5q14 1 28 -3t27 -19q13 -18 13 -32t-12 -29q-11 -14 -29.5 -20.5t-37.5 -6.5q-9 0 -17.5 1.5t-14.5 5.5q-8 5 -10.5 12.5t-2.5 16.5q0 19 8 33q-2 5 2 10zM57 502q-7 -7 -9.5 -14t-2.5 -13q0 -19 35 -18q15 1 32.5 11.5t19.5 23.5 q2 11 -8 23.5t-24 14.5q-13 2 -23.5 -3t-17.5 -12q2 -2 2.5 -5t-4.5 -8z" />
<glyph unicode="&#x2db;" horiz-adv-x="174" d="M90 137q-5 -5 -15.5 -18.5t-16.5 -27.5l-4 -10t-1.5 -10.5t5.5 -9.5t17 -5q26 -4 41 1.5t26 10.5q6 3 7 -0.5t-5 -8.5q-8 -7 -27 -13t-43 -4q-22 2 -33.5 13.5t-3.5 35.5q9 26 19.5 39.5t15.5 15.5q7 2 15 -1t3 -8z" />
<glyph unicode="&#x2dc;" horiz-adv-x="170" d="M23 541q3 4 10 7.5t15 5.5t15.5 1.5t11.5 -3.5q6 -2 8 -8.5t3 -14t2.5 -14t4.5 -9.5q4 -2 11 -1t14 4t13 7t8 7q2 4 7 -2.5t-4 -14.5q-9 -7 -25.5 -14t-29.5 -1q-7 2 -10 8t-5 12.5t-3.5 12.5t-4.5 8q-3 3 -8 2t-10.5 -4t-10 -7t-6.5 -6t-5.5 -1t-5 4.5t-1 8.5t5.5 12z " />
<glyph unicode="&#x2dd;" horiz-adv-x="241" d="M221 516q-8 -1 -26 -13t-37.5 -27t-35.5 -29t-20 -19q-5 -9 -9.5 -7.5t-3.5 11.5q1 6 14.5 22.5t31 34.5t35 34t26.5 21q7 4 15 1t12.5 -9t4.5 -12t-7 -8zM146 530q-8 -1 -26 -13t-37.5 -27t-35.5 -29t-20 -19q-5 -9 -9.5 -7.5t-3.5 11.5q1 6 14.5 22.5t31 34.5t35 34 t26.5 21q7 4 15 1t12.5 -9t4.5 -12t-7 -8z" />
<glyph unicode="&#x3c0;" horiz-adv-x="500" d="M72 329q-2 -9 1.5 -19t-4.5 -19q-9 -13 -15 -8t-8 14q-5 19 14 55q2 6 10.5 19.5t26.5 28t46.5 27t70.5 15.5q18 1 42 -2.5t47 -8.5t43.5 -10.5t32.5 -7.5q16 -2 27 -3.5t19.5 -2.5t14.5 0t14 3q18 7 22 -0.5t-4 -13.5q-15 -11 -43 -11q-18 0 -40 4t-45 9v-2 q0 -7 -4.5 -17.5t-10.5 -23t-12 -27t-8 -28.5q-2 -12 -4.5 -25.5t-2.5 -27.5q0 -16 6.5 -28.5t24.5 -14.5q28 -5 53 1t34 11q5 1 9.5 -1.5t6 -6t-0.5 -8t-10 -7.5q-15 -5 -41 -9.5t-54 0.5q-31 5 -44 23t-11 55q2 21 8 43t12.5 41.5l11.5 34.5t5 20q0 3 1 4q-20 5 -40 8 t-39 5q-2 -5 -7.5 -21.5t-14 -37.5t-19 -44t-20.5 -41q-15 -26 -28 -46t-23 -34q-11 -17 -21 -30q3 1 5 1q3 0 0 -4q-6 -9 -16 -14l-18 -9q-5 -3 -9 -1.5t-6.5 5.5t-2 10t5.5 12q4 5 12 12.5t19.5 21t26.5 35t35 55.5q9 16 17 35.5t13.5 38t9 33.5t3.5 23 q-29 -3 -50.5 -14.5t-36.5 -25.5t-24 -27.5t-13 -21.5z" />
<glyph unicode="&#x2013;" horiz-adv-x="344" d="M263 238q-5 0 -12 1t-17 1.5t-25 0.5h-19.5t-23.5 -1q-18 -1 -34.5 -3.5t-30.5 -5t-26 -4t-19 0.5q-13 2 -16 10t10 15q14 8 51.5 11.5t75.5 3.5q37 2 68.5 -2t47.5 -9q13 -2 15.5 -10t-11.5 -15q-7 -2 -12.5 -1.5t-10.5 2.5t-11 5z" />
<glyph unicode="&#x2014;" horiz-adv-x="426" d="M340 244q-5 0 -12 1t-17 1.5t-25 0.5h-19.5t-23.5 -1q-18 -1 -46.5 -4.5l-57 -7t-52.5 -6t-31 -0.5q-13 2 -16 10t10 15q7 4 31 7t55 5.5t63 4.5t55 4q37 2 68.5 -2t47.5 -9q13 -2 15.5 -10t-11.5 -15q-7 -2 -12.5 -1.5t-10.5 2.5t-11 5z" />
<glyph unicode="&#x2018;" horiz-adv-x="112" d="M64 409q3 -3 1 -6.5t-6 -5.5t-9 -2t-9 4q-7 8 -10 28.5t2 35.5q4 21 13.5 30t17.5 11q10 2 13 -4.5t-4 -9.5q-5 -3 -10 -9.5t-7 -17.5q-2 -5 -2 -13t1.5 -16t3.5 -15t5 -10z" />
<glyph unicode="&#x2019;" horiz-adv-x="137" d="M126 513q-3 7 -0.5 13t7.5 8t10.5 0t8.5 -10q4 -6 3 -20t-5 -29t-9.5 -29t-8.5 -20q-5 -16 -12 -14.5t-5 8.5q2 4 5.5 15.5t5.5 26t2.5 28.5t-2.5 23z" />
<glyph unicode="&#x201a;" horiz-adv-x="94" d="M34 158q-3 7 -0.5 13t7.5 8t10.5 0t8.5 -10q4 -6 3 -20t-5 -29t-9.5 -29t-8.5 -20q-5 -16 -12 -14.5t-5 8.5q2 4 5.5 15.5t5.5 26t2.5 28.5t-2.5 23z" />
<glyph unicode="&#x201c;" horiz-adv-x="165" d="M60 432q0 -8 -4 -12t-9 -4t-9.5 3.5t-5.5 11.5q-1 5 -1.5 18t1.5 27.5t7 28.5t14 20q15 7 20.5 0t-1.5 -10q-9 -5 -11.5 -15t-2.5 -22q0 -13 1 -25.5t1 -20.5zM117 409q3 -3 1 -6.5t-6 -5.5t-9 -2t-9 4q-7 8 -10 28.5t2 35.5q4 21 13.5 30t17.5 11q10 2 13 -4.5t-4 -9.5 q-5 -3 -10 -9.5t-7 -17.5q-2 -5 -2 -13t1.5 -16t3.5 -15t5 -10z" />
<glyph unicode="&#x201d;" horiz-adv-x="199" d="M119 496q-7 16 -7.5 23t10.5 12q6 2 13.5 -5t9.5 -24q1 -9 -1.5 -19.5t-7.5 -21.5t-12 -21t-14 -16q-13 -11 -18.5 -6t1.5 12q3 2 8.5 9t10.5 17t7.5 20.5t-0.5 19.5zM185 517q-3 7 -0.5 13t7.5 8t10.5 0t8.5 -10q4 -6 3 -20t-5 -29t-9.5 -29t-8.5 -20q-5 -16 -12 -14.5 t-5 8.5q2 4 5.5 15.5t5.5 26t2.5 28.5t-2.5 23z" />
<glyph unicode="&#x201e;" horiz-adv-x="162" d="M34 151q-7 16 -7.5 23t10.5 12q6 2 13.5 -5t9.5 -24q1 -9 -1.5 -19.5t-7.5 -21.5t-12 -21t-14 -16q-13 -11 -18.5 -6t1.5 12q3 2 8.5 9t10.5 17t7.5 20.5t-0.5 19.5zM100 172q-3 7 -0.5 13t7.5 8t10.5 0t8.5 -10q4 -6 3 -20t-5 -29t-9.5 -29t-8.5 -20q-5 -16 -12 -14.5 t-5 8.5q2 4 5.5 15.5t5.5 26t2.5 28.5t-2.5 23z" />
<glyph unicode="&#x2020;" horiz-adv-x="362" d="M45 394q6 -1 13 -3t16 -3.5t22 -2.5t33 0q11 0 21.5 0.5t21.5 1.5q5 26 8 46t4 28q4 22 3.5 45t8.5 36q3 6 9 8t11.5 1t9.5 -5t3 -10q0 -11 -9.5 -34.5t-14.5 -52.5q-2 -6 -4.5 -22t-7.5 -39q17 2 32.5 3.5t31.5 5.5q21 5 38 9.5t28 2.5q11 -5 12 -16t-6 -11 q-5 2 -15.5 3.5t-30.5 -3.5q-12 -2 -38 -5.5t-55 -6.5q-5 -30 -11 -65t-12 -71t-11.5 -70t-10 -60.5t-7 -43t-2.5 -17.5q0 -13 4 -16.5t2 -12.5q-2 -8 -12.5 -8t-14.5 8q-2 6 0 24t6 42t9 50.5t8 48.5q2 13 5.5 35t7.5 47.5t8.5 53t9.5 52.5q-13 -2 -24.5 -3t-21.5 -2 q-9 -1 -17 -1h-14q-17 0 -26.5 2t-17.5 5q-11 5 -13.5 16.5t10.5 9.5z" />
<glyph unicode="&#x2021;" horiz-adv-x="346" d="M64 176q8 -2 20.5 -4t43.5 0q2 6 2.5 12.5t2.5 13.5q2 13 5.5 34t7.5 46.5t8.5 53.5t9.5 54q-20 -3 -34 -3q-9 -2 -17 -2h-15q-20 0 -33.5 2.5t-21.5 4.5q-5 2 -8 7t-4 9.5t1.5 7.5t7.5 2q13 -2 31 -6.5t53 -2.5h21.5t21.5 1q5 31 9.5 53.5t6.5 30.5q2 22 2 41.5t6 30.5 q3 6 9 8t12 1t10 -5t4 -10q-2 -11 -11.5 -34.5t-14.5 -52.5q-2 -8 -4.5 -23.5t-6.5 -36.5l32 4t31 4q22 2 39 8t28 4q5 -1 8 -5.5t3.5 -9t0 -8.5t-2.5 -4q-7 2 -18.5 3.5t-31.5 -3.5l-39 -6t-54 -8q-4 -23 -9 -50t-9.5 -55t-9.5 -56.5t-9 -53.5q38 2 62 12t39 12q14 4 20 1 t-2 -10q-9 -7 -30.5 -16t-65.5 -16q-8 -2 -14 -2.5t-13 -1.5q-6 -38 -10 -62.5t-4 -26.5q0 -6 2 -10t3.5 -6.5t2 -5.5t-1.5 -7q-2 -8 -12 -9t-14 9q-5 13 0.5 45.5t13.5 70.5q-23 -2 -41.5 -0.5t-36.5 6.5q-12 3 -17 9t-5 12t3 10t8 4q8 0 13 -6.5t16 -8.5z" />
<glyph unicode="&#x2022;" horiz-adv-x="181" d="M88 279q14 2 30.5 1t24.5 -18q9 -17 1.5 -38.5t-27.5 -37.5q-22 -17 -40.5 -21t-31.5 -2q-33 10 -21 47q5 23 22.5 44t41.5 25z" />
<glyph unicode="&#x2026;" horiz-adv-x="345" d="M157 159q-4 2 -4.5 5.5t-0.5 6.5q0 4 2 8l3 3q2 7 5.5 11t12.5 4q4 -1 8 -6.5t5.5 -12.5t0.5 -12.5t-5 -6.5q-9 -2 -14.5 -5.5t-12.5 5.5zM42 151q-4 2 -4.5 5.5t-0.5 6.5q0 4 2 8l6 7q2 7 4 9t11 2q9 -2 12 -10.5t-1 -16.5q-2 -2 -5.5 -6t-7.5 -6.5t-8.5 -3t-7.5 4.5z M283 156q-4 2 -4.5 5.5t-0.5 6.5q0 4 2 8l3 3q2 7 5.5 11t12.5 4q4 -1 8 -7t5.5 -12.5t0.5 -12t-5 -6.5q-9 -2 -14.5 -5.5t-12.5 5.5z" />
<glyph unicode="&#x2030;" horiz-adv-x="478" d="M463 270q2 -29 -14 -54t-31 -40q-7 -7 -17 -13t-21 -9.5t-22.5 -3t-21.5 5.5q-17 9 -17 28q0 22 21 51q3 4 8 11.5t11.5 15.5t14.5 14.5t17 8.5q-2 7 4 9t11 2q3 1 12 2t18.5 -0.5t17.5 -8t9 -19.5zM412 199q17 20 23.5 35.5t4.5 32.5q-2 13 -9.5 11.5t-18.5 -1.5 q2 -2 -4.5 -5.5t-12.5 -8.5q-7 -5 -14 -10.5t-14 -13.5q-8 -9 -14 -19t-10 -19t-4 -16.5t6 -10.5q11 -5 31 0t36 25zM54 366q-9 -18 -9.5 -34.5t6.5 -20.5q7 -5 24 0.5t34 16.5q17 13 26.5 24t14.5 22q3 10 3.5 18t0.5 15l-2 14q-10 1 -20 3q-8 2 -17.5 4t-14.5 7 q-13 9 -12 16.5t21 9.5q8 2 17.5 0t17.5 -6q9 -4 17 -11q12 -1 25 -1q11 0 24 1t27 3q26 7 43.5 17.5t25.5 17.5q3 3 9.5 1t12 -6.5t7 -10.5t-5.5 -10q-5 -5 -18.5 -14.5t-31 -22.5t-36 -29t-33.5 -33q-35 -38 -65 -78t-52 -73t-33 -54t-6 -21t11 5.5t11 13t8.5 14.5t4.5 10 q0 7 7 8.5t7 -5.5q2 -4 -1.5 -14t-10.5 -21.5t-15.5 -21t-15.5 -12.5q-14 -7 -24 -0.5t-5 20.5q1 7 11 26.5t24 43t30 48t30 41.5q24 32 46.5 57t39.5 44q20 21 39 39q-8 -2 -17 -3q-15 -3 -32 -3q-7 -2 -12.5 -2.5t-10.5 -1.5t-9 -2q3 -7 3 -16q0 -8 -2 -17.5t-7 -21.5 q-5 -10 -14 -21.5t-22.5 -22.5t-30 -19t-34.5 -10q-24 -4 -32 12.5t-6 40.5q0 10 5 23.5t12.5 26.5t16.5 24t18 15q7 3 12 1t7.5 -6.5t1.5 -9t-4 -5.5q-11 -5 -22 -15.5t-18 -27.5zM329 279q4 -11 1 -24.5t-9.5 -27t-16 -25.5t-16.5 -19t-17 -13t-21 -9.5t-22.5 -3 t-21.5 5.5t-14 15t-4 21q0 21 9 38q2 4 7 11.5t12 15.5t15 14.5t17 8.5q-2 7 1 11t8 4q3 1 13 2t21 -0.5t22 -7t16 -17.5zM282 206q17 20 24.5 41t-0.5 29q-9 9 -22 7.5t-24 -1.5q2 -2 4 -6t-4 -9q-3 -2 -7 -3t-8 -3t-9.5 -6.5t-11.5 -13.5q-12 -17 -16 -35t7 -25 q11 -5 31 0t36 25z" />
<glyph unicode="&#x2039;" horiz-adv-x="168" d="M149 430q-6 -4 -22.5 -26t-34.5 -48q-21 -30 -45 -68q12 -37 23 -67q9 -26 18.5 -48.5t16.5 -26.5q8 -5 12 -11.5t3 -12t-6 -8t-15 2.5q-10 3 -22.5 26t-24 50t-20.5 51t-11 29q-7 14 -3 25t15 25q5 6 18.5 25t29 39.5t30 38t20.5 21.5t11.5 3.5t8.5 -4t3 -8.5t-5 -8z " />
<glyph unicode="&#x203a;" horiz-adv-x="161" d="M18 415q-7 11 1 17t19 -2q6 -5 17.5 -21t24.5 -35t25 -36.5t17 -23.5q11 -14 14.5 -25t-2.5 -24q-2 -6 -10.5 -26.5t-19.5 -44t-22.5 -44.5t-20.5 -28q-11 -8 -16.5 4t5.5 25q4 8 13.5 30t18.5 45q11 27 23 59q-15 24 -28 45q-11 18 -24 36.5t-21 28.5q-2 2 -7 8t-7 12z " />
<glyph unicode="&#x2044;" horiz-adv-x="355" d="M299 409q-4 -3 -18 -15.5t-32.5 -30t-39 -38.5t-37.5 -40q-17 -20 -35.5 -40.5t-35 -38t-28 -29.5t-12.5 -14q-13 -15 -13 -23.5t-7 -8.5t-11.5 9.5t8.5 25.5q6 7 20 24t33 38.5t40.5 45t42.5 45.5q44 46 69 76t39 35q15 6 19.5 -4t-2.5 -17z" />
<glyph unicode="&#x20ac;" horiz-adv-x="330" d="M65 329q4 6 7.5 12.5t8.5 12.5q14 21 34 39.5t40.5 33.5t39 25.5t29.5 14.5q18 9 37 9q13 0 23 -4.5t15 -13.5q5 -8 9 -18t6.5 -19t3.5 -15.5t1 -7.5q-2 -5 -5 -9.5t-12 -4.5q-11 3 -8 16q2 8 -3 24t-13 24q-17 10 -46 -1.5t-84 -52.5q-20 -15 -34 -31t-24 -33 q35 3 54.5 5t30.5 3.5t17 3t14 2.5q17 2 24 -3t-5 -10q-16 -5 -47.5 -10t-78.5 -9q-6 -1 -11 -1.5t-10 -1.5q-8 -16 -11 -30.5t-3 -27.5q11 1 30 1.5t39 1.5t38 2.5t27 3.5q15 2 20.5 -5.5t-8.5 -12.5q-6 -2 -22.5 -4t-37.5 -4t-43.5 -4t-40.5 -3q5 -29 25 -51t66 -26 q24 -3 46 2t40 12.5t30.5 14.5t15.5 9q5 4 12.5 3t-1.5 -11q-6 -9 -19.5 -18.5t-31.5 -17t-40 -12.5t-44 -5q-26 0 -50 8.5t-41 28.5q-25 30 -30 62h-6q-25 0 -42 -3.5t-25 4.5q-7 7 0 15.5t15 12.5q8 2 15.5 7t11.5 2q4 -4 2 -8q-1 -2 -4 -4q4 -1 9 -1q5 -1 10 -1h12 q2 30 13 56q-25 -3 -38.5 -2.5t-23.5 2.5q-13 2 -14.5 12.5t11.5 12.5q9 2 18.5 -1t17.5 -3z" />
<glyph unicode="&#x2122;" horiz-adv-x="237" d="M89 327q4 3 10.5 10t12.5 15t11 15t7 9q2 5 7 3.5t5 -6.5q-2 -7 -2 -18t2 -11q1 0 4.5 3.5t7.5 8t8 9.5t6 8q5 9 8 7t3 -7q0 -7 0.5 -16t5.5 -16t7.5 -8t4.5 -1q5 0 6.5 -3t-0.5 -5q-5 0 -13.5 1.5t-13.5 9.5q-4 9 -5 16t-3 7q-1 0 -4 -3.5t-7 -8l-8 -9t-7 -5.5 q-12 -4 -12 9v20q-3 -5 -7 -9q-7 -9 -10 -17q-5 -6 -7.5 -10.5t-4.5 -6.5q-5 -7 -10.5 -1.5t-1.5 10.5zM34 379q8 1 14 0t24 1q9 1 23 4t21 1q4 -2 4 -7t-4 -5q-5 2 -10.5 2t-18.5 -2q-2 -1 -6 -1l-5.5 -11t-6.5 -20q-5 -11 -2 -17t5 -6q2 -2 -1 -6.5t-8 0.5q-9 5 -5 29 q1 8 4.5 16t5.5 13q-11 -1 -21 -1.5t-16 1.5t-5 5t8 4z" />
<glyph unicode="&#x2126;" horiz-adv-x="581" d="M193 173q-17 11 -30 29q-11 15 -20 40t-9 62q0 29 7 63q7 28 16.5 52t24.5 43t36.5 33.5t53.5 25.5q12 5 24.5 6.5t26.5 1.5q24 0 47.5 -6t43.5 -15.5t33.5 -22.5t18.5 -28q5 -14 6.5 -28t1.5 -28q0 -27 -7 -51.5t-18 -46.5q-11 -23 -22.5 -41t-20.5 -31q-11 -15 -21 -26 q5 1 14 3q8 1 19 2t28 1q44 -2 70.5 -11.5t42.5 -17.5q7 -3 9 -8.5t-0.5 -10t-7 -7.5t-10.5 -1q-11 7 -35 16t-66 11q-23 1 -37.5 -1t-23.5 -4t-15 -3.5t-11 -0.5q-14 2 -20 7.5t-1 12.5q3 2 12 12t20.5 24.5t23 31.5t20.5 34q14 26 22 54t8 56q0 25 -7 46q-5 13 -16.5 22.5 t-27 16t-33.5 10t-36 3.5q-20 0 -38 -5q-21 -6 -39 -15t-34 -24t-28 -38t-21 -57q-6 -30 -6 -58q0 -33 8 -60t24 -44q8 -9 14.5 -13t12.5 -5.5t11.5 -2t11.5 -2.5q6 -1 8 -6.5t0.5 -11.5t-6.5 -11t-11 -6q-10 0 -20 4q-4 2 -9 5q-10 -7 -22 -11q-11 -4 -25 -7t-31 -3 q-40 2 -67 16t-38 28q-6 9 -6 14.5t4.5 8.5t10.5 3t12 -3q8 -7 25.5 -19.5t58.5 -21.5q12 -2 23.5 0.5t21.5 5.5q11 4 21 9z" />
<glyph unicode="&#x2202;" horiz-adv-x="402" d="M208 592q6 -3 18.5 -19t25 -41.5t23 -58.5t11.5 -70v-44q27 -2 47 -4t26 -4q9 -1 12 -5.5t0.5 -9t-10.5 -7.5t-22 -1q-9 2 -23.5 3t-31.5 3q-4 -41 -14.5 -74.5t-25.5 -59.5t-32.5 -43.5t-35.5 -25.5q-20 -8 -45 -3.5t-48.5 18t-41 34.5t-21.5 46q-3 26 3.5 48t20.5 39 t33 28t41 16q17 3 38.5 4.5t44.5 1.5q16 0 31.5 -0.5t30.5 -1.5q1 28 -3 58t-13.5 57.5t-24 50.5t-34.5 36q-9 5 -9 11.5t4 11.5t11.5 7t13.5 -1zM121 334q-37 -11 -57 -32t-20 -53q0 -8 1 -16.5t4 -17.5q2 -10 11.5 -21.5t23.5 -21t31 -16t34 -6.5q20 0 36 10 q15 11 27.5 29.5t22.5 42t16.5 50.5t9.5 54q-38 3 -77 3q-19 0 -35.5 -1t-27.5 -4z" />
<glyph unicode="&#x2206;" horiz-adv-x="336" d="M52 136q-2 -8 -12.5 -2t-10.5 17q1 5 10.5 21t23 37t28 43.5t25.5 40.5q12 18 29.5 43.5t34 49.5t30 43.5t16.5 25.5q7 9 19 3.5t10 -20.5q-1 -9 1.5 -42t6 -72t8 -74t7.5 -47q7 -24 12 -31t11 -15q3 -5 2.5 -8.5t-3.5 -6t-7 -2.5t-6 2q-5 5 -9 8t-17 10q-8 1 -31.5 -1 t-50.5 -4.5t-50.5 -5.5t-30.5 -4q-5 0 -7.5 -1.5t-4.5 -3t-6 -3t-13 -1.5q-10 0 -14 3q-1 -1 -1 -3zM145 293l-21 -31.5t-21.5 -34t-20 -33.5t-16.5 -29q10 1 24.5 2.5t29.5 3t29.5 3t24.5 3.5q13 2 28.5 4t28.5 4l30 4l-7 42q-3 17 -6 37t-5 34q-1 15 -2 35t-2 38t-3 30.5 t-4 12.5q-3 0 -12.5 -12t-22 -31t-26.5 -41t-26 -41z" />
<glyph unicode="&#x220f;" horiz-adv-x="542" d="M141 267q-17 -42 -31.5 -69.5t-9.5 -32.5q1 -1 4 -1t6 -1.5t4.5 -5t0.5 -9.5q-2 -13 -16 -17.5t-25 0.5q-5 3 -4 13.5t6.5 25.5t14 34t18.5 40q26 61 44 109t26 69q-24 -2 -47.5 -5t-41.5 -5.5t-29.5 -4t-12.5 -1.5q2 -1 3.5 -2.5t-6.5 -3.5q-4 -1 -10 1.5t-10.5 7 t-5.5 9t6 6.5q4 1 24 4t49.5 6.5t66.5 7.5t75.5 7t75 4.5t66.5 1.5q78 -2 111.5 -7t35.5 -16q2 -8 -7 -15.5t-16 -7.5q-8 0 -6 5.5t-2 11.5q-4 2 -37 4t-79 2q-38 0 -79.5 -1.5t-77.5 -4.5q-5 -1 -10.5 -1t-10.5 -1q-7 -18 -23.5 -62t-39.5 -95zM361 415q2 6 6.5 7t8 -1.5 t6 -7t0.5 -7.5q-2 -8 -10.5 -26t-21.5 -55q-8 -17 -16 -36t-15 -36l-16 -38q2 -1 4 -3q5 -5 5 -9q0 -7 -9 -29.5t-20 -42.5q-5 -11 -10.5 -15.5t-11 -5.5t-10 0.5t-6.5 2.5q-1 1 2.5 14t10.5 31.5t15 38.5t16 35q6 16 17 44.5t22.5 57t20.5 51.5t12 30z" />
<glyph unicode="&#x2211;" horiz-adv-x="415" d="M389 402q-3 2 -15.5 5.5t-31 6.5t-42 5t-48.5 1q-26 -2 -51.5 -4t-45.5 -4q-24 -2 -45 -4q4 -9 13 -20q8 -10 20.5 -24t33.5 -31q29 -24 47 -28.5t23 -6.5q4 -2 10.5 -10.5t-2.5 -12.5q-4 -2 -13.5 -5.5t-24 -9.5t-33.5 -16.5t-42 -26.5q-23 -18 -40 -31t-28 -22 q-13 -11 -22 -17l50 4q21 2 44 2.5t40 -0.5q16 -1 34.5 -2.5t35.5 -3t32 -2.5t25 -1q10 -1 12.5 -5t0 -8.5t-7.5 -9t-11 -6.5q-4 -2 -5 -2t-2.5 2t-4.5 4.5t-11 4.5q-11 2 -38.5 6t-69.5 4q-29 0 -62 -3.5t-70 -12.5q-11 -2 -18 -0.5t-11 5t-4.5 8t1.5 7.5q3 5 13 14t24 20 t31 24l34 26q40 30 89 64q-7 4 -17 11q-8 6 -19.5 15t-24.5 21q-24 22 -37.5 39.5t-20.5 23.5q-7 7 -11 17t2 15q7 2 33.5 3.5t68.5 5.5q21 2 41.5 3t39.5 1q51 0 88 -5.5t51 -13.5q10 -5 11 -10t-2 -8t-8.5 -3.5t-8.5 1.5z" />
<glyph unicode="&#x2212;" horiz-adv-x="291" d="M110 267q-3 -1 -7 -2t-11 -1h-17q-20 -2 -28 0.5t-15 11.5q-5 8 -1.5 14t18.5 4q14 -2 30.5 -1t51.5 1q37 0 67 2t41 -3q13 -5 17 -12t-3 -14q-5 -9 -15.5 -13t-19.5 -2q-4 2 -2 6t4.5 8t2.5 7t-7 3q-8 1 -25.5 0t-35.5 -3q-21 -3 -45 -6z" />
<glyph unicode="&#x221a;" horiz-adv-x="417" d="M39 320q7 -5 25.5 -8.5t35.5 -3.5t33 -4.5t16 -24.5q0 -11 -0.5 -27t-1.5 -30q-1 -17 -1 -35q13 27 28 53q13 23 28.5 48t30.5 46q22 30 44.5 53.5t42 41t34.5 28.5t21 14q7 2 11.5 1t7.5 -4t3.5 -6.5t-1.5 -5.5q-2 -5 -8.5 -14t-15.5 -9q-4 -1 -18 -9.5t-32.5 -24 t-39 -38t-37.5 -50.5q-44 -68 -64 -112t-29 -53q-11 -7 -20.5 -5t-11.5 19q-2 11 0 36t2 48q0 12 -1 21.5t-4 13.5q-5 4 -15.5 5.5t-22.5 2t-24 1.5t-19 6q-8 4 -10 9.5t-0.5 10t5 6.5t8.5 0z" />
<glyph unicode="&#x221e;" horiz-adv-x="734" d="M326 300q-10 -11 -30.5 -26.5t-45.5 -31t-50.5 -28.5t-44.5 -18q-21 -8 -40.5 -12t-35.5 -4q-24 0 -34 10q-8 6 -9 17.5t3.5 24.5t15.5 26.5t27 24.5q38 24 85.5 39t107.5 15q11 0 21 -0.5t21 -1.5q2 0 3 -0.5t3 -0.5q2 3 4.5 6.5t4.5 6.5q21 30 34.5 57.5t29.5 38.5 q5 10 17 14q11 4 25.5 6.5t34.5 2.5q27 0 68 -6q48 -9 80.5 -25.5t49.5 -38.5q11 -11 17 -26t-2 -32q-3 -8 -11.5 -13.5t-18 -10t-20 -7.5t-17.5 -4q-16 -5 -36 -6.5t-42 -1.5q-26 0 -52.5 1.5t-52 4t-48 4t-39.5 1.5h-8.5t-8.5 1q-2 -3 -6 -7zM451 431q-7 -2 -24.5 -5.5 t-30.5 -20.5q-10 -11 -21 -32t-25 -41q49 -5 97 -9t89 -4q37 0 60 4q29 5 48.5 15.5t19.5 26.5q0 20 -39 43q-31 17 -66 26t-67 9q-24 0 -41 -4q3 -5 0 -8zM120 277q-22 -11 -35 -22.5t-19 -21t-6.5 -17t2.5 -9.5q7 -6 40.5 -3t84.5 27q35 16 63 34.5t51 43.5q-9 1 -18.5 1 h-19.5q-33 0 -69 -6.5t-74 -26.5z" />
<glyph unicode="&#x222b;" horiz-adv-x="386" d="M357 615q-7 -9 -17.5 -22t-23.5 -39q-6 -14 -21.5 -55t-39 -94.5t-54.5 -113t-68 -111.5q-35 -49 -65 -83t-56 -55.5t-49 -33t-44 -14.5q-14 -2 -23.5 3t-14 14t-4 20.5t6.5 23.5q7 18 14 13t0 -18q-2 -5 -1.5 -11.5t3.5 -12t9.5 -8t17.5 2.5q8 3 23 8t39 23t56.5 53 t76.5 98q24 35 47 77t43.5 85t37 83.5t29 74t20 56.5t8.5 30q7 20 15 28.5t23 6.5q13 -2 15.5 -12t-3.5 -17z" />
<glyph unicode="&#x2248;" horiz-adv-x="429" d="M64 346q-2 -6 -1.5 -11t-4.5 -12q-2 -7 -11.5 -5t-14.5 11q-2 7 4 26.5t28 37.5q11 9 22.5 12.5t23.5 3.5q17 0 32 -4.5t26 -6.5q8 -3 22.5 -9t31 -12t34 -10t31.5 -3q29 2 41 10t23 22q6 6 11.5 6t8.5 -4t3 -10t-3 -10q-3 -5 -8.5 -12t-15 -13t-24 -10t-36.5 -5 q-25 0 -46.5 5.5t-41.5 13t-39.5 15t-40.5 12.5q-15 2 -25.5 -2.5t-17 -11t-9.5 -14t-3 -10.5zM113 245q-6 0 -14.5 -6.5t-16 -15.5t-14.5 -18.5t-10 -14.5q-3 -6 -7 -5.5t-7.5 3.5t-5 8t-0.5 8q0 7 11.5 25t28.5 33q15 12 30 12q17 0 31 -12q6 -4 15 -11t22.5 -14t30 -13 t37.5 -8q26 -2 49 1.5t41 9t30.5 12t18.5 9.5q3 3 8.5 2.5t8.5 -3.5t2.5 -9t-7.5 -14q-6 -5 -19.5 -11t-31.5 -11t-40 -8.5t-44 -3.5q-19 0 -37 3q-22 4 -39.5 12.5t-31.5 17.5t-23.5 15.5t-15.5 6.5z" />
<glyph unicode="&#x2260;" horiz-adv-x="344" d="M275 381q-3 -2 -9 -6.5t-14 -11.5q26 -2 38 -6q13 -5 15 -12t-5 -14q-5 -9 -15.5 -13t-19.5 -2q-4 2 -2 6t4.5 8t2.5 7t-7 3l-40 -3q-12 -11 -24.5 -24t-26.5 -28q-5 -5 -8.5 -9t-8.5 -8h22q37 2 68.5 -2t47.5 -9q13 -2 15.5 -10t-11.5 -15q-7 -2 -12.5 -1.5t-10.5 2.5 t-11 5q-5 0 -12 1t-17 1.5t-25 0.5h-19.5t-23.5 -1q-11 -1 -21.5 -2t-20.5 -3q-11 -11 -17.5 -18.5t-7.5 -9.5q-13 -15 -13 -23.5t-7 -8.5t-11.5 9.5t8.5 25.5q3 4 7 9t9 11q-24 -5 -36 -2q-13 2 -16 10t10 15q9 5 29.5 8t45.5 5q11 11 23 24t26 29q4 5 7.5 8.5l7.5 7.5 l-77 -4q-40 -5 -50 8q-6 8 -2 15t19 5q14 -2 45 2t66 4h25q14 14 24.5 24t18.5 13q15 6 19.5 -4t-2.5 -17z" />
<glyph unicode="&#x2264;" horiz-adv-x="397" d="M115 293q64 -30 109 -54t69 -30q10 -3 13.5 -8t0.5 -9.5t-11.5 -7.5t-20.5 0q-8 2 -26.5 11t-39 20t-39 21t-25.5 15q-17 8 -26.5 10t-26.5 6q-38 13 -21 35q7 9 12 8t11 4q3 1 17 8t33.5 16t42 19.5t43.5 20.5t38 17t24 9q11 3 15.5 -1t4 -10.5t-5 -13t-11.5 -8.5 q-8 -3 -29 -11.5t-47.5 -19.5t-54.5 -23.5t-49 -23.5zM326 137q-5 0 -12 1t-17 1.5t-25 0.5h-19.5t-23.5 -1q-18 -1 -46.5 -4.5l-57 -7t-52.5 -6t-31 -0.5q-13 2 -16 10t10 15q7 4 31 7t55 5.5t63 4.5t55 4q37 2 68.5 -2t47.5 -9q13 -2 15.5 -10t-11.5 -15q-7 -2 -12.5 -1.5 t-10.5 2.5t-11 5z" />
<glyph unicode="&#x2265;" horiz-adv-x="363" d="M253 322q-32 5 -62 12q-26 6 -52 13.5t-40 18.5q-11 7 -16 16t-5.5 15.5t3.5 9.5t12 -1q13 -8 39.5 -21.5t61.5 -21.5q42 -10 70.5 -13t39.5 -5t15 -11t-12 -18q-6 -5 -21 -12t-33 -14t-36 -13.5t-31 -12.5q-14 -5 -26.5 -11.5t-23.5 -11.5q-12 -6 -23 -12q3 -5 3 -10 t-3 -9.5t-12 -9.5q-15 -8 -26.5 -3.5t-13.5 12.5q-2 6 2.5 12.5t14 14t22 15t25.5 13.5q12 7 33.5 17t42.5 19q25 11 52 22zM308 150q-5 0 -12 1t-17 1.5t-25 0.5h-19.5t-23.5 -1q-18 -1 -46.5 -4.5l-57 -7t-52.5 -6t-31 -0.5q-13 2 -16 10t10 15q7 4 31 7t55 5.5t63 4.5 t55 4q37 2 68.5 -2t47.5 -9q13 -2 15.5 -10t-11.5 -15q-7 -2 -12.5 -1.5t-10.5 2.5t-11 5z" />
<glyph unicode="&#x25ca;" horiz-adv-x="248" d="M144 388q7 -9 18 -25.5t22 -33.5t20 -32t13 -21q5 -9 8 -25t-3 -29q-2 -6 -13 -26.5t-25 -44.5t-28 -45t-23 -28q-7 -5 -11 -2q-4 -3 -15 2q-10 3 -23.5 23t-27 44t-23.5 45.5t-12 26.5q-7 14 -3 25t15 25q4 5 14 21.5t22 36t24.5 38.5t21.5 31l2 2l9 9q6 4 11.5 3.5 t8.5 -4t3 -8.5t-5 -8zM47 232q15 -32 27 -58q11 -23 21.5 -43t17.5 -24q2 -1 3 -2t3 -2q2 2 3 4q4 8 16 29t26 44q16 26 34 57q-13 27 -25 52q-11 20 -22.5 40.5t-19.5 30.5l-5 5q-11 -17 -24.5 -39.5t-25.5 -43.5q-14 -25 -29 -50z" />
<glyph unicode="&#xe000;" horiz-adv-x="325" d="M0 325h325v-325h-325v325z" />
<glyph unicode="&#xf8ff;" horiz-adv-x="551" d="M308 485q11 -23 15 -48t4 -40q9 15 19 29t20 24q14 12 29 22.5t28.5 18t25 10.5t19.5 1q9 -1 15.5 -5.5t10 -9t3.5 -9t-6 -5.5q-6 0 -17.5 -0.5t-25 -4t-28 -10.5t-27.5 -20q-19 -18 -35.5 -43t-28.5 -47q20 20 52 29q17 6 37 3t39 -13t35.5 -26.5t27.5 -38.5 q12 -23 12 -52q0 -37 -19 -75t-54 -62q-24 -16 -56 -31t-63.5 -26t-58 -16t-39.5 -2t-16 13q-35 -2 -80 10q-51 14 -84 41t-44 67q-5 17 -2 34.5t13 35.5t24.5 36.5t31.5 38.5q37 40 76 61t65 17l-12 8t-13 9q-26 18 -35.5 42.5t-9.5 47.5q0 14 2 25.5t5 21.5q11 28 23 37 t21 9q8 0 14 -3q10 0 22 -10t24 -25t22.5 -33.5t18.5 -35.5zM245 102q3 3 7 2.5t7 -3t5 -6t1 -5.5q-9 -9 -10 -18q4 0 7 0.5t6 0.5q11 2 16 -2t1 -9q27 4 70 19t84 44q40 29 55 59t15 60q0 22 -6 43q-6 19 -19.5 33t-30.5 23t-34 12.5t-29 1.5q-14 -2 -25 -10t-25 -22 q-12 -12 -18.5 -12.5t-9.5 4.5q-6 -12 -6 -15q-1 -3 -5 -2t-8 4.5t-6.5 8.5t-1.5 9l2 4q-8 11 -22 26t-35 20q-26 4 -53 -11t-66 -50q-18 -17 -32.5 -35t-24 -35.5t-13.5 -34t-2 -29.5q5 -28 32 -52.5t75 -40.5q26 -9 45.5 -12t34.5 -2q3 11 9 20.5t10 11.5zM288 482 q-13 30 -30 53.5t-28 30.5q-6 3 -10 7q-5 -2 -11 -3.5t-17 -15.5q-5 -7 -10.5 -21.5t-5.5 -33.5q0 -17 6.5 -35t24.5 -34q32 -28 57.5 -34.5t38.5 -6.5q2 11 -1 37.5t-14 55.5zM271 370q8 -7 14.5 -13t11.5 -11q2 3 4 6.5t4 7.5h-2q-15 3 -32 10z" />
<glyph unicode="&#xfb01;" horiz-adv-x="265" d="M284 235q13 11 20.5 7t0.5 -11q-9 -9 -24 -22.5t-34.5 -26.5t-41.5 -24t-45 -14q-22 -5 -30 3t-8 26v6.5t2 7.5q-18 -16 -44 -36t-61 -46q-5 -5 -10.5 -8.5t-10.5 -7.5q-1 -5 -2 -8.5t-3 -7.5q-14 -46 -20.5 -88t-6.5 -72q0 -11 1 -20.5t3 -16.5q8 -20 15.5 -22.5 t18.5 1.5q7 2 10.5 -6t-7.5 -17q-9 -6 -19.5 -5t-19.5 10.5t-15.5 27t-6.5 43.5q-1 28 6.5 71t19.5 95q-33 -18 -60.5 -25.5t-35.5 -0.5q-11 11 -5.5 19t13.5 4q9 -6 34 1t60 29q19 78 42.5 156t42.5 132q16 49 34.5 90.5t34.5 73t28.5 50.5t17.5 24q9 8 18 3.5t11 -15.5 q0 -6 -2 -28t-8 -54.5t-18 -72.5t-31 -83q-15 -32 -31 -58t-31.5 -45.5t-29.5 -33t-23 -22.5q-8 -27 -14.5 -52t-12.5 -47q20 13 40 28.5t38 30.5t33 28t24 23q10 19 20.5 32.5t15.5 13.5q6 0 13 -4.5t-2 -16.5q-6 -8 -16 -22.5t-17.5 -29.5t-9.5 -25.5t8 -10.5q19 1 38.5 9 t37 19t32 22t23.5 19zM94 409q-14 -34 -26 -72t-23 -77q14 17 39 51.5t48 80.5q14 30 25.5 65.5t18.5 66t10 51.5t1 23t-11 -12t-22 -40t-28.5 -61.5t-31.5 -75.5zM217 310q-8 2 -7.5 11t2.5 15q0 7 8.5 12t17.5 0q18 -15 6 -29q-5 -5 -11.5 -8t-15.5 -1z" />
<glyph unicode="&#xfb02;" horiz-adv-x="305" d="M304 568q29 32 48 32q14 0 20.5 -15t4.5 -40q-1 -22 -11 -49t-26 -55.5t-36.5 -58t-42.5 -57.5q-32 -41 -56.5 -66t-36.5 -36q-2 -9 -3 -16.5t-1 -14.5q0 -34 35 -28q18 3 38 12.5t37 20t30.5 21.5t18.5 17q11 11 16.5 5.5t-7.5 -20.5q-8 -9 -24 -22t-36 -25.5t-42.5 -22 t-41.5 -11.5q-15 -2 -24 3t-14 14.5t-6.5 22t-0.5 26.5q-31 -33 -124 -100q-5 -5 -10.5 -8.5t-10.5 -7.5q-1 -5 -2 -8.5t-3 -7.5q-14 -46 -20.5 -88t-6.5 -72q0 -11 1 -20.5t3 -16.5q8 -20 15.5 -22.5t18.5 1.5q7 2 10.5 -6t-7.5 -17q-9 -6 -19.5 -5t-19.5 10.5t-15.5 27 t-6.5 43.5q-1 28 6.5 71t19.5 95q-33 -18 -60.5 -25.5t-35.5 -0.5q-11 11 -5.5 19t13.5 4q9 -6 34 1t60 29q19 78 42.5 156t42.5 132q16 49 34.5 90.5t34.5 73t28.5 50.5t17.5 24q9 8 18 3.5t11 -15.5q0 -6 -2 -28t-8 -54.5t-18 -72.5t-31 -83q-15 -32 -31 -58t-31.5 -45.5 t-29.5 -33t-23 -22.5q-8 -27 -14.5 -52t-12.5 -47q21 14 41.5 29.5t39 31t33.5 29t24 23.5l3 3q0 4 1 6q7 41 24 87.5t38.5 91t46 83.5t47.5 65zM356 545q2 26 -8 27.5t-32 -24.5q-19 -24 -40.5 -60.5t-42 -77.5t-36.5 -81.5t-24 -72.5q13 14 33.5 36t49.5 62q48 65 72 115 t28 76zM94 409q-14 -34 -26 -72t-23 -77q14 17 39 51.5t48 80.5q14 30 25.5 65.5t18.5 66t10 51.5t1 23t-11 -12t-22 -40t-28.5 -61.5t-31.5 -75.5z" />
</font>
</defs>
</svg>
